<svg width="33" height="33" viewBox="0 0 33 33" fill="none" xmlns="http://www.w3.org/2000/svg">
<g id="actualizar 1">
<path id="Vector" d="M10.7631 7.02078C7.76106 7.28027 5.08238 9.15255 3.78895 11.8951C3.42168 12.6696 3.15022 13.6356 3.03844 14.5379C2.98654 14.977 2.98654 16.0628 3.04243 16.494C3.15421 17.4241 3.44164 18.3862 3.85282 19.2285C5.56542 22.7336 9.40979 24.6139 13.2422 23.8194C16.5317 23.1368 19.1305 20.526 19.8211 17.2126C19.9529 16.5778 19.9808 16.2545 19.9808 15.456C19.9768 14.5658 19.9529 14.4061 19.7692 14.1506C19.4139 13.6636 18.6075 13.7394 18.3441 14.2864C18.2842 14.4181 18.2722 14.5618 18.2682 15.3962C18.2642 16.474 18.2083 16.8533 17.9409 17.6517C17.5097 18.9451 16.6514 20.1308 15.5376 20.9691C13.7891 22.2825 11.4298 22.6617 9.34193 21.9631C7.01854 21.1887 5.30594 19.2605 4.79495 16.8333C4.67519 16.2584 4.64325 15.1926 4.73108 14.5658C4.89076 13.448 5.33787 12.3502 6.00455 11.44C6.35585 10.957 7.15826 10.1985 7.66925 9.85915C9.7092 8.50184 12.2162 8.31022 14.4079 9.34816C14.9468 9.60765 15.9209 10.2464 15.9289 10.3542C15.9328 10.3701 15.6015 10.3861 15.1983 10.3941L14.4638 10.4061L14.2881 10.5258C13.7412 10.9131 13.821 11.7474 14.4238 12.0029C14.5516 12.0548 14.827 12.0628 16.2562 12.0628C17.4738 12.0628 17.9848 12.0508 18.1045 12.0149C18.3281 11.947 18.5796 11.6875 18.6435 11.464C18.6794 11.3282 18.6874 10.8532 18.6794 9.58769L18.6674 7.89105L18.5556 7.70343C18.3241 7.30422 17.7971 7.16849 17.3979 7.40402C17.0506 7.60762 16.9708 7.8152 16.9708 8.49386V8.98488L16.6075 8.70943C15.1544 7.59564 13.2582 6.97288 11.4058 7.00082C11.1424 7.00481 10.8509 7.0128 10.7631 7.02078Z" fill="url(#paint0_linear_361_860)" stroke="url(#paint1_linear_361_860)"/>
</g>
<defs>
<linearGradient id="paint0_linear_361_860" x1="11.4904" y1="24" x2="11.4904" y2="6.99992" gradientUnits="userSpaceOnUse">
<stop stop-color="#2DD681"/>
<stop offset="1" stop-color="#00AA55"/>
</linearGradient>
<linearGradient id="paint1_linear_361_860" x1="11" y1="24" x2="11" y2="8.5" gradientUnits="userSpaceOnUse">
<stop stop-color="#2BD47F"/>
<stop offset="1" stop-color="#0EB762"/>
</linearGradient>
</defs>
</svg>
