<svg width="93" height="31" viewBox="0 0 93 31" fill="none" xmlns="http://www.w3.org/2000/svg">
<g id="Group">
<path id="Vector" d="M57.0098 3.61511C56.9949 5.55206 57.0144 7.48902 56.9977 9.42505C56.994 9.80108 57.0666 9.85693 57.4268 9.73127C59.6504 8.95873 61.9355 8.78839 64.2485 9.18677C67.0678 9.6717 69.0988 11.2559 70.2539 13.8565C71.7022 17.117 71.892 20.5451 70.938 23.9359C69.836 27.8527 66.2645 30.3807 62.1952 30.5073C59.6839 30.5854 57.4035 30.0102 55.4637 28.359C53.3527 26.5617 52.2274 24.2543 52.2107 21.4889C52.1725 15.1363 52.2107 8.78374 52.1902 2.43115M66.2385 19.8731C66.2385 19.1899 66.2366 18.6482 66.2394 18.1055C66.2422 17.4298 66.1314 16.7754 65.8206 16.1732C64.9103 14.4103 63.4275 13.6945 61.4794 13.7392C59.387 13.7876 57.6083 15.2471 57.2946 17.3172C57.1038 18.5774 57.2332 19.8545 57.2248 21.1231C57.208 23.7228 58.7382 25.4177 61.3109 25.6914C63.6965 25.9446 65.7424 24.4674 66.1752 22.146C66.3232 21.3502 66.2133 20.5367 66.2385 19.8731Z" fill="#02336A"/>
<path id="Vector_2" d="M14.1146 20.6877C13.329 23.0798 12.5695 25.3816 11.8174 27.6862C11.5922 28.3759 11.2636 28.9977 10.7145 29.4845C8.64254 31.3228 5.45462 30.4348 4.66345 27.7662C3.18723 22.7856 1.74824 17.7948 0.286914 12.8095C0.10355 12.1822 -0.101222 11.5632 0.0560797 10.9005C0.314837 9.81146 1.26889 9.03054 2.35604 9.00727C3.45623 8.98493 4.34233 9.65789 4.66345 10.7888C5.81297 14.834 6.95504 18.881 8.10083 22.9271C8.14271 23.0751 8.18646 23.2222 8.25906 23.4716C8.56343 22.3854 8.84359 21.3923 9.1191 20.3972C10.0145 17.1637 10.9062 13.9302 11.8035 10.6976C12.133 9.51082 13.007 8.81739 14.1416 8.82204C15.2651 8.82763 16.1307 9.51827 16.4537 10.6799C17.5501 14.6273 18.6429 18.5757 19.7384 22.5241C19.7831 22.6842 19.8371 22.8424 19.932 23.1458C20.0791 22.66 20.188 22.3081 20.2913 21.9554C21.3738 18.2611 22.447 14.564 23.5416 10.8735C24.0219 9.25486 25.7941 8.55212 27.2312 9.37865C28.2979 9.99204 28.7186 11.1918 28.3156 12.4828C27.5961 14.7856 26.8728 17.0865 26.1524 19.3883C25.284 22.162 24.4184 24.9367 23.5481 27.7095C23.0203 29.3933 21.6567 30.4395 19.986 30.4516C18.3543 30.4627 16.9656 29.4314 16.423 27.7756C15.7156 25.6161 15.0249 23.4511 14.3259 21.288C14.271 21.113 14.2049 20.9427 14.1146 20.6877Z" fill="#02336A"/>
<path id="Vector_3" d="M44.1881 27.7495C43.7571 28.3071 43.4072 28.7539 42.9632 29.115C41.2626 30.5 39.2857 30.8584 37.1923 30.5261C33.1369 29.8829 30.5754 27.2171 29.9806 23.0277C29.5618 20.079 29.7163 17.1545 30.7895 14.3416C31.9846 11.2096 34.3525 9.58255 37.6261 9.19069C39.3452 8.98499 41.0569 9.04735 42.7482 9.42711C46.0301 10.1634 47.8758 12.279 48.5562 15.5088C48.7806 16.5727 48.8997 17.6506 48.9072 18.7331C48.9286 21.8614 48.9202 24.9907 48.9118 28.12C48.909 29.1941 48.2202 30.0867 47.2224 30.3623C46.1371 30.6629 45.0277 30.2413 44.4738 29.3235C44.2086 28.8814 44.1388 28.3983 44.1881 27.7495ZM34.8039 19.8007C34.8449 20.5332 34.7527 21.2918 34.884 22.0467C35.274 24.2861 37.278 25.8889 39.6431 25.8368C41.796 25.7893 43.7385 24.0292 44.0094 21.8707C44.1583 20.684 44.1006 19.4889 44.0671 18.3003C44.001 15.9156 42.1971 13.9842 39.9065 13.7618C37.6065 13.5393 35.53 15.0146 34.9436 17.2829C34.7313 18.1066 34.8402 18.9453 34.8039 19.8007Z" fill="#02336A"/>
<path id="Vector_4" d="M92.992 16.7158C92.992 18.2181 92.9632 19.7222 92.9976 21.2236C93.1195 26.5393 88.8081 30.7725 83.3826 30.5053C78.7818 30.2782 75.0558 26.7506 74.7738 22.172C74.6389 19.9763 74.745 17.775 74.7263 15.5756C74.7152 14.2585 74.7124 12.9415 74.7273 11.6253C74.7459 10.0607 75.8079 8.99403 77.3093 9.0052C78.7157 9.01544 79.7647 10.1417 79.7656 11.657C79.7693 14.7397 79.7647 17.8225 79.7675 20.9052C79.7693 22.7249 80.8481 24.2095 82.5282 24.7168C84.4 25.2827 86.35 24.6451 87.3468 23.1363C87.7759 22.4866 87.9872 21.7709 87.9863 20.9899C87.9835 17.8448 87.976 14.6997 87.9891 11.5555C87.9974 9.6009 89.9502 8.38995 91.648 9.2835C92.5518 9.75913 92.9855 10.5456 92.9911 11.5583C92.9985 13.2766 92.992 14.9966 92.992 16.7158Z" fill="#02336A"/>
<path id="Vector_5" d="M54.5972 13.4749C53.2671 13.4749 52.1893 12.3971 52.1893 11.067V2.40793C52.1893 1.07784 53.2671 0 54.5972 0C55.9273 0 57.0051 1.07784 57.0051 2.40793V11.067C57.0051 12.3971 55.9273 13.4749 54.5972 13.4749Z" fill="#02336A"/>
</g>
</svg>
