<svg width="37" height="35" viewBox="0 0 37 35" fill="none" xmlns="http://www.w3.org/2000/svg">
<path id="Star 1" d="M16.6019 1.71756C17.2082 -0.108909 19.7918 -0.108909 20.3981 1.71756L23.3213 10.5228C23.5928 11.3406 24.3577 11.8926 25.2194 11.8926H34.586C36.5339 11.8926 37.3325 14.3937 35.745 15.5225L28.2418 20.8579C27.5257 21.3671 27.2259 22.2841 27.5027 23.118L30.3861 31.8032C30.9953 33.6383 28.9047 35.1838 27.3289 34.0633L19.659 28.6094C18.9651 28.116 18.0349 28.116 17.341 28.6094L9.67108 34.0633C8.09529 35.1838 6.00471 33.6383 6.61393 31.8032L9.49727 23.118C9.77412 22.2841 9.47425 21.3672 8.75816 20.8579L1.25495 15.5225C-0.332475 14.3937 0.466127 11.8926 2.41397 11.8926H11.7806C12.6423 11.8926 13.4072 11.3406 13.6787 10.5228L16.6019 1.71756Z" fill="url(#paint0_linear_355_722)"/>
<defs>
<linearGradient id="paint0_linear_355_722" x1="44.6111" y1="39.7742" x2="-10.0963" y2="-0.547958" gradientUnits="userSpaceOnUse">
<stop stop-color="#1A68FB"/>
<stop offset="1" stop-color="#3AC1EA"/>
</linearGradient>
</defs>
</svg>
