<svg width="67" height="32" viewBox="0 0 67 32" fill="none" xmlns="http://www.w3.org/2000/svg">
<g id="Sin t&#195;&#173;tulo-1 1">
<path id="Vector" d="M67 17.8633C65.3085 19.2293 63.6274 20.6074 61.9239 21.9579C57.8651 25.1761 53.796 28.3811 49.7307 31.5911C49.621 31.6776 49.5135 31.7697 49.3951 31.8423C48.9518 32.1135 48.4601 32.0281 48.1757 31.6382C47.8968 31.2561 47.947 30.7204 48.3476 30.3915C49.2133 29.6805 50.0992 28.9956 50.9779 28.3013C55.3713 24.8295 59.7651 21.3589 64.159 17.8866C64.2987 17.7762 64.433 17.6598 64.6164 17.5078C64.4335 17.3503 64.2774 17.2067 64.1121 17.0758C58.9819 13.0201 53.8511 8.96491 48.7199 4.91029C47.9988 4.34017 47.8242 3.84326 48.1757 3.35966C48.5507 2.84389 49.0632 2.88105 49.8246 3.48278C55.2861 7.79638 60.7487 12.1094 66.2075 16.4258C66.4847 16.6449 66.7364 16.8983 66.9995 17.1357C67 17.3786 67 17.621 67 17.8633Z" fill="url(#paint0_linear_358_816)"/>
<path id="Vector_2" d="M33.8656 7.78853C33.8656 6.80725 33.8656 5.89952 33.8656 4.99179C33.8656 4.64687 33.7992 4.28244 33.8871 3.96203C33.9805 3.62268 34.1529 3.17467 34.4172 3.05152C34.6809 2.92837 35.1802 3.04038 35.4389 3.23541C37.1227 4.50756 38.7701 5.82987 40.428 7.13769C44.3756 10.2509 48.3226 13.3658 52.2701 16.4796C53.2425 17.2464 53.243 17.7574 52.2734 18.5224C46.7471 22.8822 41.2207 27.2414 35.6944 31.6006C35.5999 31.6753 35.5131 31.7895 35.4065 31.8152C35.0764 31.8937 34.6611 32.0854 34.4243 31.9567C34.1568 31.8113 33.9145 31.3755 33.8937 31.0506C33.8261 30.0198 33.8667 28.9822 33.8662 27.9469C33.8662 27.7284 33.8662 27.51 33.8662 27.2158C33.5487 27.2158 33.2949 27.2158 33.0416 27.2158C24.1775 27.2158 15.3128 27.2163 6.4487 27.213C6.17128 27.213 5.88233 27.2097 5.61865 27.135C5.17917 27.0102 4.96219 26.6658 5.00558 26.2111C5.04843 25.762 5.30937 25.4666 5.76916 25.407C5.96638 25.3814 6.16853 25.3903 6.36849 25.3903C15.6732 25.3897 24.9773 25.3897 34.282 25.3897C35.4692 25.3897 35.6658 25.592 35.6675 26.8135C35.6686 27.5969 35.6675 28.3804 35.6675 29.306C40.7093 25.3284 45.6286 21.4479 50.6293 17.5027C45.6501 13.5742 40.7203 9.68478 35.6675 5.6978C35.6675 6.64119 35.6691 7.44472 35.6669 8.24824C35.6642 9.38722 35.4444 9.61569 34.3458 9.61569C25.0015 9.61624 15.6567 9.61624 6.31246 9.61569C6.13228 9.61569 5.95045 9.62237 5.77301 9.59953C5.31266 9.5399 5.05173 9.24624 5.00613 8.79823C4.95999 8.34353 5.17533 7.99749 5.6148 7.87156C5.87793 7.79577 6.16689 7.79299 6.44485 7.79299C15.309 7.78909 24.1737 7.7902 33.0378 7.7902C33.2905 7.78853 33.5443 7.78853 33.8656 7.78853Z" fill="url(#paint1_linear_358_816)"/>
<path id="Vector_3" d="M57.6312 17.4958C55.5649 15.8603 53.562 14.2735 51.5568 12.6884C48.2476 10.0726 44.9374 7.45788 41.6277 4.84264C41.5491 4.78054 41.4678 4.72232 41.3925 4.65635C40.974 4.28931 40.8856 3.76704 41.1732 3.36951C41.4825 2.94205 42.0069 2.87164 42.4876 3.23091C43.0954 3.68554 43.6841 4.16679 44.2799 4.63805C49.2832 8.59224 54.2871 12.5459 59.2899 16.5012C60.2332 17.2469 60.2365 17.7536 59.3008 18.4938C53.7655 22.871 48.2286 27.246 42.6916 31.621C42.0609 32.1195 41.5453 32.1256 41.1824 31.6432C40.8354 31.1825 40.9849 30.6696 41.6184 30.1684C46.7461 26.1133 51.8749 22.0588 57.0026 18.0037C57.1892 17.8562 57.3731 17.7048 57.6312 17.4958Z" fill="url(#paint2_linear_358_816)"/>
<path id="Vector_4" d="M35.8361 17.0427C35.8361 18.1956 35.8361 19.3491 35.8361 20.502C35.8361 20.7014 35.8434 20.9013 35.8294 21.1001C35.7903 21.6352 35.449 21.983 34.9596 21.9994C34.4791 22.0159 34.0646 21.6779 34.0261 21.1581C33.9836 20.583 34.0059 20.003 34.0054 19.4246C34.0037 17.69 34.0076 15.956 34.0032 14.2214C34.0015 13.7126 34.0802 13.2443 34.6546 13.0707C35.2199 12.8998 35.5613 13.2092 35.8607 13.6425C36.7848 14.9783 37.7272 16.3011 38.6647 17.6282C38.7764 17.7864 38.8982 17.9387 39.125 18.2388C39.125 17.8741 39.1261 17.6681 39.125 17.4622C39.1178 16.2863 39.0977 15.1098 39.1083 13.9338C39.1133 13.3807 39.5094 13.0016 40.0127 13C40.5167 12.9984 40.9167 13.3735 40.9256 13.9273C40.9614 16.1997 40.9809 18.4722 40.9999 20.7446C41.0044 21.2622 40.8318 21.6982 40.2815 21.8718C39.7217 22.0482 39.3491 21.7623 39.0496 21.3367C38.1496 20.0572 37.2496 18.7778 36.3479 17.5C36.2244 17.3253 36.0903 17.1582 35.9607 16.9879C35.9194 17.006 35.8775 17.024 35.8361 17.0427Z" fill="url(#paint3_linear_358_816)"/>
<path id="Vector_5" d="M22 17.4925C22.0027 19.9691 20.007 21.9791 17.5239 21.9998C15.0396 22.0206 12.9923 19.9734 13 17.4767C13.0077 15.0127 15.0418 12.994 17.5096 13C19.9862 13.006 21.9978 15.0188 22 17.4925ZM20.2022 17.5303C20.2137 16.0333 19.0453 14.8295 17.5469 14.7945C16.0742 14.7601 14.8214 15.9655 14.7978 17.4389C14.7737 18.9545 15.9777 20.195 17.4855 20.2064C18.9664 20.2185 20.1912 19.0125 20.2022 17.5303Z" fill="url(#paint4_linear_358_816)"/>
<path id="Vector_6" d="M31.9999 17.5259C31.9829 20.0038 29.9613 22.0125 27.4967 21.9999C25.009 21.9874 22.9622 19.9136 23.0005 17.4439C23.0389 14.9851 25.1065 12.9649 27.5487 13.0005C30.0336 13.0371 32.0169 15.0535 31.9999 17.5259ZM30.2044 17.5259C30.2186 16.0384 29.0386 14.8249 27.5487 14.7937C26.0631 14.7625 24.7933 16.0121 24.7955 17.5029C24.7977 18.9713 26.0215 20.1963 27.4961 20.2067C28.9718 20.2171 30.1907 19.0107 30.2044 17.5259Z" fill="url(#paint5_linear_358_816)"/>
<path id="Vector_7" d="M8.80294 21.9998C7.42352 21.9582 6.33334 21.5949 5.43542 20.8016C4.91961 20.3458 4.86342 19.8391 5.25973 19.4365C5.65073 19.0392 6.20853 19.0469 6.73913 19.4824C7.42411 20.0443 8.19959 20.3168 9.11231 20.1368C9.58079 20.0443 10.051 19.7987 10.0025 19.3391C9.97119 19.0447 9.61037 18.6874 9.29686 18.5315C8.6385 18.2038 7.91093 17.9975 7.21767 17.7283C5.96956 17.2435 5.34491 16.4048 5.44547 15.3691C5.55549 14.2414 6.40847 13.3529 7.66367 13.0963C9.01352 12.8205 10.2226 13.1521 11.3074 13.9011C11.773 14.2228 11.8599 14.7087 11.5784 15.1141C11.2879 15.5316 10.7254 15.6519 10.2196 15.3565C9.60445 14.997 8.96561 14.6693 8.23153 14.852C7.91507 14.9308 7.66841 15.2503 7.3898 15.4604C7.60275 15.6716 7.77547 15.9561 8.03751 16.0787C8.62963 16.3561 9.26965 16.5443 9.88246 16.7845C11.4553 17.4011 12.2355 18.5474 11.9374 19.7866C11.6257 21.0822 10.2374 22.0162 8.80294 21.9998Z" fill="url(#paint6_linear_358_816)"/>
</g>
<defs>
<linearGradient id="paint0_linear_358_816" x1="68.0556" y1="30.5968" x2="40.1572" y2="17.4114" gradientUnits="userSpaceOnUse">
<stop stop-color="#1A68FB"/>
<stop offset="1" stop-color="#3AC1EA"/>
</linearGradient>
<linearGradient id="paint1_linear_358_816" x1="55.6667" y1="30.5968" x2="20.1197" y2="-11.846" gradientUnits="userSpaceOnUse">
<stop stop-color="#1A68FB"/>
<stop offset="1" stop-color="#3AC1EA"/>
</linearGradient>
<linearGradient id="paint2_linear_358_816" x1="61.0556" y1="30.5968" x2="33.1572" y2="17.4114" gradientUnits="userSpaceOnUse">
<stop stop-color="#1A68FB"/>
<stop offset="1" stop-color="#3AC1EA"/>
</linearGradient>
<linearGradient id="paint3_linear_358_816" x1="41.3889" y1="21.5645" x2="31.8252" y2="16.1987" gradientUnits="userSpaceOnUse">
<stop stop-color="#1A68FB"/>
<stop offset="1" stop-color="#3AC1EA"/>
</linearGradient>
<linearGradient id="paint4_linear_358_816" x1="22.5" y1="21.5645" x2="11.8665" y2="13.8939" gradientUnits="userSpaceOnUse">
<stop stop-color="#1A68FB"/>
<stop offset="1" stop-color="#3AC1EA"/>
</linearGradient>
<linearGradient id="paint5_linear_358_816" x1="32.5" y1="21.5645" x2="21.8665" y2="13.8939" gradientUnits="userSpaceOnUse">
<stop stop-color="#1A68FB"/>
<stop offset="1" stop-color="#3AC1EA"/>
</linearGradient>
<linearGradient id="paint6_linear_358_816" x1="12.3889" y1="21.5645" x2="2.82525" y2="16.1987" gradientUnits="userSpaceOnUse">
<stop stop-color="#1A68FB"/>
<stop offset="1" stop-color="#3AC1EA"/>
</linearGradient>
</defs>
</svg>
