<svg width="41" height="33" viewBox="0 0 41 33" fill="none" xmlns="http://www.w3.org/2000/svg">
<g id="Group 61">
<g id="Shape">
<g filter="url(#filter0_i_355_718)">
<path d="M38.4563 5.17914C39.1812 4.45189 39.1812 3.27279 38.4563 2.54553C37.7315 1.81828 36.5562 1.81828 35.8313 2.54553L23.4567 14.9605C22.7318 15.6877 22.7318 16.8668 23.4567 17.5941L35.8313 30.009C36.5562 30.7363 37.7314 30.7363 38.4563 30.009C39.1812 29.2818 39.1812 28.1027 38.4563 27.3754L27.3943 16.2773L38.4563 5.17914Z" fill="url(#paint0_linear_355_718)"/>
</g>
<path d="M38.4563 5.17914C39.1812 4.45189 39.1812 3.27279 38.4563 2.54553C37.7315 1.81828 36.5562 1.81828 35.8313 2.54553L23.4567 14.9605C22.7318 15.6877 22.7318 16.8668 23.4567 17.5941L35.8313 30.009C36.5562 30.7363 37.7314 30.7363 38.4563 30.009C39.1812 29.2818 39.1812 28.1027 38.4563 27.3754L27.3943 16.2773L38.4563 5.17914Z" stroke="url(#paint1_linear_355_718)" stroke-width="4"/>
</g>
<g id="Shape_2">
<g filter="url(#filter1_i_355_718)">
<path d="M2.54366 27.3753C1.81878 28.1026 1.81878 29.2817 2.54366 30.0089C3.26855 30.7362 4.44382 30.7362 5.16871 30.0089L17.5433 17.594C18.2682 16.8667 18.2682 15.6876 17.5433 14.9604L5.16871 2.54544C4.44382 1.81819 3.26855 1.81819 2.54366 2.54544C1.81878 3.27269 1.81878 4.45179 2.54366 5.17904L13.6057 16.2772L2.54366 27.3753Z" fill="url(#paint2_linear_355_718)"/>
</g>
<path d="M2.54366 27.3753C1.81878 28.1026 1.81878 29.2817 2.54366 30.0089C3.26855 30.7362 4.44382 30.7362 5.16871 30.0089L17.5433 17.594C18.2682 16.8667 18.2682 15.6876 17.5433 14.9604L5.16871 2.54544C4.44382 1.81819 3.26855 1.81819 2.54366 2.54544C1.81878 3.27269 1.81878 4.45179 2.54366 5.17904L13.6057 16.2772L2.54366 27.3753Z" stroke="url(#paint3_linear_355_718)" stroke-width="4"/>
</g>
</g>
<defs>
<filter id="filter0_i_355_718" x="20.913" y="0" width="20.087" height="36.5544" filterUnits="userSpaceOnUse" color-interpolation-filters="sRGB">
<feFlood flood-opacity="0" result="BackgroundImageFix"/>
<feBlend mode="normal" in="SourceGraphic" in2="BackgroundImageFix" result="shape"/>
<feColorMatrix in="SourceAlpha" type="matrix" values="0 0 0 0 0 0 0 0 0 0 0 0 0 0 0 0 0 0 127 0" result="hardAlpha"/>
<feOffset dy="4"/>
<feGaussianBlur stdDeviation="2"/>
<feComposite in2="hardAlpha" operator="arithmetic" k2="-1" k3="1"/>
<feColorMatrix type="matrix" values="0 0 0 0 0 0 0 0 0 0 0 0 0 0 0 0 0 0 0.25 0"/>
<feBlend mode="normal" in2="shape" result="effect1_innerShadow_355_718"/>
</filter>
<filter id="filter1_i_355_718" x="0" y="0" width="20.087" height="36.5544" filterUnits="userSpaceOnUse" color-interpolation-filters="sRGB">
<feFlood flood-opacity="0" result="BackgroundImageFix"/>
<feBlend mode="normal" in="SourceGraphic" in2="BackgroundImageFix" result="shape"/>
<feColorMatrix in="SourceAlpha" type="matrix" values="0 0 0 0 0 0 0 0 0 0 0 0 0 0 0 0 0 0 127 0" result="hardAlpha"/>
<feOffset dy="4"/>
<feGaussianBlur stdDeviation="2"/>
<feComposite in2="hardAlpha" operator="arithmetic" k2="-1" k3="1"/>
<feColorMatrix type="matrix" values="0 0 0 0 0 0 0 0 0 0 0 0 0 0 0 0 0 0 0.25 0"/>
<feBlend mode="normal" in2="shape" result="effect1_innerShadow_355_718"/>
</filter>
<linearGradient id="paint0_linear_355_718" x1="30.9565" y1="-15.2515" x2="7.7576" y2="41.2563" gradientUnits="userSpaceOnUse">
<stop stop-color="#00F6FF"/>
<stop offset="1" stop-color="#5600FF"/>
</linearGradient>
<linearGradient id="paint1_linear_355_718" x1="22.913" y1="-18.2259" x2="-4.08042" y2="40.8195" gradientUnits="userSpaceOnUse">
<stop stop-color="#00F6FF"/>
<stop offset="1" stop-color="#5600FF"/>
</linearGradient>
<linearGradient id="paint2_linear_355_718" x1="10.0435" y1="47.8059" x2="33.2424" y2="-8.70182" gradientUnits="userSpaceOnUse">
<stop stop-color="#00F6FF"/>
<stop offset="1" stop-color="#5600FF"/>
</linearGradient>
<linearGradient id="paint3_linear_355_718" x1="18.087" y1="50.7803" x2="45.0804" y2="-8.26507" gradientUnits="userSpaceOnUse">
<stop stop-color="#00F6FF"/>
<stop offset="1" stop-color="#5600FF"/>
</linearGradient>
</defs>
</svg>
