<svg width="37" height="37" viewBox="0 0 37 37" fill="none" xmlns="http://www.w3.org/2000/svg">
<g id="Lupa" style="mix-blend-mode:multiply">
<path d="M2.19336 33.0664L10.5078 24.752C10.6797 24.5801 10.873 24.4941 11.0879 24.4941H11.7324C10.6152 23.291 9.75586 21.916 9.1543 20.3691C8.50977 18.7793 8.1875 17.125 8.1875 15.4062C8.1875 12.957 8.78906 10.7227 9.99219 8.70312C11.1953 6.64062 12.8281 5.00781 14.8906 3.80469C16.9102 2.60156 19.1445 2 21.5938 2C24.043 2 26.2988 2.60156 28.3613 3.80469C30.3809 5.00781 31.9922 6.64062 33.1953 8.70312C34.3984 10.7227 35 12.957 35 15.4062C35 17.8555 34.3984 20.1113 33.1953 22.1738C31.9922 24.1934 30.3809 25.8047 28.3613 27.0078C26.2988 28.2109 24.043 28.8125 21.5938 28.8125C19.875 28.8125 18.2422 28.5117 16.6953 27.9102C15.1055 27.2656 13.709 26.3848 12.5059 25.2676V25.9121C12.5059 26.127 12.4199 26.2988 12.248 26.4277L3.93359 34.7422C3.80469 34.9141 3.63281 35 3.41797 35C3.20312 35 3.00977 34.9141 2.83789 34.7422L2.19336 34.1621C2.06445 33.9902 2 33.7969 2 33.582C2 33.3672 2.06445 33.1953 2.19336 33.0664ZM21.5938 26.75C23.6562 26.75 25.5684 26.2559 27.3301 25.2676C29.0488 24.2363 30.4238 22.8613 31.4551 21.1426C32.4434 19.3809 32.9375 17.4688 32.9375 15.4062C32.9375 13.3438 32.4434 11.4531 31.4551 9.73438C30.4238 7.97266 29.0488 6.59766 27.3301 5.60938C25.5684 4.57812 23.6562 4.0625 21.5938 4.0625C19.5312 4.0625 17.6406 4.57812 15.9219 5.60938C14.1602 6.59766 12.7852 7.97266 11.7969 9.73438C10.7656 11.4531 10.25 13.3438 10.25 15.4062C10.25 17.4688 10.7656 19.3809 11.7969 21.1426C12.7852 22.8613 14.1602 24.2363 15.9219 25.2676C17.6406 26.2559 19.5312 26.75 21.5938 26.75Z" fill="url(#paint0_linear_355_723)"/>
<path d="M2.19336 33.0664L10.5078 24.752C10.6797 24.5801 10.873 24.4941 11.0879 24.4941H11.7324C10.6152 23.291 9.75586 21.916 9.1543 20.3691C8.50977 18.7793 8.1875 17.125 8.1875 15.4062C8.1875 12.957 8.78906 10.7227 9.99219 8.70312C11.1953 6.64062 12.8281 5.00781 14.8906 3.80469C16.9102 2.60156 19.1445 2 21.5938 2C24.043 2 26.2988 2.60156 28.3613 3.80469C30.3809 5.00781 31.9922 6.64062 33.1953 8.70312C34.3984 10.7227 35 12.957 35 15.4062C35 17.8555 34.3984 20.1113 33.1953 22.1738C31.9922 24.1934 30.3809 25.8047 28.3613 27.0078C26.2988 28.2109 24.043 28.8125 21.5938 28.8125C19.875 28.8125 18.2422 28.5117 16.6953 27.9102C15.1055 27.2656 13.709 26.3848 12.5059 25.2676V25.9121C12.5059 26.127 12.4199 26.2988 12.248 26.4277L3.93359 34.7422C3.80469 34.9141 3.63281 35 3.41797 35C3.20312 35 3.00977 34.9141 2.83789 34.7422L2.19336 34.1621C2.06445 33.9902 2 33.7969 2 33.582C2 33.3672 2.06445 33.1953 2.19336 33.0664ZM21.5938 26.75C23.6562 26.75 25.5684 26.2559 27.3301 25.2676C29.0488 24.2363 30.4238 22.8613 31.4551 21.1426C32.4434 19.3809 32.9375 17.4688 32.9375 15.4062C32.9375 13.3438 32.4434 11.4531 31.4551 9.73438C30.4238 7.97266 29.0488 6.59766 27.3301 5.60938C25.5684 4.57812 23.6562 4.0625 21.5938 4.0625C19.5312 4.0625 17.6406 4.57812 15.9219 5.60938C14.1602 6.59766 12.7852 7.97266 11.7969 9.73438C10.7656 11.4531 10.25 13.3438 10.25 15.4062C10.25 17.4688 10.7656 19.3809 11.7969 21.1426C12.7852 22.8613 14.1602 24.2363 15.9219 25.2676C17.6406 26.2559 19.5312 26.75 21.5938 26.75Z" stroke="url(#paint1_linear_355_723)" stroke-width="4"/>
</g>
<defs>
<linearGradient id="paint0_linear_355_723" x1="0.166672" y1="33.4032" x2="39.1561" y2="5.27747" gradientUnits="userSpaceOnUse">
<stop stop-color="#1A68FB"/>
<stop offset="1" stop-color="#3AC1EA"/>
</linearGradient>
<linearGradient id="paint1_linear_355_723" x1="0.166672" y1="33.4032" x2="39.1561" y2="5.27747" gradientUnits="userSpaceOnUse">
<stop stop-color="#1A68FB"/>
<stop offset="1" stop-color="#3AC1EA"/>
</linearGradient>
</defs>
</svg>
