<svg width="28" height="30" viewBox="0 0 28 30" fill="none" xmlns="http://www.w3.org/2000/svg">
<path d="M10.3075 0.0531216C9.84984 0.129404 9.26305 0.369987 8.82296 0.663383C8.29485 1.01546 7.66111 1.69614 7.39706 2.20664C7.20342 2.57045 7.16234 2.6174 6.93349 2.68194C6.13546 2.91666 5.26114 3.67362 4.87386 4.45405C4.62154 4.97043 4.48071 5.54548 4.48071 6.0912V6.47261L4.19905 6.63105C3.3306 7.12395 2.5795 8.15084 2.27437 9.26574C2.11594 9.84666 2.12768 10.8735 2.29784 11.4193L2.43281 11.8476L2.05139 12.2525C1.40005 12.9449 0.959961 14.0422 0.959961 14.9693C0.959961 15.697 1.21815 16.6652 1.57609 17.2754L1.72279 17.5278L1.54675 17.8153C1.14187 18.4725 0.913018 19.47 0.983433 20.2387C1.05385 21.0133 1.44113 21.9404 1.93403 22.5096L2.15115 22.7619L2.16288 23.4778C2.17462 24.0353 2.20396 24.2876 2.30958 24.6045C2.71447 25.8661 3.48903 26.7756 4.61567 27.3096C5.05576 27.5149 5.70123 27.6851 6.07678 27.6851C6.27042 27.6851 6.31736 27.7144 6.48166 27.9609C7.07432 28.847 8.10708 29.5804 9.16917 29.868C9.82051 30.044 10.8591 30.044 11.4811 29.868C12.6195 29.5452 13.6699 28.7648 14.239 27.8201C14.3447 27.6499 14.4385 27.5149 14.4562 27.5149C14.4738 27.5149 14.5676 27.6499 14.6733 27.8201C15.2425 28.7648 16.2928 29.5452 17.4312 29.868C18.0532 30.044 19.0918 30.044 19.7431 29.868C20.8052 29.5804 21.838 28.847 22.4306 27.9609C22.5949 27.7144 22.6419 27.6851 22.8355 27.6851C23.2404 27.6851 23.8741 27.5091 24.3612 27.2744C25.4409 26.7404 26.2154 25.8132 26.6027 24.6045C26.7084 24.2817 26.7377 24.0353 26.7494 23.4837L26.7553 22.7678L26.9783 22.5155C27.2834 22.1575 27.5885 21.6001 27.7646 21.0661C27.8878 20.6906 27.9171 20.5028 27.9171 19.9395C27.9171 19.1297 27.8174 18.7072 27.4594 17.9972L27.2071 17.4925L27.3421 17.2637C27.6824 16.7062 27.9465 15.7204 27.9523 14.9928C27.9582 14.054 27.5181 12.9508 26.8609 12.2525L26.4795 11.8476L26.6145 11.4193C26.7846 10.8735 26.7964 9.84666 26.6379 9.26574C26.3328 8.15084 25.5817 7.12395 24.7133 6.63105L24.4316 6.47261V6.0912C24.4316 5.54548 24.2908 4.97043 24.0385 4.45405C23.6512 3.67949 22.7651 2.91666 21.9788 2.68194C21.75 2.6174 21.7089 2.57045 21.5152 2.20664C20.8874 1.01546 19.5202 0.105932 18.2116 0.0120449C16.8151 -0.0877094 15.4889 0.610573 14.5618 1.92498L14.4562 2.07168L14.3564 1.92498C13.3354 0.487347 11.8449 -0.205067 10.3075 0.0531216ZM11.5281 1.24431C12.3437 1.43208 13.1828 2.13623 13.5408 2.9284C13.8576 3.61494 13.8694 3.7499 13.8694 6.39633C13.8694 7.74595 13.8576 8.84912 13.8459 8.84912C13.8342 8.84912 13.6992 8.79044 13.5408 8.72002C13.3413 8.63201 13.13 8.59093 12.8542 8.59093C12.4728 8.58506 12.4435 8.5968 12.2792 8.7787C11.9212 9.17772 12.1559 9.62368 12.7838 9.73517C13.2004 9.80559 13.4586 9.96402 13.6816 10.2809L13.84 10.5097L13.8576 16.2896L13.8694 22.0695L13.4938 21.7174C12.8366 21.1013 12.1325 20.7492 11.1701 20.5497C10.5012 20.4148 10.1374 20.4558 9.92613 20.6964C9.71488 20.937 9.70901 21.1717 9.92613 21.4123C10.067 21.5707 10.1374 21.5942 10.554 21.647C11.5691 21.7703 12.2792 22.1047 12.9012 22.7678C14.0865 24.0235 14.1804 25.9013 13.1359 27.3624C12.6782 28.0078 12.1031 28.4362 11.3462 28.6944C10.7946 28.888 9.89679 28.8822 9.29826 28.6885C8.45328 28.4127 7.7726 27.8494 7.28557 27.022C7.15061 26.8049 6.99217 26.5937 6.92763 26.5643C6.86895 26.5291 6.54621 26.4939 6.21761 26.4881C5.57214 26.4705 5.31982 26.4 4.79757 26.0656C3.77069 25.4201 3.1663 24.1174 3.35407 22.9673C3.39514 22.7326 3.40688 22.492 3.38928 22.4275C3.3658 22.3688 3.18977 22.1458 3.00199 21.9404C2.38586 21.2656 2.0866 20.4734 2.15115 19.6754C2.18049 19.2705 2.35066 18.7189 2.50909 18.5018C2.58537 18.3962 2.60298 18.4021 2.94331 18.6309C3.55358 19.0358 4.35161 19.294 5.03229 19.294C5.20833 19.294 5.29635 19.2529 5.45478 19.0945C5.7247 18.8246 5.7247 18.5898 5.46652 18.3317C5.30221 18.1674 5.22006 18.1322 4.89146 18.1028C3.60052 17.9855 2.5443 17.0231 2.22156 15.6676C1.95751 14.5703 2.38 13.4026 3.30713 12.6809C3.85284 12.2584 3.86458 12.1645 3.5125 11.3195C3.04307 10.1929 3.43622 8.7787 4.46897 7.89265C5.71884 6.83056 7.37359 7.03593 8.48262 8.38555C8.85817 8.84325 9.17504 9.68823 9.17504 10.2398C9.17504 10.5625 9.40388 10.8325 9.70901 10.8794C9.89092 10.9088 9.95547 10.8853 10.1198 10.7386C10.3193 10.5625 10.3193 10.5567 10.3134 10.0696C10.3075 9.24814 9.96134 8.34448 9.38041 7.60512C8.59411 6.60171 7.27383 5.97384 6.10025 6.05013L5.64255 6.07946L5.67776 5.78607C5.93008 3.90247 8.04253 3.05749 9.51537 4.25455C9.92026 4.58315 10.2254 4.61249 10.4894 4.34843C10.6009 4.23694 10.642 4.13719 10.642 3.96115C10.642 3.7499 10.6068 3.68536 10.3251 3.41543C9.99067 3.0927 9.35694 2.74649 8.8699 2.62327C8.71147 2.58806 8.58824 2.52938 8.58824 2.50004C8.58824 2.38855 9.38628 1.65506 9.67968 1.50249C10.2782 1.17976 10.9002 1.09174 11.5281 1.24431ZM18.593 1.25017C18.7808 1.30299 19.0683 1.41448 19.2326 1.50249C19.526 1.65506 20.3241 2.38855 20.3241 2.50004C20.3241 2.52938 20.2008 2.58806 20.0483 2.62327C19.5554 2.74649 18.9216 3.0927 18.5872 3.41543C18.3055 3.68536 18.2703 3.7499 18.2703 3.96115C18.2703 4.13719 18.3114 4.23694 18.4229 4.34843C18.6869 4.61249 18.992 4.58315 19.3969 4.25455C19.7549 3.96702 20.0717 3.82032 20.5236 3.73817C21.7324 3.51519 22.9353 4.33083 23.1935 5.55135C23.3108 6.10294 23.3226 6.08533 22.8062 6.05013C20.729 5.91516 18.7573 7.75769 18.5872 9.98749C18.5461 10.4628 18.552 10.4745 18.7163 10.6623C18.9627 10.9322 19.2502 10.9674 19.4967 10.7503C19.661 10.5978 19.6903 10.5273 19.7431 10.1401C19.8898 8.93714 20.459 8.06282 21.4448 7.53471C22.4189 7.00659 23.5573 7.14156 24.4257 7.88091C25.4761 8.7787 25.8751 10.187 25.3998 11.3195C25.0477 12.1645 25.0595 12.2584 25.6052 12.6809C26.5323 13.4026 26.9548 14.5703 26.6907 15.6676C26.4912 16.5067 25.9807 17.2344 25.2883 17.6803C24.9069 17.9209 24.5724 18.0383 24.015 18.1145C23.6453 18.1615 23.5573 18.1967 23.4223 18.3551C23.2169 18.584 23.2111 18.8187 23.4106 19.0534C23.5984 19.2823 23.8448 19.3233 24.4023 19.2412C24.9362 19.1649 25.5054 18.9419 25.969 18.6309C26.3797 18.3551 26.3915 18.361 26.6086 18.9361C26.9841 19.9336 26.7142 21.0602 25.8868 21.9639C25.482 22.404 25.4878 22.3747 25.5758 23.2255C25.6756 24.2348 25.1768 25.2851 24.279 25.9482C23.7392 26.3531 23.393 26.4705 22.6947 26.4881C22.3661 26.4939 22.0434 26.5291 21.9847 26.5643C21.9201 26.5937 21.7617 26.8049 21.6267 27.022C21.1397 27.8494 20.459 28.4127 19.614 28.6885C19.0155 28.8822 18.1177 28.888 17.5661 28.6944C16.3221 28.266 15.4361 27.2626 15.1368 25.9423C14.7085 24.047 15.9349 22.1282 17.8302 21.7292C18.0591 21.6822 18.3524 21.6412 18.4874 21.6412C18.8512 21.6412 19.1211 21.3947 19.1211 21.0544C19.1211 20.849 19.0859 20.7786 18.9275 20.6377C18.6987 20.4324 18.3994 20.4148 17.7011 20.5615C16.7681 20.7492 16.064 21.1072 15.4185 21.7174L15.0429 22.0695L15.0547 16.2896L15.0723 10.5156L15.219 10.2985C15.4361 9.98162 15.7354 9.78798 16.0992 9.74691C16.5334 9.6941 16.774 9.48285 16.774 9.14251C16.774 8.93714 16.7388 8.86672 16.5745 8.72002C16.3808 8.54985 16.3574 8.54399 15.9994 8.57333C15.794 8.5968 15.5065 8.66134 15.3539 8.73176C15.2072 8.79631 15.0782 8.84912 15.0664 8.84912C15.0547 8.84912 15.0429 7.74595 15.0429 6.39633C15.0429 4.3719 15.0605 3.88487 15.131 3.59734C15.3774 2.65847 15.8762 1.98953 16.6801 1.53183C17.308 1.17389 17.9358 1.08001 18.593 1.25017Z" fill="#4EA2FF"/>
<path d="M11.3108 4.91762C11.1231 4.99391 10.9353 5.26383 10.9353 5.4516C10.9353 5.68632 11.2052 5.96798 11.4693 6.00906C11.6512 6.03839 11.7157 6.01492 11.88 5.86823C12.0443 5.72153 12.0795 5.65111 12.0795 5.44574C12.0795 5.24036 12.0443 5.16994 11.8859 5.02911C11.6923 4.85894 11.5338 4.82374 11.3108 4.91762Z" fill="#4EA2FF"/>
<path d="M6.03568 9.78213C5.97113 9.81147 5.87138 9.88775 5.80683 9.9523C5.53691 10.2574 5.666 11.255 6.10023 12.1352C6.599 13.1444 7.62588 13.9953 8.6645 14.2652C8.85814 14.318 9.02245 14.3708 9.04005 14.3884C9.09873 14.4413 8.98724 14.6642 8.76426 14.9459C8.49433 15.2921 8.07771 15.5092 7.532 15.5914C7.0567 15.6676 6.85719 15.8378 6.85719 16.1782C6.85719 16.4657 7.05083 16.6945 7.33249 16.7473C7.60241 16.7943 8.31243 16.6417 8.73492 16.4422C9.38626 16.1312 10.0024 15.386 10.2312 14.6232C10.3017 14.3884 10.3075 14.3826 10.7241 14.2887C11.2464 14.1655 11.9916 13.8016 12.3554 13.4848C12.7662 13.1327 12.7955 12.763 12.4376 12.4755C12.2146 12.2936 11.9681 12.3405 11.4928 12.6691C10.9647 13.0271 10.5188 13.1914 9.96718 13.2325C8.3359 13.3498 6.82785 11.9709 6.82785 10.3689C6.82785 10.1753 6.78677 10.0873 6.62834 9.92883C6.42883 9.72932 6.2704 9.68824 6.03568 9.78213Z" fill="#4EA2FF"/>
<path d="M10.3487 18.1615C8.86995 18.3199 7.3971 19.2118 6.55799 20.4617C6.35262 20.7668 6.2998 20.8959 6.2998 21.1013C6.2998 21.4299 6.50518 21.6411 6.82205 21.6411C7.09784 21.6411 7.24454 21.5355 7.5262 21.1248C7.90761 20.5556 8.51787 20.0333 9.12814 19.7399C9.74427 19.4465 10.0377 19.3703 10.6831 19.3116C11.0587 19.2822 11.1584 19.247 11.311 19.1121C11.4577 18.983 11.4929 18.9067 11.4929 18.7072C11.4929 18.5018 11.4577 18.4314 11.2993 18.2906C11.1056 18.1145 10.9589 18.0969 10.3487 18.1615Z" fill="#4EA2FF"/>
<path d="M6.03564 22.8676C5.50166 23.0905 5.60142 23.871 6.17647 23.959C6.95104 24.0822 7.13881 24.135 7.48502 24.3287C8.33 24.804 8.83464 25.467 9.08696 26.4235C9.1339 26.6113 9.17498 26.8812 9.17498 27.022C9.17498 27.3448 9.40382 27.6147 9.70896 27.6616C9.89086 27.691 9.95541 27.6675 10.1197 27.5208C10.3192 27.3448 10.3192 27.3389 10.3134 26.8519C10.3016 25.7428 9.69722 24.534 8.77009 23.7595C7.97792 23.1023 6.58136 22.6504 6.03564 22.8676Z" fill="#4EA2FF"/>
<path d="M17.179 4.91762C16.9912 4.99391 16.8035 5.26383 16.8035 5.4516C16.8035 5.68632 17.0734 5.96798 17.3374 6.00906C17.5194 6.03839 17.5839 6.01492 17.7482 5.86823C17.9125 5.72153 17.9477 5.65111 17.9477 5.44574C17.9477 5.24036 17.9125 5.16994 17.7541 5.02911C17.5604 4.85894 17.402 4.82374 17.179 4.91762Z" fill="#4EA2FF"/>
<path d="M22.46 9.78798C22.2429 9.876 22.0845 10.1342 22.0845 10.3982C22.0845 11.0378 21.7148 11.8711 21.1984 12.3816C20.8053 12.7806 20.1892 13.0975 19.6258 13.2031C18.9041 13.3381 18.018 13.1034 17.2904 12.587C16.9559 12.3464 16.6802 12.3053 16.4748 12.4755C16.1168 12.763 16.1462 13.1327 16.5569 13.4848C16.9207 13.8016 17.666 14.1654 18.1999 14.2887C18.6224 14.3884 18.6224 14.3943 18.687 14.6231C18.9628 15.6442 19.843 16.4598 20.9109 16.6886C21.486 16.8119 21.6444 16.7943 21.8615 16.6006C22.02 16.4598 22.0552 16.3894 22.0552 16.1899C22.0552 15.8319 21.8498 15.65 21.3686 15.5855C20.8464 15.5151 20.4239 15.2921 20.1481 14.9459C19.9251 14.6642 19.8136 14.4412 19.8723 14.3884C19.8899 14.3708 20.0542 14.318 20.2478 14.2652C21.2865 13.9953 22.3133 13.1444 22.8121 12.1351C23.1114 11.519 23.2933 10.7679 23.2405 10.322C23.1935 9.88187 22.8297 9.63542 22.46 9.78798Z" fill="#4EA2FF"/>
<path d="M17.7657 18.1732C17.5779 18.2554 17.3901 18.5253 17.3901 18.7131C17.3901 18.8128 17.4547 18.9536 17.5544 19.0593C17.7011 19.2236 17.7657 19.247 18.329 19.3233C18.6693 19.3644 19.0801 19.4465 19.2385 19.4994C20.0659 19.781 20.905 20.4148 21.3862 21.1248C21.6678 21.5355 21.8145 21.6411 22.0903 21.6411C22.4072 21.6411 22.6126 21.4299 22.6126 21.1013C22.6126 20.8959 22.5598 20.7668 22.3485 20.4558C21.6502 19.4113 20.4884 18.5957 19.2796 18.2964C18.7398 18.1673 17.9359 18.1028 17.7657 18.1732Z" fill="#4EA2FF"/>
<path d="M21.8496 22.9086C21.345 23.0143 20.5821 23.3957 20.142 23.7595C19.2501 24.5047 18.6751 25.6196 18.587 26.7697C18.546 27.245 18.5518 27.2568 18.7161 27.4445C18.9626 27.7145 19.2501 27.7497 19.4966 27.5326C19.6609 27.38 19.6902 27.3096 19.743 26.9223C19.8545 26.001 20.1948 25.3204 20.8227 24.7394C21.2569 24.3287 22.0784 23.9942 22.6242 23.9883C22.9586 23.9883 23.2286 23.7243 23.2286 23.4015C23.2286 23.1962 23.1933 23.1258 23.0349 22.9849C22.8765 22.8382 22.8002 22.8148 22.5361 22.8206C22.3718 22.8206 22.0608 22.8617 21.8496 22.9086Z" fill="#4EA2FF"/>
</svg>
