<svg width="22" height="21" viewBox="0 0 22 21" fill="none" xmlns="http://www.w3.org/2000/svg">
<path fill-rule="evenodd" clip-rule="evenodd" d="M0.168136 19.681C-0.229997 20.2005 0.12174 20.9546 0.774314 20.9805C3.47453 21.0876 5.53402 20.7556 6.95969 19.9442C8.37202 20.6349 9.92905 21 11.5372 21C17.3156 21 22 16.299 22 10.5C22 4.701 17.3156 0 11.5372 0C5.75875 0 1.0744 4.701 1.0744 10.5C1.0744 12.3111 1.53264 14.0565 2.39094 15.6026C2.08854 16.7736 1.35087 18.1376 0.168136 19.681ZM7.30565 18.3061C7.03704 18.1591 6.70862 18.1777 6.45816 18.354C5.59524 18.9614 4.22877 19.3106 2.36346 19.374C3.24398 18.0281 3.80305 16.7841 4.03514 15.6344C4.075 15.437 4.03991 15.2317 3.93675 15.0589C3.12104 13.6926 2.68406 12.1294 2.68406 10.5C2.68406 5.59315 6.64774 1.61538 11.5372 1.61538C16.4267 1.61538 20.3903 5.59315 20.3903 10.5C20.3903 15.4068 16.4267 19.3846 11.5372 19.3846C10.0371 19.3846 8.59276 19.0104 7.30565 18.3061ZM7.24477 13.4615H14.7565C15.201 13.4615 15.5614 13.0999 15.5614 12.6538C15.5614 12.2077 15.201 11.8461 14.7565 11.8461H7.24477C6.80027 11.8461 6.43994 12.2077 6.43994 12.6538C6.43994 13.0999 6.80027 13.4615 7.24477 13.4615ZM12.6103 9.15383H7.24477C6.80027 9.15383 6.43994 8.79221 6.43994 8.34614C6.43994 7.90006 6.80027 7.53845 7.24477 7.53845H12.6103C13.0548 7.53845 13.4151 7.90006 13.4151 8.34614C13.4151 8.79221 13.0548 9.15383 12.6103 9.15383Z" fill="#808080"/>
</svg>
