<svg width="22" height="25" viewBox="0 0 22 25" fill="none" xmlns="http://www.w3.org/2000/svg">
<path fill-rule="evenodd" clip-rule="evenodd" d="M0.84287 11.6511C0.407948 11.2187 0.407948 10.5187 0.84287 10.0863L8.70706 2.26763C11.7482 -0.755875 16.678 -0.755875 19.7192 2.26763C22.7603 5.29002 22.7603 10.1913 19.7192 13.2148L9.4946 23.3801C7.32221 25.5399 3.80056 25.5399 1.62929 23.3801C-0.543097 21.2215 -0.543097 17.7202 1.62929 15.5604L10.281 6.95881C11.5836 5.6627 13.697 5.6627 15.0006 6.95881C16.3032 8.25491 16.3032 10.355 15.0006 11.6511L8.70706 17.9071C8.27325 18.3384 7.56915 18.3384 7.13423 17.9071C6.70042 17.4747 6.70042 16.7747 7.13423 16.3434L13.4267 10.0863C13.8616 9.65496 13.8616 8.95494 13.4267 8.52253C12.9929 8.09124 12.2888 8.09124 11.8539 8.52253L3.20213 17.1252C1.89847 18.4202 1.89847 20.5214 3.20213 21.8164C4.50578 23.1125 6.6181 23.1125 7.92065 21.8164L18.1463 11.6511C20.3176 9.49129 20.3176 5.99005 18.1463 3.83135C15.9739 1.67155 12.4534 1.67155 10.281 3.83135L2.41571 11.6511C1.98079 12.0824 1.27668 12.0824 0.84287 11.6511Z" fill="#8812D1"/>
</svg>
