<svg width="25" height="25" viewBox="0 0 25 25" fill="none" xmlns="http://www.w3.org/2000/svg">
<path fill-rule="evenodd" clip-rule="evenodd" d="M12.5 25C19.4036 25 25 19.4036 25 12.5C25 5.59644 19.4036 0 12.5 0C5.59644 0 0 5.59644 0 12.5C0 19.4036 5.59644 25 12.5 25ZM12.5 23.0769C6.65853 23.0769 1.92308 18.3415 1.92308 12.5C1.92308 6.65853 6.65853 1.92308 12.5 1.92308C18.3415 1.92308 23.0769 6.65853 23.0769 12.5C23.0769 18.3415 18.3415 23.0769 12.5 23.0769ZM12.5 6.15469C13.031 6.15469 13.4615 6.58519 13.4615 7.11623V13.3837L16.5843 16.5065C16.9598 16.882 16.9598 17.4908 16.5843 17.8663C16.2088 18.2418 15.6 18.2418 15.2245 17.8663L11.8201 14.4619C11.6398 14.2816 11.5385 14.037 11.5385 13.782V7.11623C11.5385 6.58519 11.969 6.15469 12.5 6.15469Z" fill="#B67DD8"/>
</svg>
