<svg width="22" height="22" viewBox="0 0 22 22" fill="none" xmlns="http://www.w3.org/2000/svg">
<path d="M21.2841 0.715955C22.2386 1.67059 22.2386 3.21832 21.2841 4.17295L14.457 11L21.2841 17.8271C22.2386 18.7817 22.2386 20.3295 21.2841 21.2841C20.3293 22.2386 18.7817 22.2386 17.8269 21.2841L11.0001 14.457L4.17304 21.2841C3.21825 22.2386 1.67067 22.2386 0.715877 21.2841C-0.238626 20.3295 -0.238626 18.7817 0.715877 17.8271L7.54294 11L0.715877 4.17295C-0.238626 3.21832 -0.238626 1.67059 0.715877 0.715955C1.67067 -0.238652 3.21825 -0.238652 4.17304 0.715955L11.0001 7.54309L17.8269 0.715955C18.7817 -0.238652 20.3293 -0.238652 21.2841 0.715955Z" fill="#910000"/>
</svg>
