<svg width="194" height="194" viewBox="0 0 194 194" fill="none" xmlns="http://www.w3.org/2000/svg">
<g filter="url(#filter0_d_184_1900)">
<circle cx="95.6042" cy="77.4606" r="48.1511" fill="white"/>
</g>
<g filter="url(#filter1_i_184_1900)">
<circle cx="97" cy="97" r="97" fill="white"/>
</g>
<g filter="url(#filter2_i_184_1900)">
<path d="M140.648 68.9046C142.451 67.0964 142.451 64.1645 140.648 62.3562C138.846 60.5479 135.923 60.5479 134.121 62.3562L103.352 93.2258C101.549 95.0341 101.549 97.9659 103.352 99.7742L134.121 130.644C135.923 132.452 138.846 132.452 140.648 130.644C142.451 128.835 142.451 125.904 140.648 124.095L113.143 96.5L140.648 68.9046Z" fill="url(#paint0_linear_184_1900)"/>
</g>
<path d="M140.648 68.9046C142.451 67.0964 142.451 64.1645 140.648 62.3562C138.846 60.5479 135.923 60.5479 134.121 62.3562L103.352 93.2258C101.549 95.0341 101.549 97.9659 103.352 99.7742L134.121 130.644C135.923 132.452 138.846 132.452 140.648 130.644C142.451 128.835 142.451 125.904 140.648 124.095L113.143 96.5L140.648 68.9046Z" stroke="url(#paint1_linear_184_1900)" stroke-width="4"/>
<g filter="url(#filter3_i_184_1900)">
<path d="M51.3518 124.095C49.5494 125.904 49.5494 128.835 51.3518 130.644C53.1542 132.452 56.0765 132.452 57.879 130.644L88.6482 99.7742C90.4506 97.9659 90.4506 95.0341 88.6482 93.2258L57.879 62.3562C56.0765 60.5479 53.1542 60.5479 51.3518 62.3562C49.5494 64.1645 49.5494 67.0963 51.3518 68.9046L78.8575 96.5L51.3518 124.095Z" fill="url(#paint2_linear_184_1900)"/>
</g>
<path d="M51.3518 124.095C49.5494 125.904 49.5494 128.835 51.3518 130.644C53.1542 132.452 56.0765 132.452 57.879 130.644L88.6482 99.7742C90.4506 97.9659 90.4506 95.0341 88.6482 93.2258L57.879 62.3562C56.0765 60.5479 53.1542 60.5479 51.3518 62.3562C49.5494 64.1645 49.5494 67.0963 51.3518 68.9046L78.8575 96.5L51.3518 124.095Z" stroke="url(#paint3_linear_184_1900)" stroke-width="4"/>
<defs>
<filter id="filter0_d_184_1900" x="31.4531" y="21.3096" width="128.302" height="128.302" filterUnits="userSpaceOnUse" color-interpolation-filters="sRGB">
<feFlood flood-opacity="0" result="BackgroundImageFix"/>
<feColorMatrix in="SourceAlpha" type="matrix" values="0 0 0 0 0 0 0 0 0 0 0 0 0 0 0 0 0 0 127 0" result="hardAlpha"/>
<feOffset dy="8"/>
<feGaussianBlur stdDeviation="8"/>
<feColorMatrix type="matrix" values="0 0 0 0 0 0 0 0 0 0 0 0 0 0 0 0 0 0 0.109812 0"/>
<feBlend mode="normal" in2="BackgroundImageFix" result="effect1_dropShadow_184_1900"/>
<feBlend mode="normal" in="SourceGraphic" in2="effect1_dropShadow_184_1900" result="shape"/>
</filter>
<filter id="filter1_i_184_1900" x="0" y="0" width="194" height="202" filterUnits="userSpaceOnUse" color-interpolation-filters="sRGB">
<feFlood flood-opacity="0" result="BackgroundImageFix"/>
<feBlend mode="normal" in="SourceGraphic" in2="BackgroundImageFix" result="shape"/>
<feColorMatrix in="SourceAlpha" type="matrix" values="0 0 0 0 0 0 0 0 0 0 0 0 0 0 0 0 0 0 127 0" result="hardAlpha"/>
<feOffset dy="8"/>
<feGaussianBlur stdDeviation="5"/>
<feComposite in2="hardAlpha" operator="arithmetic" k2="-1" k3="1"/>
<feColorMatrix type="matrix" values="0 0 0 0 0 0 0 0 0 0 0 0 0 0 0 0 0 0 0.487052 0"/>
<feBlend mode="normal" in2="shape" result="effect1_innerShadow_184_1900"/>
</filter>
<filter id="filter2_i_184_1900" x="100" y="59" width="44" height="79" filterUnits="userSpaceOnUse" color-interpolation-filters="sRGB">
<feFlood flood-opacity="0" result="BackgroundImageFix"/>
<feBlend mode="normal" in="SourceGraphic" in2="BackgroundImageFix" result="shape"/>
<feColorMatrix in="SourceAlpha" type="matrix" values="0 0 0 0 0 0 0 0 0 0 0 0 0 0 0 0 0 0 127 0" result="hardAlpha"/>
<feOffset dy="4"/>
<feGaussianBlur stdDeviation="2"/>
<feComposite in2="hardAlpha" operator="arithmetic" k2="-1" k3="1"/>
<feColorMatrix type="matrix" values="0 0 0 0 0 0 0 0 0 0 0 0 0 0 0 0 0 0 0.25 0"/>
<feBlend mode="normal" in2="shape" result="effect1_innerShadow_184_1900"/>
</filter>
<filter id="filter3_i_184_1900" x="48" y="59" width="44" height="79" filterUnits="userSpaceOnUse" color-interpolation-filters="sRGB">
<feFlood flood-opacity="0" result="BackgroundImageFix"/>
<feBlend mode="normal" in="SourceGraphic" in2="BackgroundImageFix" result="shape"/>
<feColorMatrix in="SourceAlpha" type="matrix" values="0 0 0 0 0 0 0 0 0 0 0 0 0 0 0 0 0 0 127 0" result="hardAlpha"/>
<feOffset dy="4"/>
<feGaussianBlur stdDeviation="2"/>
<feComposite in2="hardAlpha" operator="arithmetic" k2="-1" k3="1"/>
<feColorMatrix type="matrix" values="0 0 0 0 0 0 0 0 0 0 0 0 0 0 0 0 0 0 0.25 0"/>
<feBlend mode="normal" in2="shape" result="effect1_innerShadow_184_1900"/>
</filter>
<linearGradient id="paint0_linear_184_1900" x1="122" y1="18.1042" x2="64.3162" y2="158.61" gradientUnits="userSpaceOnUse">
<stop stop-color="#00F6FF"/>
<stop offset="1" stop-color="#5600FF"/>
</linearGradient>
<linearGradient id="paint1_linear_184_1900" x1="102" y1="10.7083" x2="34.8811" y2="157.524" gradientUnits="userSpaceOnUse">
<stop stop-color="#00F6FF"/>
<stop offset="1" stop-color="#5600FF"/>
</linearGradient>
<linearGradient id="paint2_linear_184_1900" x1="70" y1="174.896" x2="127.684" y2="34.3901" gradientUnits="userSpaceOnUse">
<stop stop-color="#00F6FF"/>
<stop offset="1" stop-color="#5600FF"/>
</linearGradient>
<linearGradient id="paint3_linear_184_1900" x1="90" y1="182.292" x2="157.119" y2="35.476" gradientUnits="userSpaceOnUse">
<stop stop-color="#00F6FF"/>
<stop offset="1" stop-color="#5600FF"/>
</linearGradient>
</defs>
</svg>
