<svg width="20" height="18" viewBox="0 0 20 18" fill="none" xmlns="http://www.w3.org/2000/svg">
<path d="M9.5222 0.0239754C9.37457 0.0456858 9.11839 0.106475 8.95773 0.167264C8.48444 0.332263 0.759881 4.6179 0.481987 4.8654C0.160673 5.15632 0.0304108 5.42987 0.00435828 5.86408C-0.00866797 6.15065 0.00435828 6.2592 0.0868578 6.47197C0.286594 7.0017 0.230147 6.96696 4.67644 9.42024C6.88222 10.6317 8.82313 11.6781 8.99681 11.7389C9.27905 11.8388 9.37457 11.8518 9.93904 11.8518C10.7119 11.8518 10.8379 11.8171 11.8192 11.283L12.5009 10.9139V10.3451V9.77629L10.9204 8.18709C10.0476 7.31433 9.31378 6.54578 9.29207 6.48065C9.2226 6.29828 9.23562 6.12026 9.33115 5.92921C9.48312 5.63395 9.79575 5.495 10.1258 5.58184C10.2864 5.62526 10.5165 5.84237 12.0146 7.3317C12.9524 8.26959 13.7557 9.09024 13.7948 9.16406C13.8339 9.24656 13.873 9.45498 13.886 9.71116L13.912 10.128L16.5607 8.66906C19.5046 7.04512 19.6002 6.97999 19.7869 6.48065C20.004 5.91184 19.8737 5.34303 19.4308 4.91316C19.192 4.67869 18.7708 4.43553 15.3232 2.52936C13.2086 1.36134 11.3632 0.349631 11.2156 0.2845C10.7163 0.0500278 10.0606 -0.04984 9.5222 0.0239754Z" fill="#02336A"/>
<path d="M2.7749 11.0529C2.7749 12.3208 2.78793 12.7289 2.84003 12.9808C3.06148 14.0489 3.78227 14.9564 4.78529 15.4167C5.46699 15.7293 5.2412 15.7163 9.06224 15.7293L12.5012 15.7467V16.4327C12.5012 17.071 12.5099 17.1275 12.601 17.2664C12.74 17.4792 13.057 17.6268 13.2871 17.5877C13.5172 17.5486 13.7864 17.3098 13.8472 17.0971C13.8689 17.0059 13.8906 16.6672 13.8906 16.3415V15.7467L14.0556 15.7206C14.7721 15.6034 15.3756 15.3429 15.8663 14.9304C16.3786 14.5005 16.7434 13.9447 16.9779 13.2456C17.0777 12.9504 17.0821 12.8896 17.0951 11.1918C17.1038 10.2322 17.0951 9.44631 17.0821 9.44631C17.069 9.44631 16.3439 9.84144 15.4755 10.3234L13.8906 11.2005V13.4714V15.7423H13.1959H12.5012V13.8752C12.5012 12.8418 12.4838 12.0081 12.4621 12.0081C12.4404 12.0081 12.2493 12.1037 12.0366 12.2252C11.268 12.6464 10.7253 12.7941 9.94802 12.7941C9.39658 12.7941 8.98408 12.7246 8.54119 12.5596C8.38921 12.4988 7.03883 11.778 5.54515 10.9487C4.04713 10.1237 2.81398 9.44631 2.79661 9.44631C2.78359 9.44631 2.7749 10.1714 2.7749 11.0529Z" fill="#02336A"/>
</svg>
