<svg width="21" height="19" viewBox="0 0 21 19" fill="none" xmlns="http://www.w3.org/2000/svg">
<path d="M10.9463 0.0251694C11.1021 0.0480919 11.3726 0.112274 11.5422 0.176456C12.042 0.350666 20.1977 4.87553 20.4911 5.13684C20.8304 5.444 20.9679 5.73282 20.9954 6.19126C21.0092 6.49384 20.9954 6.60845 20.9083 6.83309C20.7341 7.29612 20.4636 7.51159 19.1937 8.21301L18.0934 8.81816L18.0659 11.2387C18.0476 13.2697 18.0293 13.7006 17.9697 13.8932C17.6854 14.8009 17.1857 15.4977 16.4797 15.9837C16.223 16.1625 15.7004 16.4054 15.3428 16.5109C15.0906 16.5888 14.7697 16.5934 11.4322 16.6071L7.80133 16.6255V17.3498C7.80133 18.0237 7.79216 18.0833 7.69589 18.23C7.54919 18.4547 7.21452 18.6106 6.97155 18.5693C6.72857 18.528 6.44433 18.2759 6.38015 18.0513C6.35723 17.955 6.33431 17.5974 6.33431 17.2536V16.6255L6.1601 16.598C5.41283 16.4788 4.77559 16.2037 4.26213 15.7774C3.72575 15.3327 3.35899 14.7917 3.11143 14.0765L2.96473 13.6639L2.95098 11.2479L2.93722 8.83191L1.82778 8.22218C0.553305 7.52076 0.278238 7.3007 0.108612 6.84226C-0.120611 6.24169 0.0169239 5.64113 0.484537 5.18727C0.736683 4.93971 1.18138 4.68298 4.82144 2.6704C7.05407 1.43718 9.00246 0.369005 9.15833 0.300238C9.68554 0.0526772 10.3778 -0.0527649 10.9463 0.0251694ZM10.0019 1.53804C9.91477 1.56096 7.96179 2.61997 5.66956 3.88528C2.5613 5.60445 1.4977 6.21419 1.4977 6.27378C1.4977 6.33338 2.18537 6.73681 4.13377 7.81416L6.76983 9.2766L8.44316 7.61245C9.9056 6.15459 10.1394 5.93912 10.309 5.89327C10.6574 5.80159 10.9875 5.94829 11.148 6.26003C11.2488 6.46175 11.2626 6.64971 11.1938 6.84226C11.1663 6.91102 10.4603 7.65371 9.62595 8.48808L8.11308 10.0101L8.58527 10.2714C8.84659 10.4181 9.22251 10.6244 9.41965 10.7345C9.62136 10.8445 9.87351 10.9683 9.98353 11.0049C10.2494 11.0966 10.795 11.0875 11.0609 10.9912C11.1755 10.9499 13.1285 9.88634 15.4069 8.62561C18.4052 6.96604 19.5375 6.31963 19.5284 6.2692C19.5192 6.22794 18.9874 5.90703 18.3456 5.54944C12.7434 2.44576 11.1159 1.56096 10.905 1.51053C10.6574 1.44635 10.2769 1.46011 10.0019 1.53804ZM14.1141 11.0141C12.8626 11.7064 11.6844 12.3299 11.501 12.394C11.2076 12.4995 11.0976 12.5132 10.5291 12.5132C9.72222 12.5178 9.50217 12.4536 8.53026 11.9172C8.14517 11.7064 7.82425 11.5322 7.81509 11.5322C7.80592 11.5322 7.80133 12.3482 7.80133 13.343V15.1539H11.2168C13.5686 15.1539 14.7009 15.1401 14.8706 15.1034C15.6362 14.9384 16.2826 14.347 16.5118 13.5997C16.5943 13.3338 16.6035 13.1688 16.6035 11.4817V9.64794L16.498 9.70296C16.443 9.73046 15.3703 10.3219 14.1141 11.0141ZM4.49594 13.5952C4.72058 14.3333 5.33948 14.9155 6.08675 15.0897L6.33431 15.1447L6.32514 12.9212L6.31138 10.6978L5.37157 10.1752L4.43176 9.65253L4.418 11.4771C4.40883 13.178 4.41342 13.3155 4.49594 13.5952Z" fill="#6889AB"/>
</svg>
