<svg width="14" height="18" viewBox="0 0 14 18" fill="none" xmlns="http://www.w3.org/2000/svg">
<path fill-rule="evenodd" clip-rule="evenodd" d="M2.24973 1.49997C1.83573 1.49997 1.49973 1.83597 1.49973 2.24997V15.75C1.49973 16.164 1.83573 16.5 2.24973 16.5H11.2497C11.6637 16.5 11.9997 16.164 11.9997 15.75V6.74997H8.99973C7.75698 6.74997 6.74973 5.74272 6.74973 4.49997V1.49997H2.24973ZM8.24973 2.56049L10.9392 5.24999H8.99973C8.58573 5.24999 8.24973 4.91399 8.24973 4.49999V2.56049ZM0 2.25C0 1.00725 1.00725 0 2.25 0H7.5C7.69875 0 7.89 0.07875 8.03025 0.21975L13.2803 5.46975C13.4213 5.61 13.5 5.80125 13.5 6V15.75C13.5 16.9928 12.4928 18 11.25 18H2.25C1.00725 18 0 16.9928 0 15.75V2.25ZM3.75053 10.5C3.75053 10.086 4.08653 9.75002 4.50053 9.75002H6.75053C7.16453 9.75002 7.50053 10.086 7.50053 10.5C7.50053 10.914 7.16453 11.25 6.75053 11.25H4.50053C4.08653 11.25 3.75053 10.914 3.75053 10.5ZM3.75053 13.5C3.75053 13.086 4.08653 12.75 4.50053 12.75H9.00053C9.41453 12.75 9.75053 13.086 9.75053 13.5C9.75053 13.914 9.41453 14.25 9.00053 14.25H4.50053C4.08653 14.25 3.75053 13.914 3.75053 13.5Z" fill="url(#paint0_linear_685_1264)"/>
<defs>
<linearGradient id="paint0_linear_685_1264" x1="14.25" y1="17.129" x2="-4.50925" y2="6.97977" gradientUnits="userSpaceOnUse">
<stop stop-color="#1A68FB"/>
<stop offset="1" stop-color="#3AC1EA"/>
</linearGradient>
</defs>
</svg>
