<svg width="35" height="38" viewBox="0 0 35 38" fill="none" xmlns="http://www.w3.org/2000/svg">
<path fill-rule="evenodd" clip-rule="evenodd" d="M8.39983 3.16669C7.52583 3.16669 6.81649 3.87602 6.81649 4.75002V33.25C6.81649 34.124 7.52583 34.8334 8.39983 34.8334H27.3998C28.2738 34.8334 28.9832 34.124 28.9832 33.25V14.25H22.6498C20.0262 14.25 17.8998 12.1236 17.8998 9.50002V3.16669H8.39983ZM21.0665 5.40558L26.7443 11.0834H22.6498C21.7758 11.0834 21.0665 10.3741 21.0665 9.50008V5.40558ZM3.6499 4.75C3.6499 2.12642 5.77632 0 8.3999 0H19.4832C19.9028 0 20.3066 0.16625 20.6026 0.463917L31.686 11.5472C31.9836 11.8433 32.1499 12.2471 32.1499 12.6667V33.25C32.1499 35.8736 30.0235 38 27.3999 38H8.3999C5.77632 38 3.6499 35.8736 3.6499 33.25V4.75ZM11.5662 22.1669C11.5662 21.2929 12.2756 20.5836 13.1496 20.5836H17.8996C18.7736 20.5836 19.4829 21.2929 19.4829 22.1669C19.4829 23.0409 18.7736 23.7502 17.8996 23.7502H13.1496C12.2756 23.7502 11.5662 23.0409 11.5662 22.1669ZM11.5662 28.5003C11.5662 27.6263 12.2756 26.917 13.1496 26.917H22.6496C23.5236 26.917 24.2329 27.6263 24.2329 28.5003C24.2329 29.3743 23.5236 30.0836 22.6496 30.0836H13.1496C12.2756 30.0836 11.5662 29.3743 11.5662 28.5003Z" fill="white"/>
</svg>
