<svg width="41" height="54" viewBox="0 0 41 54" fill="none" xmlns="http://www.w3.org/2000/svg">
<path fill-rule="evenodd" clip-rule="evenodd" d="M6.94667 4.69824C5.71174 4.69824 4.70947 5.70051 4.70947 6.93544V47.205C4.70947 48.4399 5.71174 49.4422 6.94667 49.4422H33.793C35.028 49.4422 36.0302 48.4399 36.0302 47.205V20.3586H27.0814C23.3744 20.3586 20.3699 17.3541 20.3699 13.647V4.69824H6.94667ZM24.8443 7.86179L32.8669 15.8844H27.0815C25.8465 15.8844 24.8443 14.8821 24.8443 13.6472V7.86179ZM0.235352 6.93571C0.235352 3.22868 3.23991 0.224121 6.94694 0.224121H22.6073C23.2002 0.224121 23.7707 0.459027 24.189 0.87962L39.8494 16.54C40.27 16.9584 40.5049 17.5288 40.5049 18.1217V47.2053C40.5049 50.9123 37.5004 53.9169 33.7933 53.9169H6.94694C3.23991 53.9169 0.235352 50.9123 0.235352 47.2053V6.93571ZM11.4216 31.5449C11.4216 30.31 12.4239 29.3077 13.6588 29.3077H20.3704C21.6054 29.3077 22.6076 30.31 22.6076 31.5449C22.6076 32.7799 21.6054 33.7821 20.3704 33.7821H13.6588C12.4239 33.7821 11.4216 32.7799 11.4216 31.5449ZM11.4216 40.4937C11.4216 39.2588 12.4239 38.2565 13.6588 38.2565H27.082C28.317 38.2565 29.3192 39.2588 29.3192 40.4937C29.3192 41.7287 28.317 42.7309 27.082 42.7309H13.6588C12.4239 42.7309 11.4216 41.7287 11.4216 40.4937Z" fill="#4FC6EA" fill-opacity="0.26"/>
</svg>
