<svg width="108" height="108" viewBox="0 0 108 108" fill="none" xmlns="http://www.w3.org/2000/svg">
<g clip-path="url(#clip0_689_4725)">
<path fill-rule="evenodd" clip-rule="evenodd" d="M97.2 75.6H108V32.4H97.2V75.6ZM91.8 97.2H86.4V108H97.2C103.167 108 108 103.167 108 97.2V86.4H97.2V91.8C97.2 94.7808 94.7808 97.2 91.8 97.2ZM86.4 0V10.8H91.8C94.7808 10.8 97.2 13.2192 97.2 16.2V21.6H108V10.8C108 4.833 103.167 0 97.2 0H86.4ZM0 75.6H10.8V32.4H0V75.6ZM10.8 86.4H0V97.2C0 103.167 4.833 108 10.8 108H21.6V97.2H16.2C13.2192 97.2 10.8 94.7808 10.8 91.8V86.4ZM16.2 10.8H21.6V0H10.8C4.833 0 0 4.833 0 10.8V21.6H10.8V16.2C10.8 13.2192 13.2192 10.8 16.2 10.8ZM32.4 108H75.6V97.2H32.4V108ZM32.4 10.8H75.6V0H32.4V10.8ZM70.2 48.6H81C83.9808 48.6 86.4 46.1808 86.4 43.2V32.4C86.4 29.4192 83.9808 27 81 27H70.2C67.2192 27 64.8 29.4192 64.8 32.4V43.2C64.8 46.1808 67.2192 48.6 70.2 48.6ZM37.8 27H27C24.0192 27 21.6 29.4192 21.6 32.4V43.2C21.6 46.1808 24.0192 48.6 27 48.6H37.8C40.7808 48.6 43.2 46.1808 43.2 43.2V32.4C43.2 29.4192 40.7808 27 37.8 27ZM81.9018 81H71.1018C71.1018 59.4 38.7018 59.4 38.7018 81H27.9018C27.9018 48.6 81.9018 48.6 81.9018 81Z" fill="#BFBFBF"/>
</g>
<defs>
<clipPath id="clip0_689_4725">
<rect width="108" height="108" fill="white"/>
</clipPath>
</defs>
</svg>
