<svg width="81" height="81" viewBox="0 0 81 81" fill="none" xmlns="http://www.w3.org/2000/svg">
<g clip-path="url(#clip0_689_3314)">
<path fill-rule="evenodd" clip-rule="evenodd" d="M72.9 56.7H81V24.3H72.9V56.7ZM68.85 72.9H64.8V81H72.9C77.3753 81 81 77.3753 81 72.9V64.8H72.9V68.85C72.9 71.0856 71.0856 72.9 68.85 72.9ZM64.8 0V8.1H68.85C71.0856 8.1 72.9 9.9144 72.9 12.15V16.2H81V8.1C81 3.62475 77.3753 0 72.9 0H64.8ZM0 56.7H8.1V24.3H0V56.7ZM8.1 64.8H0V72.9C0 77.3753 3.62475 81 8.1 81H16.2V72.9H12.15C9.9144 72.9 8.1 71.0856 8.1 68.85V64.8ZM12.15 8.1H16.2V0H8.1C3.62475 0 0 3.62475 0 8.1V16.2H8.1V12.15C8.1 9.9144 9.9144 8.1 12.15 8.1ZM24.3 81H56.7V72.9H24.3V81ZM24.3 8.1H56.7V0H24.3V8.1ZM52.65 36.45H60.75C62.9856 36.45 64.8 34.6356 64.8 32.4V24.3C64.8 22.0644 62.9856 20.25 60.75 20.25H52.65C50.4144 20.25 48.6 22.0644 48.6 24.3V32.4C48.6 34.6356 50.4144 36.45 52.65 36.45ZM28.35 20.25H20.25C18.0144 20.25 16.2 22.0644 16.2 24.3V32.4C16.2 34.6356 18.0144 36.45 20.25 36.45H28.35C30.5856 36.45 32.4 34.6356 32.4 32.4V24.3C32.4 22.0644 30.5856 20.25 28.35 20.25ZM61.4264 60.75H20.9263C20.9263 36.45 61.4264 36.45 61.4264 60.75Z" fill="#BFBFBF"/>
</g>
<defs>
<clipPath id="clip0_689_3314">
<rect width="81" height="81" fill="white"/>
</clipPath>
</defs>
</svg>
