<svg width="17" height="22" viewBox="0 0 17 22" fill="none" xmlns="http://www.w3.org/2000/svg">
<path fill-rule="evenodd" clip-rule="evenodd" d="M2.77773 1.83329C2.26662 1.83329 1.85181 2.24396 1.85181 2.74996V19.25C1.85181 19.756 2.26662 20.1666 2.77773 20.1666H13.8888C14.4 20.1666 14.8148 19.756 14.8148 19.25V8.24996H11.1111C9.57681 8.24996 8.33329 7.01887 8.33329 5.49996V1.83329H2.77773ZM10.1851 3.1295L13.5055 6.41667H11.1111C10.6 6.41667 10.1851 6.006 10.1851 5.5V3.1295ZM0 2.75C0 1.23108 1.24352 0 2.77778 0H9.25926C9.50463 0 9.74074 0.09625 9.91389 0.268583L16.3954 6.68525C16.5694 6.85667 16.6667 7.09042 16.6667 7.33333V19.25C16.6667 20.7689 15.4231 22 13.8889 22H2.77778C1.24352 22 0 20.7689 0 19.25V2.75ZM4.62972 12.8333C4.62972 12.3273 5.04454 11.9167 5.55565 11.9167H8.33342C8.84454 11.9167 9.25935 12.3273 9.25935 12.8333C9.25935 13.3393 8.84454 13.75 8.33342 13.75H5.55565C5.04454 13.75 4.62972 13.3393 4.62972 12.8333ZM4.62972 16.5C4.62972 15.994 5.04454 15.5834 5.55565 15.5834H11.1112C11.6223 15.5834 12.0371 15.994 12.0371 16.5C12.0371 17.006 11.6223 17.4167 11.1112 17.4167H5.55565C5.04454 17.4167 4.62972 17.006 4.62972 16.5Z" fill="url(#paint0_linear_184_1288)"/>
<defs>
<linearGradient id="paint0_linear_184_1288" x1="17.5926" y1="20.9355" x2="-5.46099" y2="8.33689" gradientUnits="userSpaceOnUse">
<stop stop-color="#1A68FB"/>
<stop offset="1" stop-color="#3AC1EA"/>
</linearGradient>
</defs>
</svg>
