<svg width="22" height="22" viewBox="0 0 22 22" fill="none" xmlns="http://www.w3.org/2000/svg">
<g clip-path="url(#clip0_184_1912)">
<path fill-rule="evenodd" clip-rule="evenodd" d="M19.7747 17.7799C19.688 19.2001 18.5072 20.3148 17.0555 20.3148H15.0416C14.825 20.2726 14.6624 20.0765 14.6624 19.849V16.5893C14.5747 15.4518 13.6322 14.5623 12.4741 14.5623H9.41912C8.28162 14.6501 7.39328 15.5926 7.39328 16.7518V19.6757L7.38245 19.7309L7.3597 19.9259C7.32828 20.1534 7.12245 20.3148 6.88412 20.3148H4.77162C3.34053 20.2282 2.21387 19.0473 2.21387 17.6065V8.83152L2.22578 8.65818C2.27995 8.21402 2.50745 7.79152 2.88553 7.51093L9.4722 2.20152L9.63578 2.08235C10.5024 1.50927 11.6725 1.54068 12.4958 2.20152L19.1041 7.48818L19.2449 7.60843C19.5808 7.93235 19.7747 8.36677 19.7866 8.83152V17.6065L19.7747 17.7799ZM20.0346 6.29756L13.4382 1.02065L13.2637 0.890646C11.8457 -0.11577 9.91732 -0.072437 8.54148 1.02065L1.79232 6.44815C1.12065 7.04398 0.718734 7.89981 0.708984 8.82173V17.8231C0.828151 20.0559 2.68065 21.8315 4.94482 21.8315H6.88398L7.02482 21.8217C7.96732 21.7556 8.72565 21.0526 8.85457 20.1306L8.86648 20.0559L8.87732 20.0331C8.88707 19.979 8.89898 19.9031 8.89898 19.8392V16.7517L8.90982 16.6531C8.95315 16.3281 9.23482 16.079 9.5804 16.0681H12.474L12.5715 16.079C12.9062 16.1342 13.1565 16.4148 13.1565 16.7517V19.849L13.1673 20.0017C13.2432 21.0092 14.0762 21.8109 15.1065 21.8315H17.2623C19.5037 21.7123 21.2923 19.8706 21.2923 17.6065V8.82173L21.2815 8.60398C21.2057 7.69506 20.7604 6.85981 20.0346 6.29756Z" fill="#808080"/>
</g>
<defs>
<clipPath id="clip0_184_1912">
<rect width="20.5833" height="21.6645" fill="white" transform="translate(0.708984 0.166992)"/>
</clipPath>
</defs>
</svg>
