<?xml version="1.0" encoding="UTF-8"?>
<svg xmlns="http://www.w3.org/2000/svg" xmlns:xlink="http://www.w3.org/1999/xlink" width="25px" height="24px" viewBox="0 0 24 24" version="1.1">
<g id="surface1">
<path style=" stroke:none;fill-rule:evenodd;fill:rgb(9.019608%,37.647059%,69.019608%);fill-opacity:1;" d="M 0.320312 22.242188 C -0.101562 22.820312 0.273438 23.652344 0.964844 23.683594 C 3.84375 23.800781 6.035156 23.433594 7.554688 22.535156 C 9.058594 23.300781 10.71875 23.703125 12.429688 23.703125 C 18.585938 23.703125 23.574219 18.496094 23.574219 12.074219 C 23.574219 5.648438 18.585938 0.441406 12.429688 0.441406 C 6.277344 0.441406 1.285156 5.648438 1.285156 12.074219 C 1.285156 14.078125 1.773438 16.011719 2.6875 17.726562 C 2.367188 19.023438 1.582031 20.535156 0.320312 22.242188 Z M 7.921875 20.71875 C 7.636719 20.558594 7.289062 20.578125 7.019531 20.773438 C 6.101562 21.445312 4.644531 21.832031 2.660156 21.902344 C 3.597656 20.414062 4.191406 19.035156 4.441406 17.761719 C 4.480469 17.542969 4.445312 17.316406 4.335938 17.125 C 3.464844 15.609375 3 13.878906 3 12.074219 C 3 6.636719 7.222656 2.230469 12.429688 2.230469 C 17.636719 2.230469 21.859375 6.636719 21.859375 12.074219 C 21.859375 17.507812 17.636719 21.914062 12.429688 21.914062 C 10.832031 21.914062 9.292969 21.5 7.921875 20.71875 Z M 7.859375 15.355469 L 15.859375 15.355469 C 16.332031 15.355469 16.714844 14.953125 16.714844 14.460938 C 16.714844 13.964844 16.332031 13.566406 15.859375 13.566406 L 7.859375 13.566406 C 7.386719 13.566406 7 13.964844 7 14.460938 C 7 14.953125 7.386719 15.355469 7.859375 15.355469 Z M 13.574219 10.582031 L 7.859375 10.582031 C 7.386719 10.582031 7 10.183594 7 9.6875 C 7 9.195312 7.386719 8.792969 7.859375 8.792969 L 13.574219 8.792969 C 14.046875 8.792969 14.429688 9.195312 14.429688 9.6875 C 14.429688 10.183594 14.046875 10.582031 13.574219 10.582031 Z M 13.574219 10.582031 "/>
</g>
</svg>
