<svg width="26" height="24" viewBox="0 0 26 24" fill="none" xmlns="http://www.w3.org/2000/svg">
<path d="M17.0862 1.97143C18.7145 1.97143 20.0345 3.29539 20.0345 4.92857V16.7938H22V4.92857C22 2.2066 19.8 0 17.0862 0H3.98276C2.67241 0 2.67241 1.97143 3.98276 1.97143C5.18712 1.97143 5.62069 2.4063 5.62069 3.61429C5.62069 5.19381 5.62069 5.19381 5.62069 6.61894V10.8429C5.62069 14.1286 5.62069 14.1286 5.62069 18.0714C5.62069 20.7934 7.82067 23 10.5345 23H21.0172V21.0286H10.5345C8.90619 21.0286 7.58621 19.7046 7.58621 18.0714C7.58621 14.1286 7.58621 14.1286 7.58621 10.8429V3.61429C7.58621 2.99271 7.49 2.44286 7.30427 1.97143H17.0862Z" fill="#48C2E6"/>
<path fill-rule="evenodd" clip-rule="evenodd" d="M3.66667 0.083313C5.69171 0.083313 7.33333 1.72494 7.33333 3.74998V6.41665C7.33333 6.96893 6.88562 7.41665 6.33333 7.41665H1C0.447715 7.41665 0 6.96893 0 6.41665V3.74998C0 1.72494 1.64162 0.083313 3.66667 0.083313ZM5.33333 5.41664V3.74997C5.33333 2.82949 4.58714 2.0833 3.66667 2.0833C2.74619 2.0833 2 2.82949 2 3.74997V5.41664H5.33333ZM10.3333 23.4166H21C23.7614 23.4166 26 21.1781 26 18.4166V17.0833C26 16.531 25.5523 16.0833 25 16.0833H14.3333C13.781 16.0833 13.3333 16.531 13.3333 17.0833C13.3333 20.1353 12.3772 21.4137 10.3405 21.4166H10.3332C8.99985 21.4166 8.99985 23.4166 10.3332 23.4166L10.3333 23.4166ZM10.3333 23.4166V21.4166L10.3405 21.4166H14.3171C13.4861 22.7219 12.1512 23.4166 10.3333 23.4166ZM21 21.4166C22.6569 21.4166 24 20.0735 24 18.4166V18.0833H15.296C15.1906 19.4413 14.8624 20.5604 14.3172 21.4166H21Z" fill="#48C2E6"/>
</svg>
