<svg width="25" height="25" viewBox="0 0 25 25" fill="none" xmlns="http://www.w3.org/2000/svg">
<path fill-rule="evenodd" clip-rule="evenodd" d="M16.7774 0.990303C18.0978 -0.330101 20.2402 -0.330101 21.5606 0.990303L24.0097 3.43829C25.3301 4.75982 25.3301 6.90224 24.0097 8.22264L8.22349 24.0089C7.58866 24.6437 6.72831 25 5.83075 25H1.12759C0.505159 25 0 24.4948 0 23.8724V19.1681C0 18.2717 0.356317 17.4113 0.991148 16.7765L16.7774 0.990303ZM19.966 2.58469C19.5252 2.14493 18.8125 2.14493 18.3716 2.58469L16.2529 4.70342L20.2964 8.74695L22.4152 6.62821C22.8549 6.18733 22.8549 5.47469 22.4152 5.0338L19.966 2.58469ZM18.7022 10.3414L14.6587 6.29787L2.58563 18.3709C2.37365 18.5829 2.25525 18.8693 2.25525 19.1681V22.7449H5.83083C6.13076 22.7449 6.41717 22.6265 6.62916 22.4145L18.7022 10.3414Z" fill="#D084FF"/>
</svg>
