<svg width="25" height="25" viewBox="0 0 25 25" fill="none" xmlns="http://www.w3.org/2000/svg">
<path fill-rule="evenodd" clip-rule="evenodd" d="M12.2184 24.7184C18.9664 24.7184 24.4367 19.248 24.4367 12.5C24.4367 5.75199 18.9664 0.281647 12.2184 0.281647C5.47034 0.281647 0 5.75199 0 12.5C0 19.248 5.47034 24.7184 12.2184 24.7184ZM4.02299 18.8035C2.67896 17.0587 1.87966 14.8727 1.87966 12.4999C1.87966 6.79009 6.50842 2.16134 12.2183 2.16134C17.9281 2.16134 22.5569 6.79009 22.5569 12.4999C22.5569 14.8728 21.7575 17.0589 20.4134 18.8037C19.8001 18.2477 19.0163 17.8455 17.985 17.4743C17.8304 17.4187 17.672 17.364 17.4744 17.2975L16.9929 17.1363C15.822 16.7413 15.4078 16.4903 15.3114 16.1728C15.3081 16.1621 15.3029 16.1423 15.2956 16.1037C15.2539 15.8838 15.2634 15.6432 15.349 15.4436C15.3995 15.3258 15.4765 15.221 15.5919 15.1245C16.8904 13.9524 17.5449 12.6313 17.5449 10.8294C17.5449 7.69 15.0886 5.29431 12.219 5.29431C9.32963 5.29431 6.89304 7.64918 6.89304 10.8294C6.89304 12.626 7.53059 13.9085 8.78273 15.0876C8.94384 15.2235 9.02474 15.323 9.07977 15.4273C9.18627 15.6292 9.1999 15.8633 9.15324 16.0788C9.14991 16.0942 9.14713 16.1059 9.14539 16.1132C9.14328 16.1219 9.14268 16.1244 9.14442 16.1198C9.05166 16.4492 8.6675 16.6859 7.58488 17.0557L7.03027 17.243C6.79894 17.3215 6.61504 17.3859 6.43505 17.4523C5.42036 17.8268 4.63634 18.2405 4.02299 18.8035ZM5.30306 20.1856C7.13486 21.8348 9.55935 22.8386 12.2183 22.8386C14.8769 22.8386 17.3012 21.835 19.1329 20.186C18.7228 19.8227 18.1544 19.5331 17.3484 19.243C17.2081 19.1925 17.0613 19.1418 16.875 19.0791L16.392 18.9174C14.6433 18.3275 13.8562 17.8506 13.5174 16.7339C13.496 16.6675 13.4713 16.5729 13.4487 16.4538C13.3434 15.8979 13.3672 15.2956 13.6215 14.7027C13.7869 14.317 14.041 13.9709 14.3591 13.706C15.2548 12.8967 15.6652 12.0685 15.6652 10.8294C15.6652 8.73882 14.0608 7.17406 12.219 7.17406C10.3537 7.17406 8.77279 8.70195 8.77279 10.8294C8.77279 12.0673 9.1737 12.8738 10.0266 13.6796C10.3332 13.9335 10.5717 14.2268 10.7424 14.5503C11.0837 15.1975 11.1227 15.8658 10.9904 16.4765C10.9634 16.6016 10.9336 16.7011 10.9335 16.6901C10.6375 17.7892 9.87219 18.2608 8.19249 18.8346L7.63425 19.0231C7.4173 19.0967 7.24791 19.156 7.08593 19.2158C6.2887 19.51 5.71682 19.8106 5.30306 20.1856Z" fill="#225292"/>
</svg>
