<svg width="17" height="27" viewBox="0 0 17 27" fill="none" xmlns="http://www.w3.org/2000/svg">
<path d="M10.0543 1.72225L10.4328 2.04895L10.4328 2.04887L10.0543 1.72225ZM13.5856 3.66695L14.0703 3.78975L14.0703 3.78958L13.5856 3.66695ZM11.8076 10.6844L11.3229 10.5616L11.2165 10.9816L11.6171 11.1467L11.8076 10.6844ZM14.7511 11.8975L14.9416 11.4352L14.9416 11.4352L14.7511 11.8975ZM15.5263 15.2758L15.9048 15.6025L15.905 15.6023L15.5263 15.2758ZM6.99238 25.1626L6.61388 24.8359L6.61381 24.8359L6.99238 25.1626ZM3.46103 23.2179L2.97634 23.0951L2.9763 23.0952L3.46103 23.2179ZM5.23906 16.2004L5.72374 16.3232L5.83016 15.9032L5.42957 15.7381L5.23906 16.2004ZM2.29558 14.9874L2.48609 14.5251L2.48578 14.5249L2.29558 14.9874ZM1.52033 11.609L1.14183 11.2823L1.14165 11.2825L1.52033 11.609ZM10.4328 2.04887C10.979 1.41589 11.7325 1.37429 12.3223 1.6991C12.9149 2.02544 13.3124 2.70828 13.1009 3.54431L14.0703 3.78958C14.4045 2.46884 13.7549 1.34642 12.8047 0.823144C11.8517 0.298339 10.5668 0.362776 9.67568 1.39562L10.4328 2.04887ZM13.1009 3.54414L11.3229 10.5616L12.2923 10.8072L14.0703 3.78975L13.1009 3.54414ZM11.6171 11.1467L14.5605 12.3597L14.9416 11.4352L11.9981 10.2221L11.6171 11.1467ZM14.5605 12.3597C15.5611 12.7721 15.8786 14.1015 15.1476 14.9493L15.905 15.6023C17.0684 14.253 16.591 12.115 14.9416 11.4352L14.5605 12.3597ZM15.1478 14.9491L6.61388 24.8359L7.37088 25.4893L15.9048 15.6025L15.1478 14.9491ZM6.61381 24.8359C6.06768 25.4689 5.31411 25.5105 4.72431 25.1857C4.13171 24.8594 3.73424 24.1765 3.94575 23.3405L2.9763 23.0952C2.64215 24.416 3.29173 25.5384 4.24191 26.0617C5.19489 26.5865 6.47983 26.522 7.37095 25.4892L6.61381 24.8359ZM3.94571 23.3407L5.72374 16.3232L4.75437 16.0776L2.97634 23.0951L3.94571 23.3407ZM5.42957 15.7381L2.48609 14.5251L2.10506 15.4496L5.04854 16.6627L5.42957 15.7381ZM2.48578 14.5249C1.48581 14.1136 1.16785 12.7835 1.899 11.9355L1.14165 11.2825C-0.0215669 12.6316 0.45529 14.771 2.10537 15.4498L2.48578 14.5249ZM1.89883 11.9358L10.4328 2.04895L9.67575 1.39554L1.14183 11.2823L1.89883 11.9358ZM5.42599 24.4795L14.1067 14.6413L13.3569 13.9797L4.67615 23.8178L5.42599 24.4795ZM13.3569 13.9797L4.67615 23.8178L5.42599 24.4795L14.1067 14.6413L13.3569 13.9797Z" fill="#808080"/>
</svg>
