<svg width="33" height="53" viewBox="0 0 33 53" fill="none" xmlns="http://www.w3.org/2000/svg">
<path d="M19.8067 3.28548L20.5637 3.9389L20.5639 3.93873L19.8067 3.28548ZM26.8798 7.18059L27.8492 7.4262L27.8493 7.42586L26.8798 7.18059ZM23.3185 21.2361L22.3492 20.9905C22.227 21.4726 22.4777 21.9712 22.9375 22.1607L23.3185 21.2361ZM29.2141 23.6658L29.5952 22.7412L29.5952 22.7412L29.2141 23.6658ZM30.7669 30.4323L31.5239 31.0858L31.5243 31.0853L30.7669 30.4323ZM13.674 50.235L12.917 49.5816L12.9168 49.5817L13.674 50.235ZM6.60091 46.3399L5.63154 46.0942L5.63146 46.0946L6.60091 46.3399ZM10.1622 32.2843L11.1316 32.5299C11.2537 32.0478 11.003 31.5492 10.5432 31.3598L10.1622 32.2843ZM4.26659 29.8547L4.64762 28.9301L4.647 28.9298L4.26659 29.8547ZM2.71381 23.0881L1.95681 22.4347L1.95646 22.4351L2.71381 23.0881ZM9.03573 47.5426C8.67033 47.9567 8.70982 48.5886 9.12395 48.954C9.53807 49.3194 10.17 49.2799 10.5354 48.8658L9.03573 47.5426ZM27.9224 29.1606C28.2878 28.7464 28.2483 28.1145 27.8342 27.7491C27.4201 27.3837 26.7881 27.4232 26.4227 27.8373L27.9224 29.1606ZM20.5639 3.93873C21.6582 2.67032 23.1684 2.58697 24.3502 3.23783C25.5377 3.89176 26.3342 5.26009 25.9104 6.93532L27.8493 7.42586C28.5184 4.78122 27.2177 2.53371 25.315 1.48592C23.4068 0.435065 20.8339 0.564094 19.0496 2.63223L20.5639 3.93873ZM25.9104 6.93498L22.3492 20.9905L24.2879 21.4817L27.8492 7.4262L25.9104 6.93498ZM22.9375 22.1607L28.8331 24.5904L29.5952 22.7412L23.6996 20.3116L22.9375 22.1607ZM28.8331 24.5904C30.8382 25.4167 31.4742 28.0806 30.0096 29.7793L31.5243 31.0853C33.8539 28.3835 32.898 24.1024 29.5952 22.7412L28.8331 24.5904ZM30.0099 29.7789L12.917 49.5816L14.431 50.8884L31.5239 31.0858L30.0099 29.7789ZM12.9168 49.5817C11.8225 50.8501 10.3124 50.9335 9.13047 50.2826C7.94302 49.6287 7.14653 48.2604 7.57036 46.5851L5.63146 46.0946C4.96236 48.7392 6.26305 50.9867 8.16569 52.0345C10.0739 53.0854 12.6468 52.9564 14.4311 50.8882L12.9168 49.5817ZM7.57028 46.5855L11.1316 32.5299L9.19282 32.0387L5.63154 46.0942L7.57028 46.5855ZM10.5432 31.3598L4.64762 28.9301L3.88556 30.7792L9.78117 33.2089L10.5432 31.3598ZM4.647 28.9298C2.64315 28.1056 2.00608 25.4403 3.47116 23.7411L1.95646 22.4351C-0.372756 25.1365 0.582124 29.4204 3.88618 30.7795L4.647 28.9298ZM3.47081 23.7415L20.5637 3.93889L19.0497 2.63207L1.95681 22.4347L3.47081 23.7415ZM10.5354 48.8658L27.9224 29.1606L26.4227 27.8373L9.03573 47.5426L10.5354 48.8658ZM26.4227 27.8373L9.03573 47.5426L10.5354 48.8658L27.9224 29.1606L26.4227 27.8373Z" fill="url(#paint0_linear_1017_1622)" fill-opacity="0.18"/>
<defs>
<linearGradient id="paint0_linear_1017_1622" x1="16.7404" y1="1.83887" x2="16.7404" y2="51.6816" gradientUnits="userSpaceOnUse">
<stop stop-color="#FBE19B"/>
<stop offset="0.447917" stop-color="#E253A6"/>
<stop offset="1" stop-color="#8237F3"/>
</linearGradient>
</defs>
</svg>
