<svg width="24" height="23" viewBox="0 0 24 23" fill="none" xmlns="http://www.w3.org/2000/svg">
<path fill-rule="evenodd" clip-rule="evenodd" d="M10.0867 1.11652C10.8201 -0.372174 12.9431 -0.372174 13.6764 1.11652L16.2716 6.38099L22.0553 7.2434C23.6861 7.48651 24.3394 9.48745 23.1659 10.646L18.9809 14.7789L19.9543 20.5937C20.2285 22.2264 18.5137 23.466 17.05 22.6946L11.8816 19.9754L6.71314 22.6946C5.24946 23.466 3.53465 22.2264 3.80878 20.5937L4.78224 14.7789L0.597277 10.646C-0.576273 9.48745 0.0770326 7.48651 1.7078 7.2434L7.49051 6.38099L10.0867 1.11652ZM11.8817 2.00096L8.82226 8.20487L2.00306 9.22235L6.92737 14.0856L5.78183 20.9238L11.8817 17.7133L17.9815 20.9238L16.836 14.0856L21.7603 9.22235L14.9411 8.20487L11.8817 2.00096Z" fill="#FFC32A"/>
</svg>
