<svg width="18" height="22" viewBox="0 0 18 22" fill="none" xmlns="http://www.w3.org/2000/svg">
<path d="M9.00009 10.6039C11.9534 10.6039 14.3561 8.22548 14.3561 5.30196C14.3562 2.37844 11.9534 0 9.00009 0C6.04675 0 3.64404 2.37844 3.64404 5.30196C3.64404 8.22556 6.04675 10.6039 9.00009 10.6039ZM9.00009 1.26597C11.2483 1.26597 13.0772 3.07652 13.0772 5.30196C13.0772 7.5274 11.2482 9.33795 9.00009 9.33795C6.75195 9.33795 4.92293 7.5274 4.92293 5.30196C4.92293 3.07652 6.75195 1.26597 9.00009 1.26597Z" fill="#02336A"/>
<path d="M17.9456 19.6559L16.1892 12.4434C15.9808 11.5874 15.214 10.9895 14.3242 10.9895C13.2086 10.9895 4.67289 10.9895 3.67569 10.9895C2.78613 10.9895 2.01922 11.5874 1.81072 12.4434L0.0542935 19.6559C-0.236432 20.85 0.677023 22 1.91927 22H16.0807C17.3215 22 18.2369 20.8517 17.9456 19.6559ZM1.91927 20.734C1.50581 20.734 1.20065 20.3512 1.29764 19.9527L3.05406 12.7401C3.12354 12.4547 3.37915 12.2555 3.67578 12.2555H6.587L5.78058 17.9024C5.75669 18.0695 5.80118 18.2391 5.90416 18.3734L7.7125 20.734H1.91927ZM7.08429 17.8186L7.87872 12.2556H10.1214L10.9158 17.8186L9 20.3194L7.08429 17.8186ZM16.0807 20.734H10.2875L12.0957 18.3735C12.1987 18.2391 12.2432 18.0695 12.2193 17.9025L11.4129 12.2556H14.3241C14.6207 12.2556 14.8764 12.4549 14.9459 12.7402L16.7023 19.9528C16.7993 20.3508 16.4947 20.734 16.0807 20.734Z" fill="#02336A"/>
</svg>
