<svg width="30" height="38" viewBox="0 0 30 38" fill="none" xmlns="http://www.w3.org/2000/svg">
<path d="M15 18.3159C19.9222 18.3159 23.9267 14.2076 23.9267 9.15793C23.9269 4.10822 19.9222 0 15 0C10.0777 0 6.07324 4.10822 6.07324 9.15793C6.07324 14.2078 10.0777 18.3159 15 18.3159ZM15 2.18668C18.747 2.18668 21.7952 5.31399 21.7952 9.15793C21.7952 13.0019 18.7469 16.1292 15 16.1292C11.2531 16.1292 8.20472 13.0019 8.20472 9.15793C8.20472 5.31399 11.2531 2.18668 15 2.18668Z" fill="white"/>
<path d="M29.9094 33.9512L26.982 21.4932C26.6346 20.0147 25.3566 18.9819 23.8737 18.9819C22.0143 18.9819 7.78815 18.9819 6.12616 18.9819C4.64355 18.9819 3.36537 20.0147 3.01786 21.4932L0.0904891 33.9512C-0.394053 36.0136 1.12837 38 3.19879 38H26.8012C28.8691 38 30.3948 36.0167 29.9094 33.9512ZM3.19879 35.8133C2.50968 35.8133 2.00108 35.1521 2.16274 34.4638L5.0901 22.0056C5.20589 21.5127 5.63191 21.1686 6.1263 21.1686H10.9783L9.6343 30.9224C9.59449 31.211 9.66863 31.5039 9.84027 31.736L12.8542 35.8133H3.19879ZM11.8071 30.7777L13.1312 21.1688H16.8689L18.193 30.7777L15 35.0973L11.8071 30.7777ZM26.8012 35.8133H17.1458L20.1596 31.7361C20.3312 31.5039 20.4054 31.211 20.3656 30.9225L19.0215 21.1688H23.8736C24.3678 21.1688 24.794 21.513 24.9098 22.0059L27.8371 34.4639C27.9988 35.1515 27.4912 35.8133 26.8012 35.8133Z" fill="white"/>
</svg>
