<svg width="252" height="188" viewBox="0 0 252 188" fill="none" xmlns="http://www.w3.org/2000/svg">
<path d="M92.5879 160.427V161.417L111.308 163.924L134.697 168.457C134.697 168.457 135.957 167.436 133.591 165.663C131.226 163.889 118.131 161.611 111.478 162.871C111.478 162.852 104.715 158.074 92.5879 160.427Z" fill="#EDEDED" stroke="#DDDDDD" stroke-linecap="round" stroke-linejoin="round"/>
<path d="M90.4492 160.709C90.4492 160.709 105.141 160.004 109.601 163.566C111.491 165.07 112.921 163.93 115.066 163.88C117.212 163.83 128.794 162.542 135.226 168.931L147.133 159.421C147.133 159.421 140.005 151.675 127.374 156.31C127.374 156.31 123.594 151.757 109.923 154.054C109.803 154.223 90.4492 160.709 90.4492 160.709Z" fill="#F9F9F9" stroke="#EDEDED" stroke-linecap="round" stroke-linejoin="round"/>
<path d="M127.376 156.319L110.978 162.852" stroke="#EDEDED" stroke-linecap="round" stroke-linejoin="round"/>
<path d="M229.03 68.5793V161.567C212.893 156.895 191.23 153.844 167.605 152.039V68.5793H229.03Z" fill="#48C2E6"/>
<path d="M229.03 93.9939H224.542V109.842" stroke="#EDEDED" stroke-linecap="round" stroke-linejoin="round"/>
<path d="M199.301 108.815V93.0068L195.294 93.2418V109.504" stroke="#EDEDED" stroke-linecap="round" stroke-linejoin="round"/>
<path d="M190.944 110.585V94.401L195.294 94.2412" stroke="#EDEDED" stroke-linecap="round" stroke-linejoin="round"/>
<path d="M187.57 110.585L187.34 96.043H190.943V110.585" fill="#EDEDED"/>
<path d="M187.57 110.585L187.34 96.043H190.943V110.585" stroke="#DDDDDD" stroke-linecap="round" stroke-linejoin="round"/>
<path d="M171.829 110.585L167.596 96.416L170.875 95.6577" stroke="#DDDDDD" stroke-width="0.75" stroke-linecap="round" stroke-linejoin="round"/>
<path d="M175.212 110.522C175.175 110.585 170.409 94.0409 170.409 94.0409L174.267 93.7651L179.392 110.585" fill="#EDEDED"/>
<path d="M175.212 110.522C175.175 110.585 170.409 94.0409 170.409 94.0409L174.267 93.7651L179.392 110.585" stroke="#DDDDDD" stroke-linecap="round" stroke-linejoin="round"/>
<path d="M175.6 98.133L180.511 97.5784L186.108 110.585" stroke="#DDDDDD" stroke-width="0.75" stroke-linecap="round" stroke-linejoin="round"/>
<path d="M190.096 86.9909C190.14 86.9909 194.333 71.2302 194.333 71.2302L197.168 71.625L193.202 86.9784" fill="#DDDDDD"/>
<path d="M190.096 86.9909C190.14 86.9909 194.333 71.2302 194.333 71.2302L197.168 71.625L193.202 86.9784" stroke="#DDDDDD" stroke-miterlimit="10"/>
<path d="M197.792 86.6085L197.675 70.1208H202.655L202.432 86.0194" fill="#F9F9F9"/>
<path d="M197.792 86.6085L197.675 70.1208H202.655L202.432 86.0194" stroke="#DDDDDD" stroke-width="0.75" stroke-linecap="round" stroke-linejoin="round"/>
<path d="M202.64 71.2302H208.395L207.991 86.1825" fill="#F9F9F9"/>
<path d="M202.64 71.2302H208.395L207.991 86.1825" stroke="#DDDDDD" stroke-width="0.75" stroke-linecap="round" stroke-linejoin="round"/>
<path d="M221.149 69.7732L225.263 70.121L220.727 86.9909L217.344 85.8315L221.149 69.7732Z" stroke="#EDEDED" stroke-linecap="round" stroke-linejoin="round"/>
<path d="M224.964 86.8311L229.03 72.0324L224.964 71.2302L220.727 86.9909" fill="#EDEDED"/>
<path d="M224.964 86.8311L229.03 72.0324L224.964 71.2302L220.727 86.9909" stroke="#DDDDDD" stroke-linecap="round" stroke-linejoin="round"/>
<path d="M185.535 82.7327H187.876V86.9909" stroke="#EDEDED" stroke-linecap="round" stroke-linejoin="round"/>
<path d="M171.382 83.0271L171.486 86.9908" stroke="#EDEDED" stroke-linecap="round" stroke-linejoin="round"/>
<path d="M188.509 77.3716H171.486V80.0757H188.509V77.3716Z" stroke="#EDEDED" stroke-linecap="round" stroke-linejoin="round"/>
<path d="M171.486 80.0754H169.328V83.0678L185.535 82.7325V80.0754" fill="#EDEDED"/>
<path d="M171.486 80.0754H169.328V83.0678L185.535 82.7325V80.0754" stroke="#DDDDDD" stroke-linecap="round" stroke-linejoin="round"/>
<path d="M229.03 86.9907H167.596V91.133H229.03V86.9907Z" stroke="#DDDDDD" stroke-linecap="round" stroke-linejoin="round"/>
<path d="M229.03 110.585H167.596V114.727H229.03V110.585Z" stroke="#DDDDDD" stroke-linecap="round" stroke-linejoin="round"/>
<path d="M233.548 63.1243V162.965C232.094 162.482 230.589 162.016 229.03 161.567C212.893 156.896 191.23 153.844 167.605 152.039C166.11 151.922 164.605 151.812 163.088 151.71V63.1243H233.548Z" stroke="#DDDDDD" stroke-width="2" stroke-linecap="round" stroke-linejoin="round"/>
<path d="M4.75977 157.043C10.2565 155.761 18.1662 154.574 27.8146 153.552C31.5946 153.151 35.6613 152.775 39.9516 152.427C41.6316 152.294 43.3431 152.162 45.0861 152.033C46.3188 151.945 47.5683 151.859 48.8346 151.776C52.4214 151.535 56.1258 151.315 59.9478 151.114C77.4964 150.203 97.2438 149.758 117.297 149.971C118.544 149.983 119.794 150 121.045 150.021C123.565 150.054 126.077 150.101 128.58 150.162C131.173 150.225 133.765 150.297 136.354 150.378C145.382 150.67 154.35 151.105 163.079 151.71C164.593 151.812 166.099 151.922 167.596 152.039L168.642 152.12C176.806 152.747 184.707 153.543 192.248 154.498C204.652 156.065 215.996 158.089 225.638 160.627C226.797 160.934 227.932 161.248 229.043 161.567C230.601 162.018 232.107 162.484 233.56 162.965C238.915 164.741 243.539 166.725 247.253 168.94" stroke="#DDDDDD" stroke-width="2" stroke-linecap="round" stroke-linejoin="round"/>
<path d="M117.297 45.2078V149.971C92.8872 149.714 68.922 150.431 48.8345 151.776V45.2078H117.297Z" fill="#48C2E6" stroke="#DDDDDD" stroke-linecap="round" stroke-linejoin="round"/>
<path d="M95.4292 143.566L100.636 127.777L103.644 128.072L99.0706 143.538" stroke="#EDEDED" stroke-linecap="round" stroke-linejoin="round"/>
<path d="M103.182 143.538L108.467 124.306H104.788L103.645 128.072" stroke="#EDEDED" stroke-linecap="round" stroke-linejoin="round"/>
<path d="M106.804 143.538L110.679 127.354L107.68 127.169L103.182 143.538" fill="#EDEDED"/>
<path d="M106.804 143.538L110.679 127.354L107.68 127.169L103.182 143.538" stroke="#DDDDDD" stroke-linecap="round" stroke-linejoin="round"/>
<path d="M117.297 123.804C117.297 123.879 111.381 123.804 111.381 123.804L111.598 143.381" stroke="#EDEDED" stroke-linecap="round" stroke-linejoin="round"/>
<path d="M93.3535 102.053H97.8486L101.449 117.171H97.4107" fill="#EDEDED"/>
<path d="M93.3535 102.053H97.8486L101.449 117.171H97.4107" stroke="#DDDDDD" stroke-linecap="round" stroke-linejoin="round"/>
<path d="M105.05 100.483H101.449C101.449 100.483 101.745 117.187 102.06 117.187H105.525" fill="#F9F9F9"/>
<path d="M105.05 100.483H101.449C101.449 100.483 101.745 117.187 102.06 117.187H105.525" stroke="#DDDDDD" stroke-linecap="round" stroke-linejoin="round"/>
<path d="M105.525 117.187C105.308 116.924 105.043 97.6787 105.043 97.6787H109.374V117.187" fill="#F9F9F9"/>
<path d="M105.525 117.187C105.308 116.924 105.043 97.6787 105.043 97.6787H109.374V117.187" stroke="#DDDDDD" stroke-linecap="round" stroke-linejoin="round"/>
<path d="M112.455 117.187L116.865 100.834L113.715 99.7559C113.715 99.7559 109.365 114.608 109.365 114.73V117.187" fill="#EDEDED"/>
<path d="M112.455 117.187L116.865 100.834L113.715 99.7559C113.715 99.7559 109.365 114.608 109.365 114.73V117.187" stroke="#DDDDDD" stroke-linecap="round" stroke-linejoin="round"/>
<path d="M93.9959 117.171L89.293 100.01L92.7832 99.4458L97.4105 117.171" fill="#F9F9F9"/>
<path d="M93.9959 117.171L89.293 100.01L92.7832 99.4458L97.4105 117.171" stroke="#DDDDDD" stroke-linecap="round" stroke-linejoin="round"/>
<path d="M74.1889 108.99L72.7588 108.883V110.494" stroke="#EDEDED" stroke-linecap="round" stroke-linejoin="round"/>
<path d="M88.8362 109.689L88.707 112.239" stroke="#EDEDED" stroke-linecap="round" stroke-linejoin="round"/>
<path d="M75.0016 105.734L74.6362 102.805H88.9971V105.734" stroke="#EDEDED" stroke-linecap="round" stroke-linejoin="round"/>
<path d="M74.1889 108.99L73.9526 105.734H90.0743L90.2602 109.72L74.1889 108.99Z" fill="#DDDDDD" stroke="#DDDDDD" stroke-miterlimit="10"/>
<path d="M73.9526 111.841L89.5924 112.239V117.171" stroke="#EDEDED" stroke-linecap="round" stroke-linejoin="round"/>
<path d="M78.1613 80.8149H59.1069V83.8511H78.1613V80.8149Z" stroke="#DDDDDD" stroke-width="0.75" stroke-linecap="round" stroke-linejoin="round"/>
<path d="M77.2792 90.7384C77.4367 91.0266 77.2792 86.5146 77.2792 86.5146L61.7749 86.3047V90.801" stroke="#DDDDDD" stroke-width="0.75" stroke-linecap="round" stroke-linejoin="round"/>
<path d="M76.3467 83.8511V86.5019" stroke="#DDDDDD" stroke-width="0.75" stroke-linecap="round" stroke-linejoin="round"/>
<path d="M79.9126 90.8259L80.5709 69.9705L85.4755 70.2525L85.0534 90.804" fill="#EDEDED"/>
<path d="M79.9126 90.8259L80.5709 69.9705L85.4755 70.2525L85.0534 90.804" stroke="#DDDDDD" stroke-linecap="round" stroke-linejoin="round"/>
<path d="M85.4502 71.459H89.5389L89.1672 90.8042" stroke="#DDDDDD" stroke-width="0.75" stroke-linecap="round" stroke-linejoin="round"/>
<path d="M62.8521 84.0581L63.0096 86.3204" stroke="#DDDDDD" stroke-width="0.75" stroke-linecap="round" stroke-linejoin="round"/>
<path d="M48.8345 73.4485H53.2508L54.0288 90.826" stroke="#EDEDED" stroke-linecap="round" stroke-linejoin="round"/>
<path d="M57.7047 90.7381L57.1913 74.8396L53.3042 74.6328" stroke="#EDEDED" stroke-linecap="round" stroke-linejoin="round"/>
<path d="M89.5391 90.8041L93.8892 72.9253L98.4567 73.9656" stroke="#EDEDED" stroke-linecap="round" stroke-linejoin="round"/>
<path d="M93.8042 90.8042L99.0804 71.459L103.598 73.2199L98.9576 90.8042" stroke="#EDEDED" stroke-linecap="round" stroke-linejoin="round"/>
<path d="M109.976 90.8259L109.705 69.9704L103.623 69.7417V90.8259" stroke="#EDEDED" stroke-linecap="round" stroke-linejoin="round"/>
<path d="M115.186 90.8259L114.868 71.6655H109.705L110.149 90.8259" fill="#EDEDED"/>
<path d="M115.186 90.8259L114.868 71.6655H109.705L110.149 90.8259" stroke="#DDDDDD" stroke-linecap="round" stroke-linejoin="round"/>
<path d="M117.297 90.801H48.8315V94.9464H117.297V90.801Z" stroke="#DDDDDD" stroke-linecap="round" stroke-linejoin="round"/>
<path d="M117.297 117.171H48.8315V121.313H117.297V117.171Z" stroke="#DDDDDD" stroke-linecap="round" stroke-linejoin="round"/>
<path d="M117.297 143.538H48.8315V147.683H117.297V143.538Z" stroke="#DDDDDD" stroke-width="2" stroke-linecap="round" stroke-linejoin="round"/>
<path d="M121.045 39.925V150.021C119.785 150 118.536 149.983 117.297 149.971C92.8872 149.714 68.922 150.431 48.8344 151.776C47.5744 151.857 46.3249 151.943 45.0859 152.033V39.925H121.045Z" stroke="#DDDDDD" stroke-width="2" stroke-linecap="round" stroke-linejoin="round"/>
<path d="M91.2936 47.3574L90.5943 49.5382L85.8158 64.4372H82.8926L88.5972 46.6367L91.2936 47.3574Z" stroke="#DDDDDD" stroke-width="0.75" stroke-linecap="round" stroke-linejoin="round"/>
<path d="M90.5973 49.5381L94.6797 50.6159L90.4492 64.4371" stroke="#DDDDDD" stroke-width="0.75" stroke-linecap="round" stroke-linejoin="round"/>
<path d="M94.7772 45.2109L94.4307 64.4339" stroke="#DDDDDD" stroke-width="0.75" stroke-linecap="round" stroke-linejoin="round"/>
<path d="M96.2832 46.7524H100.419" stroke="#DDDDDD" stroke-width="0.75" stroke-linecap="round" stroke-linejoin="round"/>
<path d="M101.645 45.2109V64.4339" stroke="#DDDDDD" stroke-width="0.75" stroke-linecap="round" stroke-linejoin="round"/>
<path d="M101.645 55.3879L104.417 64.4339" stroke="#DDDDDD" stroke-width="0.75" stroke-linecap="round" stroke-linejoin="round"/>
<path d="M106.93 64.4338L109.705 63.2776L104.07 48.8267L101.645 49.5379" stroke="#DDDDDD" stroke-width="0.75" stroke-linecap="round" stroke-linejoin="round"/>
<path d="M109.192 63.4908L109.535 64.4339H110.729L112.773 63.4062L109.141 50.9543L105.283 51.9382" stroke="#DDDDDD" stroke-width="0.75" stroke-linecap="round" stroke-linejoin="round"/>
<path d="M117.297 64.4338H48.8315V68.5761H117.297V64.4338Z" stroke="#DDDDDD" stroke-linecap="round" stroke-linejoin="round"/>
<path d="M56.3252 64.4371H53.1437L48.8345 50.6222L52.2648 49.5381L56.3567 62.6104" stroke="#EDEDED" stroke-linecap="round" stroke-linejoin="round"/>
<path d="M60.71 64.4371H56.3252L56.3567 62.6104L56.6307 47.0471H60.3918L60.4832 51.8693L60.7226 64.4371" stroke="#EDEDED" stroke-linecap="round" stroke-linejoin="round"/>
<path d="M69.6846 64.4372H64.6887L64.4651 50.7915L64.3989 46.7746L68.7932 46.6367C68.7932 46.6367 68.8341 47.4483 68.8971 48.7455C69.0861 52.6402 69.4925 60.8652 69.6846 64.4372Z" stroke="#EDEDED" stroke-linecap="round" stroke-linejoin="round"/>
<path d="M60.7102 64.437L60.4834 51.8692L60.4487 49.8513L64.465 50.7913H64.4681L64.6886 64.437H60.7228" fill="#EDEDED"/>
<path d="M60.7102 64.437L60.4834 51.8692L60.4487 49.8513L64.465 50.7913H64.4681L64.6886 64.437H60.7228" stroke="#DDDDDD" stroke-linecap="round" stroke-linejoin="round"/>
<path d="M69.6845 64.4371H74.0472L73.6629 49.5381L73.644 48.7454H68.897L69.6845 64.4371Z" fill="#EDEDED" stroke="#DDDDDD" stroke-linecap="round" stroke-linejoin="round"/>
<path d="M73.6631 49.5381H78.4605L78.6086 64.4371H74.0474" stroke="#EDEDED" stroke-linecap="round" stroke-linejoin="round"/>
<path d="M167.18 172.496L189.917 163.873L212.48 166.38C212.48 166.38 214.027 166.919 213.296 168.815L190.975 179.853L167.18 172.496Z" fill="#F9F9F9" stroke="#EDEDED" stroke-linecap="round" stroke-linejoin="round"/>
<path d="M191.243 176.924C191.243 176.924 205.988 170.09 212.48 166.393L191.243 176.924Z" fill="#F9F9F9"/>
<path d="M191.243 176.924C191.243 176.924 205.988 170.09 212.48 166.393" stroke="#EDEDED" stroke-linecap="round" stroke-linejoin="round"/>
<path d="M167.18 172.496C167.18 172.496 189.917 175.824 191.243 176.924C191.848 177.425 191.901 180.007 190.578 179.838C189.255 179.669 167.18 176.363 167.18 176.363C167.18 176.363 170.415 174.896 167.18 172.496Z" fill="#EDEDED" stroke="#DDDDDD" stroke-linecap="round" stroke-linejoin="round"/>
<path d="M197.242 54.9895C203.268 53.7668 207.156 47.9166 205.927 41.9227C204.697 35.9289 198.816 32.0611 192.79 33.2839C186.765 34.5066 182.876 40.3568 184.106 46.3506C185.335 52.3445 191.216 56.2122 197.242 54.9895Z" stroke="#EDEDED" stroke-width="2" stroke-linecap="round" stroke-linejoin="round"/>
<path d="M200.406 47.2414L196.33 44.3274C196.341 44.2621 196.348 44.1962 196.349 44.13C196.349 43.89 196.282 43.6548 196.157 43.4494C196.032 43.2441 195.854 43.0764 195.64 42.9644C195.568 41.451 195.436 38.6843 195.31 36.0899C195.285 35.5541 194.768 35.5572 194.746 36.0899L194.431 42.9331C194.163 43.0651 193.948 43.2828 193.821 43.5512C193.693 43.8195 193.659 44.1229 193.726 44.4124C193.792 44.7019 193.955 44.9607 194.188 45.1471C194.42 45.3334 194.709 45.4365 195.007 45.4398C195.287 45.4398 195.56 45.3509 195.785 45.186L200.088 47.6926C200.564 47.9903 200.847 47.5548 200.406 47.2414Z" fill="#DDDDDD" stroke="#DDDDDD" stroke-miterlimit="10"/>
<path d="M82.9268 162.05L113.715 167.821C113.715 167.821 111.604 171.24 114.345 172.246L92.1217 178.287C92.1217 178.287 63.737 171.804 62.7133 171.359C61.6895 170.914 60.5839 168.786 63.1417 167.959C65.6995 167.132 82.9268 162.05 82.9268 162.05Z" fill="#F9F9F9" stroke="#DDDDDD" stroke-linecap="round" stroke-linejoin="round"/>
<path d="M92.1217 178.287C90.9719 178.152 90.2096 175.683 92.5186 174.84C94.7425 174.025 113.702 167.834 113.702 167.834" fill="#F9F9F9"/>
<path d="M92.1217 178.287C90.9719 178.152 90.2096 175.683 92.5186 174.84C94.7425 174.025 113.702 167.834 113.702 167.834" stroke="#EDEDED" stroke-linecap="round" stroke-linejoin="round"/>
<path d="M66.9126 169.614L87.6175 174.524" stroke="#DDDDDD" stroke-linecap="round" stroke-linejoin="round"/>
<path d="M22.9728 170.974C26.2488 170.218 25.6598 169.184 24.803 167.185C23.9462 165.186 21.338 163.225 17.2713 164.077C13.2047 164.929 13.2047 168.802 16.3799 169.908C19.5551 171.014 21.3128 171.356 22.9728 170.974Z" fill="#F9F9F9" stroke="#EDEDED" stroke-linecap="round" stroke-linejoin="round"/>
<path d="M23.7163 168.094C24.1037 168.829 24.4202 169.599 24.6613 170.394L23.7163 168.094Z" fill="#F9F9F9"/>
<path d="M23.7163 168.094C24.1037 168.829 24.4202 169.599 24.6613 170.394" stroke="#DDDDDD" stroke-linecap="round" stroke-linejoin="round"/>
<path d="M22.2644 166.966C22.5525 167.404 22.8804 167.815 23.244 168.194C23.6598 168.605 24.104 168.442 24.0221 168.006C23.8683 167.32 23.5433 166.683 23.0771 166.154C22.9655 166.067 22.8254 166.023 22.6834 166.031C22.5414 166.04 22.4075 166.1 22.3072 166.2C22.2068 166.3 22.147 166.434 22.1391 166.575C22.1312 166.716 22.1758 166.855 22.2644 166.966Z" fill="#F9F9F9" stroke="#DDDDDD" stroke-linecap="round" stroke-linejoin="round"/>
<path d="M165.432 8.14673V46.4016C165.27 46.5173 165.139 46.6693 165.048 46.8452C164.957 47.0211 164.909 47.2159 164.909 47.4137V48.4571C164.909 48.6548 164.957 48.8496 165.048 49.0255C165.139 49.2014 165.27 49.3534 165.432 49.4691V50.9543H166.909V49.4691C167.07 49.3531 167.2 49.2009 167.291 49.0251C167.381 48.8492 167.428 48.6546 167.429 48.4571V47.4137C167.428 47.2162 167.381 47.0215 167.291 46.8457C167.2 46.6698 167.07 46.5176 166.909 46.4016V8.14673" fill="#02336A"/>
<path d="M165.432 8.14673V46.4016C165.27 46.5173 165.139 46.6693 165.048 46.8452C164.957 47.0211 164.909 47.2159 164.909 47.4137V48.4571C164.909 48.6548 164.957 48.8496 165.048 49.0255C165.139 49.2014 165.27 49.3534 165.432 49.4691V50.9543H166.909V49.4691C167.07 49.3531 167.2 49.2009 167.291 49.0251C167.381 48.8492 167.428 48.6546 167.429 48.4571V47.4137C167.428 47.2162 167.381 47.0215 167.291 46.8457C167.2 46.6698 167.07 46.5176 166.909 46.4016V8.14673" stroke="#DDDDDD" stroke-width="2" stroke-linecap="round" stroke-linejoin="round"/>
<path d="M101.556 8.14673V46.4016C101.395 46.5176 101.264 46.6698 101.174 46.8457C101.084 47.0215 101.036 47.2162 101.036 47.4137V48.4571C101.036 48.6546 101.084 48.8492 101.174 49.0251C101.264 49.2009 101.395 49.3531 101.556 49.4691V50.9543H103.033V49.4691C103.194 49.3534 103.326 49.2014 103.417 49.0255C103.508 48.8496 103.555 48.6548 103.556 48.4571V47.4137C103.555 47.2159 103.508 47.0211 103.417 46.8452C103.326 46.6693 103.194 46.5173 103.033 46.4016V8.14673" fill="#02336A"/>
<path d="M101.556 8.14673V46.4016C101.395 46.5176 101.264 46.6698 101.174 46.8457C101.084 47.0215 101.036 47.2162 101.036 47.4137V48.4571C101.036 48.6546 101.084 48.8492 101.174 49.0251C101.264 49.2009 101.395 49.3531 101.556 49.4691V50.9543H103.033V49.4691C103.194 49.3534 103.326 49.2014 103.417 49.0255C103.508 48.8496 103.555 48.6548 103.556 48.4571V47.4137C103.555 47.2159 103.508 47.0211 103.417 46.8452C103.326 46.6693 103.194 46.5173 103.033 46.4016V8.14673" stroke="#DDDDDD" stroke-width="2" stroke-linecap="round" stroke-linejoin="round"/>
<path d="M170.009 47.8022H98.4565V52.239H170.009V47.8022Z" fill="#48C2E6" stroke="#DDDDDD" stroke-width="2" stroke-linecap="round" stroke-linejoin="round"/>
<path d="M170.979 48.9458H170.009V51.0984H170.979V48.9458Z" fill="#F9F9F9" stroke="#DDDDDD" stroke-linecap="round" stroke-linejoin="round"/>
<path d="M166.938 52.239H101.525C100.959 52.239 100.501 52.6949 100.501 53.2573V53.32C100.501 53.8824 100.959 54.3383 101.525 54.3383H166.938C167.503 54.3383 167.961 53.8824 167.961 53.32V53.2573C167.961 52.6949 167.503 52.239 166.938 52.239Z" fill="#48C2E6" stroke="#DDDDDD" stroke-linecap="round" stroke-linejoin="round"/>
<path d="M161.986 168.689L184.373 159.847L206.59 162.125C206.59 162.125 208.096 163.867 207.072 165.847L185.416 175.799L161.986 168.689Z" fill="#F9F9F9" stroke="#DDDDDD" stroke-linecap="round" stroke-linejoin="round"/>
<path d="M185.68 172.872C185.68 172.872 203.742 164.66 206.59 162.125L185.68 172.872Z" fill="#F9F9F9"/>
<path d="M185.68 172.872C185.68 172.872 203.742 164.66 206.59 162.125" stroke="#DDDDDD" stroke-linecap="round" stroke-linejoin="round"/>
<path d="M161.986 168.689C161.986 168.689 184.373 171.785 185.68 172.872C186.272 173.368 186.329 175.949 185.022 175.793C183.715 175.636 161.986 172.556 161.986 172.556C161.986 172.556 165.158 171.058 161.986 168.689Z" fill="#F9F9F9" stroke="#EDEDED" stroke-linecap="round" stroke-linejoin="round"/>
<path d="M83.2701 132.54C85.9634 135.908 92.6004 149.46 87.425 153.43C80.2682 158.92 71.99 143.748 70.4717 139.33L83.2701 132.54Z" fill="#FEBD9D"/>
<path d="M84.02 131.979C84.02 131.979 83.012 132.753 81.4118 133.822C78.5075 135.761 73.6533 138.663 69.3504 139.615C69.3504 139.615 68.9063 138.732 68.229 137.4L66.717 134.42C65.8067 132.618 64.7955 130.619 63.9324 128.905L62.9276 126.9C62.7417 126.53 62.5748 126.195 62.433 125.904C59.913 120.825 57.0938 108.858 65.372 108.062C66.0793 107.989 66.7916 107.975 67.5013 108.019H67.536C67.7313 108.034 67.9203 108.053 68.1062 108.078L68.2637 108.1L68.5409 108.15C68.6511 108.169 68.7614 108.194 68.8559 108.219C68.9504 108.244 69.026 108.26 69.1079 108.285L69.2244 108.313L69.4638 108.391C69.5399 108.414 69.6145 108.441 69.6875 108.473C69.764 108.496 69.8387 108.524 69.9111 108.558C69.9981 108.591 70.0833 108.628 70.1663 108.67C70.2426 108.702 70.3172 108.738 70.3899 108.777C70.4886 108.823 70.5831 108.873 70.6734 108.927C70.7553 108.971 70.8341 109.018 70.9097 109.065L71.1049 109.194C71.3345 109.345 71.5554 109.509 71.7665 109.686C71.8578 109.761 71.946 109.833 72.0311 109.914C72.3178 110.173 72.5901 110.447 72.8469 110.735C72.9319 110.832 73.0202 110.933 73.1052 111.049C73.1903 111.164 73.2375 111.208 73.3037 111.29C73.4108 111.421 73.5179 111.559 73.6187 111.703C73.6911 111.794 73.7604 111.891 73.8297 111.989C73.9368 112.136 74.0439 112.302 74.1447 112.446C74.2455 112.59 74.3117 112.687 74.3936 112.819L74.6519 113.226C74.7401 113.364 74.8251 113.505 74.9133 113.652C75.1149 113.981 75.3133 114.329 75.5149 114.689C75.5779 114.809 75.6473 114.931 75.7134 115.053C75.7796 115.175 75.893 115.385 75.9843 115.557C76.0757 115.73 76.1607 115.871 76.2458 116.052C76.3308 116.234 76.4442 116.432 76.545 116.629C76.7529 117.036 76.9608 117.447 77.175 117.86C79.5501 122.582 81.9756 127.69 83.1883 130.275C83.7238 131.34 84.02 131.979 84.02 131.979Z" fill="#FED81D"/>
<path d="M77.2065 117.857C74.8879 117.939 72.6933 118.919 71.0924 120.59C70.87 120.821 70.6598 121.064 70.4624 121.316C68.4602 123.776 65.8694 125.696 62.9276 126.9C62.7417 126.53 62.5748 126.195 62.433 125.904C59.913 120.825 57.0938 108.858 65.372 108.062C66.0793 107.989 66.7916 107.975 67.5014 108.019H67.536C67.7313 108.034 67.9203 108.053 68.1062 108.078L68.2637 108.1L68.5409 108.15C68.6511 108.169 68.7614 108.194 68.8559 108.219C68.9504 108.244 69.026 108.26 69.1079 108.285L69.2244 108.313L69.4638 108.391C69.5399 108.414 69.6145 108.441 69.6875 108.473C69.764 108.496 69.8387 108.524 69.9111 108.558C69.9981 108.591 70.0833 108.628 70.1663 108.67C70.2426 108.702 70.3172 108.738 70.3899 108.777C70.4886 108.823 70.5831 108.873 70.6734 108.927C70.7553 108.971 70.8341 109.018 70.9097 109.065L71.105 109.194C71.3345 109.345 71.5554 109.509 71.7665 109.686C71.8578 109.761 71.946 109.833 72.0311 109.914C72.3178 110.173 72.5901 110.447 72.8469 110.735C72.932 110.832 73.0202 110.933 73.1052 111.049C73.1903 111.164 73.2375 111.208 73.3037 111.29C73.4108 111.421 73.5179 111.559 73.6187 111.703C73.6911 111.794 73.7604 111.891 73.8297 111.989C73.9368 112.136 74.0439 112.302 74.1447 112.446C74.2455 112.59 74.3117 112.687 74.3936 112.819L74.6519 113.226C74.7401 113.364 74.8251 113.505 74.9133 113.652C75.1149 113.981 75.3134 114.329 75.515 114.689C75.578 114.809 75.6473 114.931 75.7134 115.053C75.7796 115.175 75.893 115.385 75.9843 115.557C76.0757 115.73 76.1607 115.871 76.2458 116.052C76.3308 116.234 76.4442 116.432 76.545 116.629C76.7939 117.033 77.0018 117.444 77.2065 117.857Z" fill="#FFE05C"/>
<path d="M81.412 133.822C78.5077 135.761 73.6535 138.663 69.3506 139.615C69.3506 139.615 68.9065 138.732 68.2292 137.4L66.7172 134.42C65.8069 132.618 64.7957 130.619 63.9326 128.905L68.8529 124.146C69.0451 124.074 72.8093 124.265 71.647 127.405C70.4846 130.544 68.434 132.647 70.1066 133.922C71.7793 135.197 76.6114 124.914 80.8733 132.531C81.1055 132.937 81.2864 133.371 81.412 133.822Z" fill="#FCC71F"/>
<path d="M71.6247 115.755C71.6247 115.921 71.6247 116.09 71.5995 116.265C71.5459 117.14 71.4482 118.12 71.3159 119.223C71.2687 119.64 71.1931 120.094 71.0923 120.589C70.9758 121.188 70.8246 121.843 70.6513 122.529C70.1 124.685 69.2842 127.257 68.3234 130.002C68.21 130.315 68.0935 130.66 67.9738 130.989C67.7627 131.587 67.5423 132.189 67.3218 132.794C67.1244 133.333 66.9228 133.875 66.717 134.42C64.3608 140.687 61.6486 147.154 59.9476 151.114C56.1298 151.313 52.4254 151.533 48.8344 151.776C47.5744 151.857 46.3249 151.943 45.0859 152.032C43.3408 152.162 41.6293 152.294 39.9514 152.427C35.6611 152.775 31.6039 153.151 27.8145 153.552C28.5043 150.178 30.3723 141.238 32.5678 131.901C33.7774 126.762 35.0878 121.501 36.3478 116.983C37.2393 113.803 38.1118 110.992 38.9088 108.836C39.7404 106.615 40.4838 105.101 41.1138 104.622C43.2999 102.961 45.1835 102.429 47.5429 102.717C47.8012 102.751 48.0627 102.792 48.3336 102.842C48.6045 102.892 48.8785 102.955 49.162 103.024C49.266 103.046 49.3699 103.074 49.477 103.102C49.5841 103.131 49.7007 103.165 49.8141 103.196L50.17 103.297C50.7307 103.464 51.3261 103.659 51.9561 103.883L52.3466 104.02C52.6616 104.133 52.9767 104.252 53.3169 104.381C53.9468 104.616 54.6147 104.879 55.3266 105.158C57.1063 105.863 59.4499 106.809 64.4175 107.849C64.7482 107.915 65.0664 107.987 65.3625 108.056L65.6271 108.116L65.8822 108.178C66.0082 108.207 66.1374 108.241 66.257 108.272C66.3768 108.304 66.4996 108.335 66.6161 108.366C66.8524 108.429 67.0792 108.492 67.2966 108.561C67.6462 108.67 67.9738 108.783 68.2794 108.905L68.566 109.024C68.7487 109.109 68.922 109.194 69.0826 109.281L69.2968 109.4C69.6283 109.594 69.9351 109.826 70.2103 110.093L70.2639 110.146L70.3395 110.228L70.4403 110.34C70.5399 110.458 70.6335 110.58 70.7206 110.707C70.7678 110.779 70.812 110.848 70.8561 110.926C70.9002 111.005 70.9254 111.045 70.9569 111.111L71.0009 111.199C71.2566 111.744 71.4266 112.325 71.505 112.922C71.505 113.001 71.527 113.079 71.5396 113.163C71.5522 113.248 71.5396 113.267 71.5585 113.323C71.5774 113.38 71.5774 113.502 71.5837 113.593C71.59 113.684 71.5994 113.793 71.6026 113.906V114.041C71.6026 114.15 71.6026 114.263 71.6026 114.379C71.653 114.802 71.6467 115.26 71.6247 115.755Z" fill="#FED81D"/>
<path d="M59.9478 151.114C61.6488 147.154 64.3578 140.696 66.7171 134.42C66.9271 133.875 67.1287 133.333 67.3219 132.794C67.5424 132.189 67.7629 131.588 67.974 130.989C68.0937 130.66 68.2102 130.328 68.3236 130.002C69.2686 127.257 70.1002 124.675 70.6515 122.529" stroke="#F7AD2B" stroke-width="0.75" stroke-linecap="round" stroke-linejoin="round"/>
<path d="M71.3159 119.223C71.2687 119.64 71.1931 120.094 71.0923 120.59C70.87 120.821 70.6597 121.064 70.4623 121.316C68.4601 123.776 65.8693 125.696 62.9275 126.9C58.3663 128.695 53.0333 128.251 49.5872 121.229C48.9793 119.975 48.3839 118.854 47.8075 117.823C44.7079 112.318 41.9516 109.676 38.915 108.843C39.7466 106.621 40.49 105.108 41.12 104.628C43.3061 102.968 45.1898 102.435 47.5492 102.723C47.8075 102.758 48.0689 102.798 48.3398 102.849C48.6107 102.899 48.8848 102.961 49.1683 103.03C49.2722 103.052 49.3762 103.08 49.4833 103.109C49.5904 103.137 49.7069 103.171 49.8203 103.203L50.1763 103.303C50.737 103.47 51.3323 103.665 51.9623 103.889L52.3529 104.027C52.6679 104.14 52.9829 104.259 53.3231 104.387C53.5846 104.487 53.8586 104.588 54.1358 104.7C54.3217 104.769 54.5044 104.841 54.6965 104.92L55.3265 105.167C57.1063 105.872 59.4499 106.819 64.4174 107.859C64.7482 107.925 65.0663 107.997 65.3624 108.066C71.1899 109.382 72.3334 110.829 71.3159 119.223Z" fill="#FFE05C"/>
<path d="M67.5107 108.018C66.4996 111.12 63.9733 114.332 60.1145 113.749C55.903 113.123 53.3074 108.796 53.3263 104.387C53.9563 104.622 54.6241 104.885 55.336 105.164C57.1157 105.869 59.4593 106.815 64.4269 107.856C64.7576 107.921 65.0758 107.993 65.3719 108.062C66.0824 107.989 66.7978 107.974 67.5107 108.018Z" fill="white"/>
<path d="M51.43 148.116C49.77 149.432 45.2655 151.249 39.9514 152.427C35.6611 152.775 31.6039 153.151 27.8145 153.552C28.5043 150.178 30.3723 141.238 32.5678 131.901C33.7774 126.762 35.0878 121.501 36.3478 116.983C45.6214 118.28 48.0942 128.047 43.8826 131.349C39.1576 135.066 38.6378 138.152 44.6197 138.07C50.6015 137.989 56.1046 144.415 51.43 148.116Z" fill="#FCC71F"/>
<path d="M66.2163 96.1307C66.1722 96.5757 66.1249 96.9987 66.084 97.4029C65.7123 101.019 65.5453 103.24 65.5201 105.28C65.5201 106.358 65.5201 107.386 65.5957 108.542C65.5957 108.542 64.1215 113.355 58.8705 111.362C55.1661 109.952 55.3362 105.174 55.3362 105.174C56.4198 101.756 57.1409 98.2346 57.4876 94.6675C57.6136 92.8783 66.8967 89.6573 66.2163 96.1307Z" fill="#FEBD9D"/>
<path d="M66.0838 97.4027C65.7121 101.019 65.5452 103.24 65.52 105.28C62.5086 106.189 59.3712 102.689 61.11 98.8472C62.37 96.1244 64.6254 96.6633 66.0838 97.4027Z" fill="#F4A789"/>
<path d="M84.02 131.979C84.02 131.979 76.019 138.136 69.3504 139.615C69.3504 139.615 68.9063 138.731 68.229 137.4C73.71 135.52 79.4493 132.778 83.2199 130.271C83.7239 131.34 84.02 131.979 84.02 131.979Z" fill="white"/>
<path d="M68.2729 100.934C66.5089 103.218 63.3746 102.686 58.489 97.7537C56.6399 95.8737 54.5074 92.8437 54.5641 90.4467C54.6208 88.0497 57.5377 83.0019 63.0691 85.9003C65.2048 87.022 66.7325 89.184 67.7027 91.5403C68.0695 92.4414 68.3614 93.3709 68.5753 94.3195C69.221 97.1928 69.0919 99.8718 68.2729 100.934Z" fill="#FEBD9D"/>
<path d="M62.2245 94.1536C61.9253 94.8962 60.6936 95.1092 59.4714 94.6267C58.2492 94.1442 57.4964 93.1478 57.7956 92.4052C58.0949 91.6626 59.3234 91.4464 60.5487 91.9289C61.7741 92.4114 62.5206 93.4078 62.2245 94.1536Z" fill="#F4AF90"/>
<path d="M68.5655 94.3134C67.7969 94.5954 67.063 94.5171 66.7228 94.0628C66.2534 93.4361 66.6881 92.3175 67.6929 91.5342C68.0597 92.4353 68.3516 93.3648 68.5655 94.3134Z" fill="#F4AF90"/>
<path d="M67.3182 92.2078C68.5395 92.2078 69.5295 91.223 69.5295 90.0082C69.5295 88.7934 68.5395 87.8086 67.3182 87.8086C66.097 87.8086 65.1069 88.7934 65.1069 90.0082C65.1069 91.223 66.097 92.2078 67.3182 92.2078Z" stroke="#683F1D" stroke-miterlimit="10"/>
<path d="M62.3916 91.1799C62.391 91.2705 62.4174 91.3593 62.4676 91.4349C62.5177 91.5106 62.5893 91.5697 62.6733 91.6048C62.7573 91.6399 62.8499 91.6494 62.9393 91.6321C63.0287 91.6148 63.1109 91.5715 63.1756 91.5076C63.2402 91.4438 63.2843 91.3623 63.3023 91.2735C63.3203 91.1846 63.3114 91.0925 63.2767 91.0087C63.242 90.9249 63.183 90.8533 63.1073 90.8029C63.0316 90.7525 62.9426 90.7256 62.8515 90.7256C62.7301 90.7256 62.6136 90.7734 62.5274 90.8585C62.4413 90.9436 62.3924 91.0591 62.3916 91.1799Z" fill="#683F1D"/>
<path d="M65.5952 90.4655C65.5952 90.556 65.6222 90.6444 65.6727 90.7197C65.7233 90.7949 65.7951 90.8535 65.8791 90.8882C65.9632 90.9228 66.0556 90.9318 66.1448 90.9142C66.234 90.8965 66.316 90.853 66.3803 90.789C66.4446 90.725 66.4884 90.6435 66.5062 90.5548C66.5239 90.466 66.5148 90.374 66.48 90.2905C66.4452 90.2069 66.3863 90.1354 66.3106 90.0851C66.235 90.0349 66.1461 90.0081 66.0551 90.0081C65.9331 90.0081 65.8162 90.0563 65.7299 90.142C65.6437 90.2278 65.5952 90.3442 65.5952 90.4655Z" fill="#683F1D"/>
<path d="M58.9489 97.4279C57.8212 98.0734 56.0698 98.0733 55.465 96.2873C54.8602 94.5013 56.5832 93.6052 57.5597 93.7807C58.763 94 59.4308 95.7547 58.9489 97.4279Z" fill="#FEBD9D"/>
<path d="M58.3473 95.7924C57.7992 94.7584 56.5612 94.5391 56.0352 95.9397" stroke="#EF8A66" stroke-width="0.75" stroke-linecap="round" stroke-linejoin="round"/>
<path d="M58.0417 95.3662C56.7029 94.7678 56.4352 97.0395 57.9787 96.4661" stroke="#EF8A66" stroke-width="0.75" stroke-linecap="round" stroke-linejoin="round"/>
<path d="M67.0001 90.074C66.4519 89.034 65.7477 88.0831 64.9117 87.254C63.554 88.0122 62.6437 87.3198 62.6437 87.3198C62.6437 87.3198 61.3207 88.7266 60.0859 88.3851C58.8511 88.0436 58.9424 87.1882 58.1644 86.9939C57.3863 86.7996 56.6366 87.6206 56.6366 87.8556C56.6366 88.0906 57.0398 88.2378 57.7801 89.9831C58.5203 91.7284 58.2998 94.1755 56.7878 94.4512C56.3059 94.539 53.8961 94.21 52.6928 92.402C52.6687 92.3722 52.6466 92.3408 52.6267 92.308C51.4517 90.4124 52.1384 89.0494 52.5385 88.548C52.9385 88.0467 53.5654 88.2692 53.6536 87.7929C54.1639 85.0826 56.6744 82.7514 59.3645 82.5007C62.0546 82.25 61.9696 83.2245 61.9696 83.2245C61.9696 83.2245 64.6565 83.0208 66.115 84.8664C66.2032 84.976 66.2851 85.0857 66.3575 85.1954C66.8451 85.9 67.1575 86.7096 67.2693 87.5577C67.381 88.4058 67.2887 89.2682 67.0001 90.074Z" fill="#7F542D"/>
<path d="M67.0002 90.074C66.4519 89.034 65.7477 88.0831 64.9117 87.254C63.5541 88.0123 62.6437 87.3198 62.6437 87.3198C62.6437 87.3198 61.3207 88.7267 60.0859 88.3852C58.8511 88.0436 58.9425 87.1882 58.1644 86.994C57.3864 86.7997 56.6367 87.6206 56.6367 87.8556C56.6367 88.0906 57.0399 88.2379 57.7801 89.9832C58.5204 91.7284 58.2999 94.1756 56.7879 94.4513C56.3059 94.539 53.8962 94.21 52.6929 92.4021C55.8429 91.8193 55.9468 90.1524 55.2727 87.4702C54.8317 85.703 58.1077 84.0486 59.9379 85.1735C61.0782 85.8785 64.2093 85.656 66.3576 85.1954C66.8451 85.9 67.1576 86.7097 67.2693 87.5578C67.381 88.4059 67.2888 89.2683 67.0002 90.074Z" fill="#704725"/>
<path d="M61.976 83.2276C60.8883 83.2245 59.8109 83.4376 58.8071 83.8542" stroke="#A56F42" stroke-width="0.75" stroke-linecap="round" stroke-linejoin="round"/>
<path d="M62.3159 85.1328C62.8136 85.2205 64.3823 86.5647 64.9115 87.2572C64.9115 87.2572 65.7904 87.8839 66.2156 86.994" stroke="#A56F42" stroke-width="0.75" stroke-linecap="round" stroke-linejoin="round"/>
<path d="M59.4399 85.9285C59.8778 85.5462 60.7314 85.6527 61.3299 86.3045C61.7125 86.7039 62.1506 87.0468 62.6309 87.3228" stroke="#A56F42" stroke-width="0.75" stroke-linecap="round" stroke-linejoin="round"/>
<path d="M63.7807 88.9868C63.6389 90.5535 64.1335 91.2898 64.8107 91.3306C65.488 91.3713 66.3858 91.5969 66.2157 92.6528" stroke="#EF8A66" stroke-width="0.75" stroke-linecap="round" stroke-linejoin="round"/>
<path d="M62.9995 94.658C63.9355 94.8188 64.8848 94.8912 65.8345 94.8742C65.8345 94.8742 65.5195 96.0774 64.3509 95.9395C64.0177 95.8971 63.7068 95.7499 63.4637 95.5194C63.2206 95.2888 63.0579 94.987 62.9995 94.658Z" fill="white" stroke="#EF8A66" stroke-width="0.75" stroke-linecap="round" stroke-linejoin="round"/>
<path d="M59.897 91.6501C59.897 92.0839 60.0263 92.508 60.2686 92.8687C60.5109 93.2294 60.8552 93.5105 61.2582 93.6765C61.6611 93.8425 62.1044 93.8859 62.5321 93.8013C62.9599 93.7167 63.3528 93.5078 63.6611 93.201C63.9695 92.8943 64.1795 92.5035 64.2646 92.078C64.3497 91.6526 64.306 91.2116 64.1391 90.8108C63.9722 90.41 63.6896 90.0674 63.327 89.8264C62.9644 89.5854 62.5381 89.4568 62.102 89.4568C61.5172 89.4568 60.9563 89.6879 60.5428 90.0992C60.1293 90.5105 59.897 91.0684 59.897 91.6501Z" stroke="#683F1D" stroke-miterlimit="10"/>
<path d="M64.1212 88.0719C64.0802 88.8552 66.2884 88.6985 66.3073 88.3601C66.3262 88.0217 64.1621 87.3261 64.1212 88.0719Z" fill="#7F542D"/>
<path d="M60.4291 89.9079C60.6559 90.3591 62.8231 89.1935 62.3191 88.3788C61.8151 87.5642 60.1172 89.3 60.4291 89.9079Z" fill="#7F542D"/>
<path d="M58.9486 97.428C58.3878 97.7564 57.73 97.8815 57.0869 97.782" stroke="#EF8A66" stroke-width="0.75" stroke-linecap="round" stroke-linejoin="round"/>
<path d="M45.5614 121.852C42.7799 125.873 40.5025 129.93 38.4518 133.665C33.3898 142.88 30.4949 149.586 24.2548 149.504C18.5627 149.426 17.9548 141.107 24.5918 127.571L22.916 126.02C22.916 126.02 27.7954 118.945 32.4889 111.838C36.7288 105.424 40.4395 100.775 47.5522 102.717C51.7511 103.873 50.5006 114.68 45.5614 121.852Z" fill="#FEBD9D"/>
<path d="M47.8074 117.814C47.1802 119.22 46.4286 120.569 45.5614 121.843C43.3564 125.02 41.4822 128.219 39.778 131.265C39.3213 132.073 38.8803 132.872 38.4519 133.656C36.4606 133.18 34.4964 132.598 32.5677 131.914C29.6098 130.82 26.6394 129.407 24.5698 127.574L22.894 126.023C22.894 126.023 23.4295 125.249 24.3115 123.961C26.0976 121.345 29.3232 116.601 32.4669 111.841C33.1914 110.742 33.9033 109.695 34.6183 108.724C38.0833 104.024 41.6365 101.11 47.5333 102.72C51.0298 103.692 50.7684 111.205 47.8074 117.814Z" fill="#FED81D"/>
<path d="M39.778 131.287C39.3212 132.095 38.8802 132.894 38.4518 133.678C34.0922 132.606 28.0568 130.67 24.5918 127.586L22.916 126.035C22.916 126.035 23.4515 125.261 24.3335 123.974C26.9197 126.765 30.3847 128.542 39.778 131.287Z" fill="white"/>
<path d="M47.8073 117.813C44.7077 112.308 41.9515 109.667 38.9149 108.833C37.5138 108.475 36.0498 108.435 34.6309 108.714C38.0959 104.014 41.6491 101.1 47.5459 102.711C51.0298 103.691 50.7683 111.205 47.8073 117.813Z" fill="#FFE05C"/>
<path d="M47.8261 117.776C47.1969 119.199 46.4388 120.563 45.5612 121.849C42.7798 125.869 40.5023 129.927 38.4517 133.662" stroke="#F7AD2B" stroke-width="0.75" stroke-linecap="round" stroke-linejoin="round"/>
<path d="M47.4419 112.249C48.0719 114.489 49.0704 115.529 47.0166 119.455" stroke="#F7AD2B" stroke-width="0.75" stroke-linecap="round" stroke-linejoin="round"/>
<path d="M20.4903 143.375C22.9064 137.582 31.7547 137.391 42.4395 141.267C53.1243 145.143 64.8707 149.025 66.6504 149.504C68.4302 149.984 68.0963 156.015 63.617 155.68C59.1377 155.345 42.197 156.805 32.2839 154.972C22.3709 153.139 18.8996 147.164 20.4903 143.375Z" fill="#FEBD9D"/>
<path d="M25.4736 139.198C28.3086 138.365 32.0319 138.487 36.2876 139.443" stroke="#EF8A66" stroke-width="0.75" stroke-linecap="round" stroke-linejoin="round"/>
<path d="M92.1466 149.683C96.8716 142.927 99.3097 116.256 99.3097 116.256C99.3097 116.256 104.05 114.063 104.838 113.533C105.625 113.004 107.156 110.353 107.421 109.56C107.421 109.56 108.75 108.752 108.709 108.307C108.668 107.862 108.18 107.862 108.18 107.862C108.18 107.862 108.495 106.85 106.778 107.135C106.697 107.029 106.588 106.948 106.462 106.902C106.337 106.855 106.201 106.845 106.07 106.872C105.559 106.931 99.4861 108.73 99.4861 108.73C99.4861 108.73 101.965 107.013 102.006 106.327C102.047 105.64 101.209 105.907 100.639 106.248C99.4841 106.925 98.2421 107.443 96.9472 107.787C96.3393 107.962 94.4272 109.485 92.701 112.778C90.9748 116.071 80.8444 137.754 79.7388 140.687C76.1226 150.331 84.2811 160.891 92.1466 149.683Z" fill="#FEBD9D"/>
<path d="M83.3739 132.518C81.5847 136.454 80.1199 139.687 79.7388 140.687" stroke="#EF8A66" stroke-width="0.75" stroke-linecap="round" stroke-linejoin="round"/>
<path d="M104.838 113.533C105.629 113.007 107.156 110.353 107.421 109.56C107.421 109.56 108.75 108.752 108.709 108.307C108.668 107.862 108.18 107.862 108.18 107.862C108.18 107.862 108.495 106.85 106.778 107.135C106.697 107.029 106.588 106.948 106.462 106.902C106.337 106.855 106.201 106.845 106.07 106.872C105.559 106.931 99.4862 108.73 99.4862 108.73C99.4862 108.73 101.965 107.013 102.006 106.327C102.047 105.64 101.209 105.907 100.639 106.248C99.4842 106.925 98.2422 107.443 96.9473 107.787" stroke="#EF8A66" stroke-width="0.75" stroke-linecap="round" stroke-linejoin="round"/>
<path d="M99.486 108.727L98.541 109.372C98.541 109.372 99.3159 111.086 97.4102 112.506" stroke="#EF8A66" stroke-width="0.75" stroke-linecap="round" stroke-linejoin="round"/>
<path d="M101.137 109.72L106.778 107.135" stroke="#EF8A66" stroke-width="0.75" stroke-linecap="round" stroke-linejoin="round"/>
<path d="M103.288 111.616C103.335 111.584 104.999 110.804 104.999 110.804C104.999 110.804 106.709 108.153 107.163 108.019C107.616 107.884 108.136 108.103 107.421 109.56" stroke="#EF8A66" stroke-width="0.75" stroke-linecap="round" stroke-linejoin="round"/>
<path d="M102.06 110.619L106.964 108.153" stroke="#EF8A66" stroke-width="0.75" stroke-linecap="round" stroke-linejoin="round"/>
<path d="M108.18 107.862L107.547 108.016" stroke="#EF8A66" stroke-width="0.75" stroke-linecap="round" stroke-linejoin="round"/>
<path d="M88.9619 141.207C86.1773 149.529 81.3168 161.433 81.3168 161.433L48.8435 168.761L26.3462 163.46V161.827L52.0659 156.432C53.9181 151.763 56.2806 142.874 57.4493 142.645C59.3613 142.269 86.0985 138.127 88.1177 138.074C90.0266 138.02 89.5667 139.399 88.9619 141.207Z" fill="#F9F9F9" stroke="#DDDDDD" stroke-linecap="round" stroke-linejoin="round"/>
<path d="M52.0662 156.432L48.5508 165.662" stroke="#DDDDDD" stroke-linecap="round" stroke-linejoin="round"/>
<path d="M48.8939 166.966L48.8435 168.761L26.3462 163.46V161.827L48.8939 166.966Z" fill="#EDEDED" stroke="#DDDDDD" stroke-linecap="round" stroke-linejoin="round"/>
<path d="M170.944 135.382C170.919 135.667 170.897 135.949 170.875 136.225C170.062 145.311 169.164 149.977 168.641 152.12L167.595 152.039C166.1 151.922 164.595 151.812 163.078 151.71C154.35 151.105 145.382 150.669 136.354 150.378C133.769 150.294 131.177 150.222 128.58 150.162C130.47 146.251 132.826 139.045 134.772 132.615C135.034 131.732 135.295 130.867 135.541 130.024C135.751 129.322 135.951 128.641 136.14 127.981C136.165 127.887 136.193 127.793 136.221 127.699C136.25 127.605 136.288 127.461 136.325 127.342C136.41 127.047 136.492 126.75 136.577 126.452C136.622 126.314 136.659 126.176 136.697 126.038C136.76 125.822 136.82 125.606 136.88 125.393C136.94 125.18 136.987 125.023 137.037 124.844C137.116 124.566 137.192 124.29 137.267 124.027C137.311 123.857 137.362 123.691 137.403 123.532L137.718 122.444C137.756 122.319 137.784 122.203 137.812 122.097C137.875 121.88 137.922 121.702 137.963 121.57C137.963 121.539 137.979 121.507 137.985 121.482C137.992 121.457 138.001 121.426 138.008 121.401C138.008 121.387 138.008 121.374 138.008 121.36V121.319C138.036 121.21 138.064 121.11 138.089 121.006L138.203 120.589C138.373 119.963 138.464 119.627 138.464 119.627C137.907 119.849 137.302 119.926 136.707 119.853C133.979 119.649 129.975 117.578 129.496 114.84C129.486 114.786 129.478 114.731 129.474 114.677C129.459 114.573 129.451 114.468 129.449 114.363C129.449 113.505 129.749 112.674 130.296 112.01C133.541 107.721 135.67 106.211 137.796 105.465C138.052 105.38 138.3 105.302 138.556 105.23C140.953 104.575 148.302 104.07 148.302 104.07C149.187 102.817 150.923 98.6247 151.808 94.4981C152.825 89.7449 156.633 89.0242 158.656 91.6781C159.415 92.6714 159.916 94.1347 159.944 96.0335C159.966 98.396 160.004 101.276 160.026 103.002C160.042 103.942 160.051 104.528 160.051 104.528C160.051 104.528 163.626 103.19 169.35 103.109C170.563 103.093 171.75 103.378 172.629 104.18C173.927 105.365 175.149 107.743 176.252 110.625C178.879 117.5 180.81 127.232 181.44 130.754C182.274 135.62 170.944 135.382 170.944 135.382Z" fill="#C3DCF8"/>
<path d="M173.313 128.93C170.497 129.566 167.563 129.448 164.808 128.589C161.866 129.902 151.055 131.923 143.819 131.233C136.584 130.544 136.275 128.012 136.275 128.012L136.127 127.978C136.993 124.985 138.017 121.316 138.017 121.316C138.017 121.316 138.464 121.407 139.277 121.536C146.269 122.545 153.385 122.301 160.291 120.815C160.291 120.815 165.961 122.407 171.612 121.229L173.313 128.93Z" fill="#83ADDF"/>
<path d="M173.924 131.703C173.924 131.703 164.131 133.082 155.654 134.417C147.177 135.752 138.329 135.043 134.779 132.612L135.551 130.018C138.726 132.759 143.215 133.442 151.373 133.098C159.532 132.753 164.691 130.318 164.691 130.318C168.919 131.437 172.103 130.945 173.675 130.519L173.924 131.703Z" fill="#83ADDF"/>
<path d="M176.268 110.635C171.835 110.3 166.48 112.402 162.026 116.353C158.171 119.769 150.727 124.099 145.114 118.547C143.977 117.436 142.651 116.535 141.199 115.883C137.844 114.367 133.717 113.915 129.465 114.367C129.465 113.508 129.765 112.677 130.312 112.014C133.557 107.724 135.686 106.214 137.812 105.468C138.067 105.383 138.316 105.305 138.571 105.233C140.969 104.578 148.318 104.074 148.318 104.074C149.203 102.82 150.938 98.6279 151.824 94.5013C152.841 89.7481 156.649 89.0274 158.672 91.6813C159.431 92.6746 159.932 94.1378 159.96 96.0366C159.982 98.3992 160.02 101.279 160.042 103.005C160.058 103.945 160.067 104.531 160.067 104.531C160.067 104.531 163.642 103.193 169.366 103.112C170.579 103.096 171.766 103.381 172.645 104.183C173.943 105.374 175.165 107.752 176.268 110.635Z" fill="#D0E5F7"/>
<path d="M170.875 136.225C170.062 145.311 169.164 149.977 168.642 152.12L167.596 152.039C166.101 151.922 164.595 151.812 163.079 151.71C154.35 151.105 145.382 150.669 136.354 150.378C139.621 146.963 145.568 145.593 149.404 147.523C153.711 149.689 160.744 147.655 158.892 142.46C157.793 139.38 158.483 135.701 164.679 133.113L170.875 136.225Z" fill="#A7CAF0"/>
<path d="M172.645 104.189C170.802 104.481 168.361 105.49 165.372 106.602C164.319 106.994 163.204 107.398 162.026 107.787C158.21 109.097 154.234 109.888 150.204 110.137C148.693 110.226 147.178 110.214 145.668 110.102C144.511 110.025 143.366 109.815 142.257 109.475C139.885 108.711 138.562 107.36 137.809 105.48C138.064 105.396 138.316 105.318 138.571 105.245C139.652 104.951 141.747 104.688 143.712 104.484C144.956 104.352 146.157 104.252 147.017 104.186C147.81 104.121 148.317 104.086 148.317 104.086C149.203 102.833 150.938 98.6404 151.823 94.5138C152.841 89.7605 156.649 89.0398 158.672 91.6938C159.431 92.687 159.932 94.1503 159.96 96.0491C159.982 98.4116 160.02 101.291 160.042 103.018C160.058 103.958 160.067 104.544 160.067 104.544C160.921 104.251 161.793 104.017 162.678 103.842C163.535 103.66 164.587 103.481 165.806 103.343C166.988 103.211 168.176 103.138 169.366 103.124C170.546 103.116 171.697 103.49 172.645 104.189Z" fill="#B25E47"/>
<path d="M160.042 103.011C157.015 102.833 154.435 100.392 155.074 97.2836C155.789 93.8088 157.15 92.1575 158.672 91.6875C159.431 92.6808 159.932 94.144 159.96 96.0428C159.982 98.4054 160.02 101.285 160.042 103.011Z" fill="#914839"/>
<path d="M165.806 103.337C165.565 104.41 165.42 105.503 165.375 106.602C164.322 106.994 163.207 107.398 162.029 107.786C162.081 106.448 162.3 105.12 162.681 103.835C163.535 103.654 164.587 103.475 165.806 103.337Z" fill="#FED81D"/>
<path d="M147.016 104.183C146.364 106.105 145.912 108.088 145.668 110.102C144.511 110.025 143.366 109.815 142.257 109.476C142.583 107.77 143.07 106.099 143.712 104.484C144.956 104.34 146.16 104.249 147.016 104.183Z" fill="#FED81D"/>
<path d="M175.486 141.962C175.152 145.177 174.541 148.373 173.48 150.607C172.825 151.982 171.996 152.988 170.944 153.408C168.83 154.257 167.013 154.035 165.564 153.236C162.968 151.81 161.563 148.567 161.784 146.464C161.784 146.364 161.803 146.251 161.815 146.151C161.841 145.838 161.863 145.503 161.885 145.127C161.885 145.004 161.885 144.876 161.91 144.744C161.91 144.719 161.91 144.694 161.91 144.666C161.91 144.572 161.91 144.475 161.91 144.378C161.91 144.205 161.929 144.024 161.935 143.845C161.941 143.666 161.935 143.563 161.954 143.416C161.954 143.366 161.954 143.315 161.954 143.265C161.954 143.119 161.96 142.969 161.973 142.814C161.973 142.657 161.973 142.501 161.995 142.335C161.995 141.978 162.02 141.617 162.033 141.241C162.045 140.865 162.055 140.574 162.067 140.232C162.067 140.085 162.067 139.938 162.067 139.794C162.096 139.001 162.118 138.177 162.143 137.34C162.159 136.814 162.174 136.281 162.193 135.745L162.212 135.084L162.241 134.179L162.259 133.552C162.259 133.189 162.288 132.831 162.297 132.474C162.316 131.957 162.335 131.443 162.354 130.939C162.354 130.607 162.382 130.278 162.395 129.952C162.42 129.341 162.448 128.755 162.477 128.188L175.801 130.033C175.963 134.012 175.858 137.997 175.486 141.962Z" fill="#C3DCF8"/>
<path d="M162.499 128.153C162.184 134.176 162.086 143.193 161.765 146.458" stroke="#83ADDF" stroke-width="0.75" stroke-linecap="round" stroke-linejoin="round"/>
<path d="M175.486 141.962C175.153 145.177 174.541 148.373 173.48 150.607C172.825 151.982 171.996 152.988 170.944 153.408C168.831 154.257 167.013 154.035 165.564 153.236C166.312 152.903 167.101 152.671 167.911 152.543C171.448 151.945 170.333 147.618 171.87 144.613C172.491 143.413 173.54 142.419 175.486 141.962Z" fill="#A7CAF0"/>
<path d="M142.726 159.847C141.826 160.63 141.23 163.92 143.401 166.546C145.571 169.172 147.694 167.486 147.694 167.486C147.694 167.486 150.806 164.82 148.639 160.853C146.472 156.886 142.726 159.847 142.726 159.847Z" fill="#83ADDF"/>
<path d="M147.445 159.214C145.164 160.308 143.542 161.044 143.133 161.016C142.723 160.987 138.902 161.454 137.803 161.783C136.704 162.112 134.206 164.732 134.451 165.114C134.697 165.496 135.661 165.427 135.661 165.427C135.661 165.427 131.881 168.188 131.512 169.187C131.144 170.187 132.284 169.952 132.284 169.952C131.695 170.265 130.885 171.938 132.942 171.318C132.448 171.631 132.149 172.556 133.547 172.22C135.579 171.729 138.902 170.362 138.902 170.362C138.902 170.362 136.593 172.083 135.661 172.521C134.728 172.96 134.672 173.969 136.678 173.395C138.685 172.822 142.581 170.118 143.923 169.159C145.265 168.2 146.56 167.386 146.862 167.195C147.165 167.003 150.05 165.691 150.05 165.691C150.05 165.691 152.854 158.669 147.445 159.214Z" fill="#B25E47"/>
<path d="M135.661 165.44C137.062 164.456 139.012 163.021 139.425 162.974" stroke="#934735" stroke-width="0.75" stroke-linecap="round" stroke-linejoin="round"/>
<path d="M132.3 169.977C132.357 169.823 137.951 166.251 137.951 166.251" stroke="#934735" stroke-width="0.75" stroke-linecap="round" stroke-linejoin="round"/>
<path d="M132.93 171.343C132.958 171.168 138.663 168.31 138.663 168.31" stroke="#934735" stroke-width="0.75" stroke-linecap="round" stroke-linejoin="round"/>
<path d="M137.803 161.783C136.704 162.097 134.206 164.732 134.451 165.114C134.697 165.496 135.661 165.428 135.661 165.428C135.661 165.428 131.881 168.188 131.512 169.188C131.144 170.187 132.284 169.952 132.284 169.952C131.695 170.265 130.885 171.939 132.942 171.318C132.448 171.632 132.149 172.556 133.547 172.221C135.579 171.729 138.902 170.363 138.902 170.363C138.902 170.363 136.593 172.083 135.661 172.521C134.728 172.96 134.672 173.969 136.678 173.396C137.167 173.242 137.641 173.047 138.096 172.813" stroke="#934735" stroke-width="0.75" stroke-linecap="round" stroke-linejoin="round"/>
<path d="M173.48 150.607C172.96 152.982 167.101 156.917 161.1 160.392C154.58 164.152 147.892 167.395 147.694 167.489C149.118 165.23 148.818 159.12 142.729 159.838C142.729 159.838 158.735 148.558 161.743 146.114C161.761 146.097 161.782 146.083 161.803 146.07C165.23 143.325 169.492 142.824 171.883 144.613C173.347 145.728 174.1 147.721 173.48 150.607Z" fill="#C3DCF8"/>
<path d="M173.48 150.607C172.96 152.982 167.101 156.917 161.1 160.392C161.847 156.946 162.833 154.477 165.557 153.236C166.306 152.903 167.095 152.671 167.904 152.543C171.442 151.945 170.326 147.618 171.864 144.613C173.347 145.728 174.1 147.721 173.48 150.607Z" fill="#A7CAF0"/>
<path d="M156.467 150.046C158.858 148.313 160.861 146.834 161.746 146.12C163.017 145.077 164.495 144.313 166.084 143.876" stroke="#83ADDF" stroke-width="0.75" stroke-linecap="round" stroke-linejoin="round"/>
<path d="M141.198 115.88C140.669 117.8 140.03 119.689 139.283 121.536C138.396 123.744 137.398 125.905 136.291 128.012C136.028 128.52 135.756 129.027 135.475 129.532C135.434 129.61 135.39 129.692 135.343 129.77C134.987 130.416 134.612 131.061 134.231 131.7C133.197 133.43 132.207 135.021 131.26 136.472C129.825 138.724 128.232 140.872 126.494 142.902C123.3 146.54 120.509 148.116 117.778 147.602C117.253 147.501 116.743 147.335 116.26 147.107C115.731 146.865 115.257 146.517 114.868 146.086C114.48 145.655 114.183 145.149 113.998 144.6C113.819 144.094 113.705 143.568 113.658 143.034C113.453 140.919 114.033 138.193 115.283 135.075C115.997 133.329 116.816 131.628 117.734 129.98C117.999 129.504 118.273 129.04 118.553 128.545C119.46 127.003 120.484 125.412 121.609 123.795C121.725 123.632 121.835 123.482 121.946 123.309C122.317 122.777 122.679 122.254 123.029 121.743L124.103 120.176C124.185 120.057 124.264 119.938 124.346 119.822C125.631 117.942 126.797 116.209 127.887 114.655L127.937 114.58L128.567 113.699C132.199 108.623 135.018 105.622 138.578 105.239C142.44 104.838 142.928 109.463 141.198 115.88Z" fill="#C3DCF8"/>
<path d="M141.198 115.88C137.444 114.169 132.722 113.828 127.931 114.58L128.561 113.699C132.193 108.623 135.012 105.622 138.571 105.239C142.44 104.838 142.928 109.463 141.198 115.88Z" fill="#D0E5F7"/>
<path d="M138.477 119.634C139.485 115.695 139.668 114.216 139.668 114.216" stroke="#83ADDF" stroke-width="0.75" stroke-linecap="round" stroke-linejoin="round"/>
<path d="M139.283 121.536C138.396 123.744 137.398 125.905 136.291 128.012C136.291 128.012 128.52 127.044 124.343 119.822C125.628 117.942 126.793 116.209 127.883 114.655C129.118 116.626 132.224 120.085 139.283 121.536Z" fill="#83ADDF"/>
<path d="M136.14 127.978C137.006 124.986 137.715 122.473 138.102 121.012L138.215 120.596C138.386 119.969 138.477 119.634 138.477 119.634" stroke="#83ADDF" stroke-width="0.75" stroke-linecap="round" stroke-linejoin="round"/>
<path d="M135.472 129.532L135.339 129.764L134.227 131.694C134.227 131.694 124.884 129.858 121.942 123.309C122.314 122.777 122.675 122.254 123.026 121.743C127.275 128.445 135.472 129.532 135.472 129.532Z" fill="#83ADDF"/>
<path d="M129.32 131.96C129.32 131.96 128.838 135.842 126.863 141.88C126.75 142.231 126.627 142.57 126.491 142.905C124.916 146.881 122.107 149.845 119.328 150.857C118.357 151.241 117.293 151.331 116.27 151.117C112.515 150.259 110.83 147.195 111.844 141.88C112.297 139.499 113.545 137.205 115.277 135.084C116.267 133.886 117.352 132.769 118.522 131.744C120.008 130.439 121.587 129.243 123.247 128.166L129.32 131.96Z" fill="#C3DCF8"/>
<path d="M119.328 150.857C118.357 151.241 117.293 151.331 116.27 151.118C112.515 150.259 110.83 147.195 111.844 141.88C112.297 139.499 113.545 137.206 115.277 135.084C116.267 133.886 117.352 132.769 118.522 131.744C118.83 132.698 118.88 133.716 118.664 134.695C118.449 135.675 117.977 136.579 117.297 137.318C115.611 139.198 113.863 141.301 113.652 143.043C113.568 143.589 113.689 144.147 113.992 144.61C114.295 145.038 114.704 145.382 115.18 145.606C116.16 146.112 117.039 146.793 117.772 147.614C118.667 148.623 119.243 149.773 119.328 150.857Z" fill="#A7CAF0"/>
<path d="M126.863 141.883C127.329 140.455 127.714 139.151 128.026 137.986" stroke="#83ADDF" stroke-width="0.75" stroke-linecap="round" stroke-linejoin="round"/>
<path d="M120.04 130.475C115.967 133.702 112.647 137.647 111.85 141.884" stroke="#83ADDF" stroke-width="0.75" stroke-linecap="round" stroke-linejoin="round"/>
<path d="M122.022 131.349C121.077 132.982 119.732 135.736 120.866 137.525C122 139.314 124.463 139.718 126.344 137.989C128.224 136.259 129.179 134.542 129.32 132.687L122.022 131.349Z" fill="#83ADDF"/>
<path d="M124.876 127.736C124.469 127.244 125.506 126.583 126.258 127.047C127.014 127.531 127.833 127.907 128.693 128.166C129.323 128.304 129.72 129.908 129.43 130.202C129.43 130.202 125.37 128.319 124.876 127.736Z" fill="#B25E47"/>
<path d="M128.693 128.153C129.323 128.291 129.72 129.895 129.43 130.19" stroke="#934735" stroke-width="0.75" stroke-linecap="round" stroke-linejoin="round"/>
<path d="M116.301 124.08C115.451 123.55 116.336 122.015 117.19 122.369C118.043 122.723 130.782 130.973 130.782 130.973L131.727 132.54L129.837 132.289C129.837 132.289 117.01 124.534 116.301 124.08Z" fill="#683F1D"/>
<path d="M121.981 129.027C121.779 127.824 123.367 127.505 124.151 128.065C124.935 128.626 127.704 129.905 128.608 130.202C129.512 130.5 130.079 131.622 129.516 132.013C129.516 132.013 130.079 132.812 129.418 133.179C129.125 133.363 128.807 133.503 128.473 133.593C128.473 133.593 128.744 134.454 126.687 135.354C126.687 135.354 126.372 136.607 125.266 136.92C124.161 137.234 122.116 136.992 121.641 136.607C121.165 136.222 120.929 135.04 121.395 134.608C121.395 134.608 120.214 134.056 120.425 133.192C120.708 132.026 121.515 132.364 121.272 131.904C121.029 131.443 120.642 130.575 121.247 130.215C121.852 129.855 122.091 129.673 121.981 129.027Z" fill="#B25E47"/>
<path d="M128.608 130.202C129.515 130.5 130.079 131.622 129.515 132.013C129.515 132.013 130.079 132.812 129.418 133.179C129.125 133.363 128.807 133.503 128.473 133.593C128.473 133.593 128.744 134.454 126.687 135.354C126.687 135.354 126.372 136.607 125.266 136.92" stroke="#934735" stroke-width="0.75" stroke-linecap="round" stroke-linejoin="round"/>
<path d="M122.33 132.518C123.893 133.099 125.519 133.499 127.175 133.709C127.614 133.707 128.052 133.668 128.485 133.593" stroke="#934735" stroke-width="0.75" stroke-linecap="round" stroke-linejoin="round"/>
<path d="M129.515 132.014C129.515 132.014 127.216 132.079 126.728 132.014C126.296 131.954 123.004 130.66 123.004 130.66" stroke="#934735" stroke-width="0.75" stroke-linecap="round" stroke-linejoin="round"/>
<path d="M122.941 135.084C122.941 135.084 125.37 135.57 126.699 135.354" stroke="#934735" stroke-width="0.75" stroke-linecap="round" stroke-linejoin="round"/>
<path d="M152.362 85.3488C151.624 86.662 150.559 87.7646 149.269 88.5511C147.08 89.911 145.231 88.8895 144.443 87.8492C144.153 87.4607 144.16 86.4048 144.383 85.2141C144.765 83.1994 145.766 80.7867 146.998 80.5141C147.711 80.3447 148.454 80.3361 149.171 80.489C149.888 80.6419 150.562 80.9524 151.143 81.3977C151.343 81.5508 151.522 81.7287 151.676 81.9272C152.504 82.98 152.529 83.0333 152.362 85.3488Z" fill="#FFEACC"/>
<path d="M152.362 85.3489C151.624 86.6621 150.559 87.7646 149.269 88.5512C147.08 89.9111 145.231 88.8896 144.443 87.8493C144.153 87.4608 144.16 86.4049 144.383 85.2142C145.451 87.0942 147.332 87.8431 148.072 87.2415C149.124 86.3798 147.524 82.1843 151.143 81.3853C151.343 81.5383 151.522 81.7163 151.676 81.9148C152.504 82.9801 152.529 83.0334 152.362 85.3489Z" fill="#EDD6B7"/>
<path d="M149.625 85.8533C150.23 85.6966 150.365 84.3368 149.783 84.249C149.2 84.1613 148.746 85.117 148.888 85.8533C148.976 86.3202 149.332 86.6429 150.431 86.3797" stroke="#C6AB8B" stroke-width="0.75" stroke-linecap="round" stroke-linejoin="round"/>
<path d="M148.995 87.3229C146.528 87.2665 145.612 86.8027 145.426 85.7061C145.24 84.6094 145.13 82.7607 145.13 82.7607" stroke="#C6AB8B" stroke-width="0.75" stroke-linecap="round" stroke-linejoin="round"/>
<path d="M147.7 87.2382C147.056 86.6968 146.613 85.9567 146.44 85.1357C146.239 83.8824 147.244 82.2092 147.924 82.1309C149.099 81.9993 151.704 83.0019 151.496 85.0292" stroke="#C6AB8B" stroke-width="0.75" stroke-linecap="round" stroke-linejoin="round"/>
<path d="M161.721 98.9036C159.365 100.007 155.081 98.9036 152.633 96.2591C149.571 92.9471 152.198 85.6057 155.695 84.5655C159.191 83.5252 161.003 87.2069 162.026 90.1616L162.045 90.2243C162.311 91.0008 162.531 91.7917 162.707 92.5931C163.258 95.0935 163.441 98.0983 161.721 98.9036Z" fill="#B25E47"/>
<path d="M152.532 91.3366C152.346 91.9821 153.288 92.8187 154.64 93.2166C155.991 93.6145 157.232 93.3858 157.418 92.7372C157.604 92.0886 156.662 91.252 155.314 90.8572C153.965 90.4624 152.718 90.688 152.532 91.3366Z" fill="#A0503D"/>
<path d="M162.707 92.5932C162.03 92.8783 161.428 92.8877 161.148 92.5587C160.748 92.0824 161.148 91.0829 162.046 90.2244C162.311 91.0009 162.532 91.7918 162.707 92.5932Z" fill="#A0503D"/>
<path d="M159.749 89.5193C159.748 89.61 159.775 89.6989 159.825 89.7746C159.876 89.8503 159.947 89.9094 160.031 89.9445C160.116 89.9795 160.208 89.9888 160.298 89.9712C160.387 89.9537 160.47 89.9101 160.534 89.8459C160.599 89.7817 160.642 89.6999 160.66 89.6109C160.678 89.5219 160.668 89.4296 160.633 89.3459C160.598 89.2622 160.539 89.1908 160.462 89.1407C160.386 89.0907 160.297 89.0643 160.206 89.065C160.085 89.0658 159.969 89.1139 159.884 89.1989C159.798 89.284 159.75 89.399 159.749 89.5193Z" fill="#683F1D"/>
<path d="M157.185 90.1648C157.185 90.2554 157.212 90.3439 157.263 90.4192C157.313 90.4945 157.385 90.5532 157.47 90.5877C157.554 90.6222 157.647 90.6311 157.736 90.6132C157.825 90.5953 157.907 90.5514 157.971 90.4871C158.035 90.4228 158.079 90.341 158.096 90.2521C158.114 90.1631 158.104 90.071 158.069 89.9875C158.034 89.904 157.974 89.8327 157.898 89.7829C157.822 89.733 157.733 89.7067 157.642 89.7073C157.582 89.7073 157.522 89.7191 157.466 89.7422C157.411 89.7652 157.36 89.7989 157.318 89.8415C157.275 89.884 157.242 89.9344 157.219 89.9899C157.196 90.0454 157.185 90.1048 157.185 90.1648Z" fill="#683F1D"/>
<path d="M156.032 92.12C156.032 92.1628 156.045 92.2046 156.069 92.2401C156.093 92.2757 156.127 92.3034 156.166 92.3198C156.206 92.3361 156.25 92.3404 156.292 92.3321C156.334 92.3237 156.373 92.3031 156.403 92.2729C156.434 92.2427 156.454 92.2041 156.463 92.1622C156.471 92.1202 156.467 92.0768 156.45 92.0373C156.434 91.9978 156.406 91.964 156.37 91.9403C156.335 91.9165 156.293 91.9038 156.25 91.9038C156.192 91.9038 156.137 91.9266 156.096 91.9671C156.055 92.0077 156.032 92.0627 156.032 92.12Z" fill="#914839"/>
<path d="M156.971 91.4619C157.091 91.4619 157.188 91.3651 157.188 91.2457C157.188 91.1263 157.091 91.0295 156.971 91.0295C156.851 91.0295 156.753 91.1263 156.753 91.2457C156.753 91.3651 156.851 91.4619 156.971 91.4619Z" fill="#914839"/>
<path d="M157.188 92.2454C157.308 92.2454 157.405 92.1486 157.405 92.0292C157.405 91.9098 157.308 91.813 157.188 91.813C157.068 91.813 156.971 91.9098 156.971 92.0292C156.971 92.1486 157.068 92.2454 157.188 92.2454Z" fill="#914839"/>
<path d="M157.771 91.4621C157.771 91.5048 157.784 91.5466 157.808 91.5822C157.832 91.6177 157.865 91.6454 157.905 91.6618C157.945 91.6782 157.989 91.6824 158.031 91.6741C158.073 91.6658 158.112 91.6452 158.142 91.6149C158.172 91.5847 158.193 91.5462 158.202 91.5042C158.21 91.4623 158.206 91.4188 158.189 91.3793C158.173 91.3398 158.145 91.306 158.109 91.2823C158.073 91.2585 158.031 91.2458 157.988 91.2458C157.931 91.2458 157.875 91.2686 157.835 91.3092C157.794 91.3497 157.771 91.4047 157.771 91.4621Z" fill="#914839"/>
<path d="M161.331 90.6537C161.331 90.6965 161.343 90.7383 161.367 90.7738C161.391 90.8094 161.425 90.8371 161.465 90.8534C161.504 90.8698 161.548 90.8741 161.59 90.8657C161.632 90.8574 161.671 90.8368 161.702 90.8066C161.732 90.7763 161.753 90.7378 161.761 90.6959C161.769 90.6539 161.765 90.6105 161.749 90.571C161.732 90.5315 161.704 90.4977 161.669 90.4739C161.633 90.4502 161.591 90.4375 161.548 90.4375C161.49 90.4375 161.435 90.4603 161.394 90.5008C161.353 90.5414 161.331 90.5964 161.331 90.6537Z" fill="#914839"/>
<path d="M160.767 90.5471C160.887 90.5471 160.984 90.4504 160.984 90.3309C160.984 90.2115 160.887 90.1147 160.767 90.1147C160.647 90.1147 160.549 90.2115 160.549 90.3309C160.549 90.4504 160.647 90.5471 160.767 90.5471Z" fill="#914839"/>
<path d="M164.096 90.0394C163.831 90.3527 163.51 90.5094 163.368 90.3527C163.091 90.0582 163.888 89.5944 163.368 89.0618C162.848 88.5291 161.529 88.8456 161.529 88.8456C159.61 83.8573 156.703 84.014 154.977 84.8725C153.25 85.731 153.087 87.2319 153.061 88.1312C153.036 89.0304 153.03 89.3375 154.321 90.0582C155.613 90.7788 154.41 91.9068 154.202 92.7998C153.994 93.6928 154.945 93.4265 155.462 94.3164C155.978 95.2062 154.942 95.6418 154.986 95.2564C155.03 94.871 154.671 94.3759 154.303 94.4605C153.934 94.5451 153.194 94.2725 153.159 93.8338C153.124 93.3952 152.844 92.3706 152.378 92.2202C150.749 91.6875 149.902 93.251 150.126 94.473C150.199 94.8371 150.355 95.1795 150.582 95.474C150.809 95.7684 151.101 96.007 151.436 96.1713C151.436 96.1713 150.491 96.635 148.9 94.6986C148.559 94.28 148.319 93.789 148.198 93.2636C147.735 91.3397 148.68 88.9866 149.581 87.5828C150.724 85.7906 151.175 85.7028 151.175 85.7028C151.706 84.4926 152.502 83.4156 153.506 82.5507C155.229 81.0185 156.753 82.3094 156.753 82.3094C158.413 81.1564 160.391 81.6201 160.958 82.6917C161.525 83.7633 161.308 85.4459 161.396 85.9974C161.485 86.5488 161.916 87.4794 162.971 87.4794C164.027 87.4794 164.43 87.8774 164.496 88.8393C164.52 89.2753 164.377 89.7042 164.096 90.0394Z" fill="#FFEACC"/>
<path d="M164.096 90.0394C163.832 90.3527 163.51 90.5094 163.369 90.3527C163.091 90.0582 163.888 89.5945 163.369 89.0618C162.849 88.5291 161.529 88.8456 161.529 88.8456C159.611 83.8573 156.703 84.014 154.977 84.8725C153.251 85.7311 153.087 87.2319 153.062 88.1312C153.037 89.0305 153.03 89.3375 154.322 90.0582C155.613 90.7789 154.41 91.9069 154.202 92.7999C153.994 93.6929 154.946 93.4265 155.462 94.3164C155.979 95.2063 154.942 95.6418 154.986 95.2564C155.031 94.871 154.671 94.3759 154.303 94.4605C153.934 94.5451 153.194 94.2725 153.159 93.8339C153.125 93.3952 152.911 92.5398 152.372 92.3205C150.712 91.6405 149.981 93.2605 150.205 94.4731C150.288 94.8436 150.458 95.1891 150.703 95.4807C150.947 95.7723 151.258 96.0016 151.61 96.1494C151.61 96.1494 150.784 97.0267 148.901 94.6987C148.561 94.2789 148.321 93.7884 148.198 93.2636C149.824 91.7878 149.742 90.2995 150.828 89.9767C152.158 89.5819 151.985 86.9531 153.515 84.3837C155.046 81.8144 157.632 83.6349 158.272 84.2427C158.272 84.2427 160.121 83.3027 160.672 85.7029C161.223 88.103 162.465 88.4696 163.302 88.3881C163.8 88.338 164.213 89.1965 164.096 90.0394Z" fill="#EDD6B7"/>
<path d="M152.362 90.6035C152.97 90.6975 153.273 91.5968 152.942 92.9567" stroke="#C6AB8B" stroke-width="0.75" stroke-linecap="round" stroke-linejoin="round"/>
<path d="M153.213 86.4989C154.085 84.0267 154.492 83.8387 154.753 83.6789C155.229 83.3938 156.294 83.7071 156.294 83.7071" stroke="#C6AB8B" stroke-width="0.75" stroke-linecap="round" stroke-linejoin="round"/>
<path d="M156.753 82.3096C157.287 82.7646 157.791 83.2534 158.262 83.7728" stroke="#C6AB8B" stroke-width="0.75" stroke-linecap="round" stroke-linejoin="round"/>
<path d="M150.148 93.3732C149.276 92.0948 148.403 89.2717 149.975 86.9812" stroke="#C6AB8B" stroke-width="0.75" stroke-linecap="round" stroke-linejoin="round"/>
<path d="M151.017 92.2953C150.387 91.0013 149.896 88.5134 151.175 85.7153" stroke="#C6AB8B" stroke-width="0.75" stroke-linecap="round" stroke-linejoin="round"/>
<path d="M159.021 88.3882C158.628 89.8483 159.207 90.4405 159.897 90.6191C160.587 90.7977 161.138 91.1487 161.059 91.7565" stroke="#934735" stroke-width="0.75" stroke-linecap="round" stroke-linejoin="round"/>
<path d="M155.093 88.9866C155.408 89.3 157.298 88.0717 156.813 87.3479C156.328 86.6241 154.634 88.548 155.093 88.9866Z" fill="#FFEACC"/>
<path d="M158.536 86.9061C158.536 87.6424 160.426 87.2445 160.391 87.0033C160.335 86.5677 158.533 86.2324 158.536 86.9061Z" fill="#FFEACC"/>
<path d="M158.483 92.8562C158.767 93.1292 159.121 93.3178 159.507 93.4009C159.893 93.4839 160.294 93.4581 160.666 93.3262" stroke="#934735" stroke-width="0.75" stroke-linecap="round" stroke-linejoin="round"/>
<path d="M153.506 94.3134V96.1308C152.894 96.3351 152.233 96.3438 151.616 96.1558H151.584C151.155 96.0079 150.781 95.7336 150.512 95.3692C150.243 95.0049 150.092 94.5678 150.078 94.116C150.058 93.8225 150.106 93.5282 150.219 93.2563C150.332 92.9844 150.507 92.7424 150.731 92.5494C150.879 92.4232 151.049 92.3235 151.231 92.2548C151.61 92.156 152.011 92.1926 152.365 92.3582C152.901 92.5776 153.115 93.4173 153.153 93.8716C153.173 93.9676 153.215 94.0575 153.276 94.1343C153.338 94.211 153.416 94.2723 153.506 94.3134Z" fill="#B25E47"/>
<path d="M150.819 93.9027C151.005 93.4296 152.239 92.9032 152.822 94.1941" stroke="#934735" stroke-width="0.75" stroke-linecap="round" stroke-linejoin="round"/>
<path d="M152.728 94.0001C151.376 93.2199 150.819 95.2189 152.57 95.0967" stroke="#934735" stroke-width="0.75" stroke-linecap="round" stroke-linejoin="round"/>
<path d="M153.506 96.1244C152.812 96.3641 152.055 96.3418 151.376 96.0618" stroke="#934735" stroke-width="0.75" stroke-linecap="round" stroke-linejoin="round"/>
<path d="M220.277 104.133C220.047 105.59 219.039 106.875 217.694 107.781C215.12 109.526 211.299 109.902 209.305 107.549C206.813 104.613 200.554 90.801 198.371 85.9067C197.896 84.832 197.612 84.1834 197.612 84.1834C197.795 77.7131 202.618 74.9118 207.45 75.1343C212.282 75.3568 215.577 78.7753 215.832 83.9265C216.087 89.0777 214.002 96.6572 215.438 98.227C216.875 99.7968 220.951 99.8782 220.277 104.133Z" fill="#D39933"/>
<path d="M218.538 105.628C218.38 106.387 218.094 107.115 217.694 107.78C215.12 109.526 211.299 109.902 209.305 107.549C206.814 104.613 200.555 90.8009 198.372 85.9066C199.89 78.8723 203.613 76.6852 207.768 77.3683C211.98 78.0639 213.785 83.7133 212.446 86.1824C211.107 88.6514 207.696 93.5144 209.434 96.5788C211.173 99.6432 210.871 100.223 212.899 100.705C214.928 101.188 219.162 102.191 218.538 105.628Z" fill="#C4892A"/>
<path d="M199.209 83.068C200.032 78.603 204.249 77.7883 206.102 78.2239" stroke="#EDB65F" stroke-width="0.75" stroke-linecap="round" stroke-linejoin="round"/>
<path d="M202.299 82.4978C204.656 80.5206 208.073 81.188 208.051 82.8863C208.029 84.5846 207.9 85.8536 208.883 86.5429C209.866 87.2322 211.33 88.6955 210.499 90.7541" stroke="#EDB65F" stroke-width="0.75" stroke-linecap="round" stroke-linejoin="round"/>
<path d="M212.537 93.0068C211.907 96.6948 211.516 98.5027 213.189 99.0103C214.862 99.5179 215.419 100.073 215.057 100.868C214.695 101.664 214.232 102 215.325 102.41C216.418 102.82 216.512 104.196 216.512 104.196" stroke="#EDB65F" stroke-width="0.75" stroke-linecap="round" stroke-linejoin="round"/>
<path d="M201.049 127.329C199.112 136.908 195.76 146.891 192.399 151.616C191.432 152.972 190.471 153.897 189.539 154.254C181.412 157.387 178.098 153.609 179.027 142.216C179.563 135.636 183.088 123.579 187.847 114.815C191.259 108.548 195.3 103.973 199.342 104.318C203.664 104.694 203.396 115.717 201.049 127.329Z" fill="#A7CAF0"/>
<path d="M201.049 127.329C200.106 127.01 199.244 126.49 198.524 125.806C197.803 125.122 197.24 124.291 196.875 123.369C196.408 122.159 195.81 121.004 195.092 119.922C193.344 117.315 190.912 115.357 187.847 114.799C191.259 108.532 195.3 103.958 199.342 104.302C203.663 104.694 203.396 115.717 201.049 127.329Z" fill="#C3DCF8"/>
<path d="M195.099 120.815C191.177 121.266 190.336 122.47 190.802 125.186C191.268 127.903 185.624 124.957 184.102 128.166C182.581 131.375 190.056 143.356 190.191 143.425L192.475 144.585L196.803 139.571L199.682 132.54L199.729 126.107L195.099 120.815Z" fill="#93BEE5"/>
<path d="M229.72 123.009C229.657 124.412 229.156 129.256 228.526 135.047C227.439 144.989 225.962 157.716 225.625 160.627L224.469 160.33C219.779 159.126 214.704 158.049 209.299 157.077C203.893 156.106 198.201 155.251 192.248 154.499C192.295 153.656 192.345 152.678 192.399 151.616C192.67 146.12 192.985 138.349 192.733 135.182C192.326 130.09 192.084 126.452 193.788 123.218C194.327 122.168 194.766 121.07 195.098 119.938C195.977 117.065 196.447 113.787 196.39 111.638C196.321 109.103 194.859 105.199 199.351 104.318C200.517 104.124 201.705 104.083 202.882 104.196C211.557 104.823 213.331 104.196 213.331 104.196C218.931 103.203 223.577 104.428 224.875 104.879L224.995 104.923C226.885 105.619 228.662 108.219 229.405 113.721C229.783 116.802 229.889 119.91 229.72 123.009Z" fill="#A7CAF0"/>
<path d="M218.112 127.799C211.91 124.904 207.626 131.559 207.947 136.83C208.36 143.532 200.491 135.341 197.152 142.617C194.5 148.398 207.639 153.584 214.55 147.944C221.461 142.304 226.485 131.703 218.112 127.799Z" fill="#93BEE5"/>
<path d="M229.417 113.721C225.184 113.041 219.841 115.044 216.603 117.951C215.249 119.173 214.263 120.555 213.882 121.965C212.59 126.772 205.795 129.072 201.048 127.329C200.106 127.01 199.244 126.49 198.523 125.806C197.803 125.122 197.24 124.291 196.875 123.369C196.407 122.159 195.81 121.004 195.092 119.922C195.971 117.049 196.44 113.772 196.383 111.622C196.314 109.087 194.852 105.183 199.344 104.303C200.511 104.108 201.698 104.067 202.875 104.18C211.551 104.807 213.324 104.18 213.324 104.18C218.925 103.187 223.571 104.412 224.869 104.863L224.988 104.907C226.885 105.619 228.664 108.219 229.417 113.721Z" fill="#C3DCF8"/>
<path d="M192.248 154.498C192.295 153.656 192.345 152.678 192.399 151.616C192.67 146.12 192.985 138.349 192.733 135.181C192.326 130.09 192.084 126.452 193.788 123.218C194.327 122.168 194.766 121.07 195.098 119.938C195.687 117.984 196.087 115.979 196.292 113.95" stroke="#83ADDF" stroke-width="0.75" stroke-linecap="round" stroke-linejoin="round"/>
<path d="M211.79 104.196C211.926 105.186 205.755 112.246 203.175 111.597C200.595 110.948 201.915 104.287 201.915 104.287C201.915 104.287 201.757 103.836 201.515 103.171C200.919 101.523 199.83 98.5403 199.433 97.7257C198.977 96.8043 198.613 95.8409 198.346 94.8493C196.38 87.4013 202.687 84.5281 206.095 92.0763C209.541 99.6871 211.651 103.203 211.79 104.196Z" fill="#FEBD9D"/>
<path d="M201.521 103.171C200.926 101.523 199.836 98.5403 199.439 97.7256C198.983 96.8043 198.619 95.8409 198.352 94.8492C200.598 93.3954 203.742 94.6988 204.967 97.2525C206.151 99.7341 204.592 102.654 201.521 103.171Z" fill="#F4A789"/>
<path d="M201.698 103.654C202.252 104.779 202.164 104.998 202.164 105.612C202.164 106.226 202.306 109.328 202.025 110.522C202.025 110.522 200.649 109.062 199.905 109.303C199.162 109.545 197.978 110.522 197.978 110.522L200.091 105.195C200.535 104.049 201.143 103.632 201.698 103.654Z" fill="#683F1D"/>
<path d="M213.334 104.196C213.359 103.569 211.601 102.394 211.34 102.98C209.903 106.214 206.177 110.375 204.885 111.268C205.446 111.405 205.979 111.637 206.46 111.954C207.182 112.471 208.517 114.808 208.517 114.808C208.517 114.808 213.072 110.522 213.334 104.196Z" fill="#683F1D"/>
<path d="M201.694 114.398C201.694 114.601 201.755 114.8 201.868 114.969C201.982 115.138 202.143 115.27 202.332 115.348C202.521 115.425 202.729 115.446 202.929 115.406C203.13 115.366 203.314 115.269 203.458 115.125C203.603 114.981 203.701 114.798 203.741 114.599C203.781 114.399 203.76 114.193 203.682 114.005C203.604 113.817 203.471 113.656 203.302 113.544C203.132 113.431 202.932 113.37 202.728 113.37C202.454 113.37 202.191 113.479 201.997 113.671C201.803 113.864 201.694 114.126 201.694 114.398Z" fill="white"/>
<path d="M201.165 118.186C201.164 118.39 201.225 118.59 201.338 118.76C201.452 118.93 201.613 119.063 201.803 119.141C201.992 119.22 202.2 119.24 202.402 119.201C202.603 119.162 202.788 119.064 202.933 118.92C203.078 118.776 203.177 118.592 203.218 118.392C203.258 118.192 203.237 117.984 203.159 117.796C203.081 117.607 202.948 117.446 202.777 117.333C202.607 117.219 202.406 117.159 202.201 117.159C202.065 117.158 201.931 117.185 201.805 117.236C201.679 117.287 201.565 117.363 201.469 117.459C201.373 117.554 201.296 117.668 201.244 117.792C201.192 117.917 201.165 118.051 201.165 118.186Z" fill="white"/>
<path d="M224.469 160.33C219.778 159.127 214.704 158.049 209.298 157.077C209.423 156.705 209.604 156.354 209.837 156.037C212.915 151.619 215.23 146.728 222.484 148.868C225.433 149.739 223.927 154.665 222.484 156.388C220.982 158.161 225.114 158.208 224.469 160.33Z" fill="#93BEE5"/>
<path d="M183.368 155.154C176.753 154.107 174.825 144.25 173.811 139.202C173.058 135.442 171.543 125.882 170.818 121.226C170.566 119.622 170.409 118.6 170.409 118.6C170.409 118.6 173.754 119.192 177.156 116.046C177.364 116.563 177.701 117.281 178.129 118.155C181.232 124.516 189.315 139.108 190.802 144.071C192.49 149.717 189.901 156.191 183.368 155.154Z" fill="#A7CAF0"/>
<path d="M173.811 139.202C173.461 137.45 172.944 134.436 172.418 131.246C171.817 127.593 171.206 123.71 170.818 121.219C170.566 119.615 170.409 118.594 170.409 118.594" stroke="#83ADDF" stroke-width="0.75" stroke-linecap="round" stroke-linejoin="round"/>
<path d="M177.156 116.046C176.372 114.48 174.428 111.5 172.582 110.124C171.593 109.391 170.377 109.397 169.958 109.692C169.958 109.692 166.588 109.194 164.027 109.814C161.466 110.435 161.06 111.835 162.121 111.957C163.183 112.08 164.994 111.462 166.307 111.431C166.307 111.431 164.981 111.744 165.01 112.96C164.695 112.775 163.954 113.258 164.112 114.251C164.112 114.251 163.583 113.699 163.372 114.721C163.161 115.742 164.055 117.246 165.082 117.303C166.109 117.359 165.996 116.623 165.996 116.623C165.996 116.623 166.833 118.152 170.406 118.6C170.406 118.6 171.036 119.687 171.036 119.631C171.036 119.574 177.263 120.207 177.156 116.046Z" fill="#FEBD9D"/>
<path d="M172.582 110.124C171.593 109.391 170.377 109.397 169.958 109.692C169.958 109.692 166.588 109.194 164.027 109.814C161.466 110.435 161.06 111.835 162.121 111.957C163.183 112.08 164.994 111.462 166.307 111.431C166.307 111.431 164.981 111.744 165.01 112.96C164.695 112.775 163.954 113.258 164.112 114.251C164.112 114.251 163.583 113.699 163.372 114.721C163.161 115.742 164.055 117.246 165.082 117.303C166.109 117.359 165.996 116.623 165.996 116.623" stroke="#EF8A66" stroke-width="0.75" stroke-linecap="round" stroke-linejoin="round"/>
<path d="M166.32 111.431C166.948 111.363 167.582 111.363 168.21 111.431" stroke="#EF8A66" stroke-width="0.75" stroke-linecap="round" stroke-linejoin="round"/>
<path d="M164.115 114.251C164.563 115.401 165.155 116.187 166.005 116.623C166.856 117.058 167.971 115.789 167.914 115.435C168.343 115.141 168.62 114.476 167.76 113.956" stroke="#EF8A66" stroke-width="0.75" stroke-linecap="round" stroke-linejoin="round"/>
<path d="M165.01 112.96C165.246 114.191 166.052 115.739 167.905 115.435" stroke="#EF8A66" stroke-width="0.75" stroke-linecap="round" stroke-linejoin="round"/>
<path d="M172.992 115.62C170.881 114.68 170.513 113.392 170.409 112.418C170.409 112.418 167.448 114.567 166.764 114.019C165.914 113.333 169.284 110.084 169.958 109.692" stroke="#EF8A66" stroke-width="0.75" stroke-linecap="round" stroke-linejoin="round"/>
<path d="M178.129 118.155C176.268 119.869 173.984 121.323 170.818 121.226C170.566 119.622 170.409 118.6 170.409 118.6C170.409 118.6 173.754 119.192 177.156 116.046C177.364 116.56 177.701 117.281 178.129 118.155Z" fill="#683F1D"/>
<path d="M176.268 117.732C176.268 117.847 176.302 117.959 176.366 118.054C176.43 118.15 176.521 118.224 176.628 118.268C176.735 118.312 176.852 118.323 176.965 118.3C177.078 118.278 177.182 118.222 177.264 118.141C177.345 118.059 177.4 117.956 177.422 117.843C177.444 117.731 177.432 117.614 177.388 117.508C177.343 117.402 177.268 117.312 177.172 117.249C177.076 117.185 176.963 117.152 176.847 117.152C176.771 117.152 176.695 117.167 176.625 117.197C176.554 117.226 176.49 117.268 176.436 117.322C176.382 117.376 176.34 117.44 176.311 117.51C176.282 117.581 176.267 117.656 176.268 117.732Z" fill="white"/>
<path d="M228.526 135.047C226.803 140.978 224.809 146.791 223.726 149.965C221.055 157.817 211.173 162.498 210.039 155.31C208.691 146.762 214.449 131.34 216.512 118.606C216.547 118.403 216.575 118.183 216.604 117.951C217.164 113.455 217.098 104.212 223.049 104.547C223.67 104.581 224.285 104.693 224.879 104.879L224.998 104.923C228.419 106.095 230.272 109.802 231.125 114.169C231.418 115.707 231.601 117.263 231.673 118.826C231.856 122.407 230.344 128.796 228.526 135.047Z" fill="#A7CAF0"/>
<path d="M231.125 114.169C230.573 113.963 230.001 113.813 229.418 113.721C225.184 113.041 219.842 115.044 216.604 117.951C217.164 113.455 217.098 104.212 223.048 104.547C223.67 104.581 224.285 104.693 224.879 104.879L224.998 104.923C228.419 106.095 230.265 109.802 231.125 114.169Z" fill="#C3DCF8"/>
<path d="M210.619 145.073C211.879 138.017 214.367 129.67 215.904 121.965" stroke="#83ADDF" stroke-width="0.75" stroke-linecap="round" stroke-linejoin="round"/>
<path d="M227.178 139.515C225.846 143.767 224.532 147.599 223.713 149.965C222.904 152.289 221.526 154.377 219.703 156.04" stroke="#83ADDF" stroke-width="0.75" stroke-linecap="round" stroke-linejoin="round"/>
<path d="M215.901 121.965C216.531 119.496 217.936 117.892 218.806 117.763" stroke="#83ADDF" stroke-width="0.75" stroke-linecap="round" stroke-linejoin="round"/>
<path d="M157.317 119.455C158.782 118.437 161.412 118.851 164.562 122.275C166.506 124.428 168.085 126.881 169.237 129.538C171.477 127.927 174.067 126.863 176.797 126.43C181.251 125.769 186.779 127.749 186.779 127.749L187.639 130.146L169.366 132.54L157.317 119.455Z" fill="#F9F9F9" stroke="#EDEDED" stroke-linecap="round" stroke-linejoin="round"/>
<path d="M170.409 130.375L188.739 128.918L196.006 148.699L178.454 150.109L170.409 130.375Z" fill="#F9F9F9" stroke="#DDDDDD" stroke-linecap="round" stroke-linejoin="round"/>
<path d="M156.514 118.186L168.311 130.159L176.315 148.902L164.89 138.155L156.514 118.186Z" fill="#F9F9F9" stroke="#DDDDDD" stroke-linecap="round" stroke-linejoin="round"/>
<path d="M168.311 130.159L170.409 130.375L178.454 150.109L176.315 148.902L168.311 130.159Z" fill="#F9F9F9" stroke="#DDDDDD" stroke-linecap="round" stroke-linejoin="round"/>
<path d="M164.679 124.221C166.402 125.954 168.144 128.943 168.144 128.943" stroke="#EDEDED" stroke-linecap="round" stroke-linejoin="round"/>
<path d="M170.415 129.532C171.937 128.659 173.585 128.025 175.301 127.652" stroke="#EDEDED" stroke-linecap="round" stroke-linejoin="round"/>
<path d="M170.629 129.877C172.204 129.19 175.411 128.589 175.411 128.589" stroke="#EDEDED" stroke-linecap="round" stroke-linejoin="round"/>
<path d="M167.303 129.585C167.772 128.664 170.424 128.019 170.944 130.839C170.35 131.171 169.664 131.303 168.988 131.215C168.424 131.108 167.303 129.585 167.303 129.585Z" fill="#F9F9F9" stroke="#DDDDDD" stroke-linecap="round" stroke-linejoin="round"/>
<path d="M187.894 139.963C186.197 139.024 184.641 137.853 183.27 136.485C181.979 135.232 178.618 133.568 178.303 133.762C177.988 133.956 177.742 134.815 179.515 136.369C180.058 136.802 180.514 137.334 180.857 137.936C180.224 138.165 179.542 138.23 178.876 138.124C177.742 137.951 172.957 137.638 172.381 137.579C171.804 137.519 171.688 138.296 172.551 138.641C171.165 138.434 170.784 139.252 172.034 140.01C172.034 140.01 170.95 140.298 172.217 141.235C173.292 141.973 174.423 142.628 175.6 143.193C175.6 143.193 173.023 142.451 172.689 142.498C172.355 142.545 172.17 143.074 173.055 143.544C173.94 144.014 180.133 146.396 181.204 146.709C182.517 147.088 185.163 147.539 185.163 147.539C185.163 147.539 188.351 142.965 187.894 139.963Z" fill="#FEBD9D"/>
<path d="M213.623 158.86C207.616 159.267 192.559 152.177 186.675 149.385C185.472 148.818 184.653 148.445 184.373 148.319C184.373 148.319 184.492 141.197 188.313 139.772C188.809 140.046 189.339 140.257 189.888 140.398C190.602 140.605 191.332 140.746 192.071 140.821C194.591 141.1 202.447 142.26 206.725 142.604C211.003 142.949 216.411 145.86 218.345 149.319C219.671 151.691 219.555 158.465 213.623 158.86Z" fill="#A7CAF0"/>
<path d="M213.623 158.86C207.616 159.267 192.559 152.177 186.675 149.385C185.472 148.818 184.653 148.445 184.373 148.32" stroke="#83ADDF" stroke-width="0.75" stroke-linecap="round" stroke-linejoin="round"/>
<path d="M188.313 139.778C188.81 140.052 189.339 140.263 189.888 140.405C190.602 140.611 191.332 140.753 192.071 140.828C194.591 141.107 202.448 142.266 206.725 142.611C209.56 142.839 212.865 144.177 215.35 146.057" stroke="#83ADDF" stroke-width="0.75" stroke-linecap="round" stroke-linejoin="round"/>
<path d="M181.471 135.178C180.07 134.329 178.51 133.634 178.303 133.762C177.988 133.956 177.742 134.815 179.515 136.369C180.058 136.802 180.514 137.334 180.857 137.936C180.224 138.165 179.542 138.23 178.876 138.124C177.742 137.951 172.957 137.638 172.381 137.579C171.804 137.519 171.688 138.296 172.551 138.641C171.165 138.434 170.784 139.252 172.034 140.01C172.034 140.01 170.95 140.298 172.217 141.235C173.292 141.973 174.423 142.628 175.6 143.194C175.6 143.194 173.023 142.451 172.689 142.498C172.355 142.545 172.17 143.074 173.055 143.544C173.316 143.682 174.053 143.993 174.986 144.369" stroke="#EF8A66" stroke-width="0.75" stroke-linecap="round" stroke-linejoin="round"/>
<path d="M189.901 140.42C188.058 141.805 186.773 145.854 186.675 149.391C185.472 148.824 184.653 148.451 184.373 148.326C184.373 148.326 184.492 141.204 188.313 139.778C188.813 140.059 189.346 140.275 189.901 140.42Z" fill="#683F1D"/>
<path d="M185.021 147.123C185.021 147.252 185.059 147.379 185.131 147.487C185.203 147.595 185.305 147.68 185.426 147.73C185.546 147.78 185.678 147.793 185.806 147.768C185.934 147.744 186.052 147.681 186.144 147.59C186.237 147.499 186.3 147.382 186.325 147.255C186.351 147.128 186.338 146.996 186.288 146.876C186.239 146.756 186.154 146.654 186.046 146.582C185.938 146.509 185.81 146.471 185.68 146.471C185.506 146.471 185.339 146.54 185.215 146.662C185.092 146.784 185.022 146.95 185.021 147.123Z" fill="white"/>
<path d="M175.6 143.193C176.416 143.444 177.027 143.685 177.027 143.685" stroke="#EF8A66" stroke-width="0.75" stroke-linecap="round" stroke-linejoin="round"/>
<path d="M172.034 139.997L177.481 141.884" stroke="#EF8A66" stroke-width="0.75" stroke-linecap="round" stroke-linejoin="round"/>
<path d="M172.551 138.628L177.66 139.997" stroke="#EF8A66" stroke-width="0.75" stroke-linecap="round" stroke-linejoin="round"/>
<path d="M206.442 93.6867C205.094 96.9579 201.632 102.601 197.483 99.8375C196.617 99.2496 195.869 98.5057 195.278 97.6441C194.503 96.5213 193.938 95.2689 193.609 93.9468C193.128 92.0818 193.058 90.1354 193.404 88.241C193.524 87.5885 193.709 86.9494 193.955 86.3328C195.659 82.1623 201.175 82.4945 203.207 84.5186C203.263 84.575 203.326 84.6377 203.389 84.7066C204.411 85.9176 205.214 87.2958 205.761 88.7799C205.843 88.9888 205.919 89.1977 205.988 89.4066C206.583 91.0767 206.829 92.7467 206.442 93.6867Z" fill="#FEBD9D"/>
<path d="M194.626 92.8752C194.626 92.9658 194.653 93.0544 194.704 93.1297C194.754 93.205 194.826 93.2636 194.911 93.2981C194.995 93.3327 195.087 93.3415 195.177 93.3236C195.266 93.3057 195.348 93.2618 195.412 93.1975C195.476 93.1333 195.52 93.0515 195.537 92.9625C195.555 92.8736 195.545 92.7815 195.51 92.698C195.475 92.6144 195.415 92.5432 195.339 92.4933C195.263 92.4434 195.174 92.4171 195.083 92.4177C195.022 92.4177 194.963 92.4296 194.907 92.4526C194.852 92.4756 194.801 92.5094 194.759 92.5519C194.716 92.5944 194.683 92.6449 194.66 92.7004C194.637 92.7559 194.626 92.8153 194.626 92.8752Z" fill="#683F1D"/>
<path d="M197.152 92.0761C197.152 92.1666 197.179 92.2551 197.23 92.3303C197.28 92.4055 197.352 92.4642 197.436 92.4988C197.52 92.5334 197.613 92.5425 197.702 92.5248C197.791 92.5072 197.873 92.4636 197.937 92.3996C198.002 92.3356 198.046 92.2541 198.063 92.1654C198.081 92.0766 198.072 91.9847 198.037 91.9011C198.002 91.8175 197.943 91.746 197.868 91.6958C197.792 91.6455 197.703 91.6187 197.612 91.6187C197.552 91.6182 197.492 91.6298 197.436 91.6526C197.38 91.6755 197.329 91.7092 197.286 91.7517C197.243 91.7943 197.209 91.8449 197.187 91.9006C197.164 91.9563 197.152 92.0159 197.152 92.0761Z" fill="#683F1D"/>
<path d="M205.446 93.5143C207.374 94.025 209.595 91.6343 208.474 89.654C207.352 87.6738 205.153 88.9271 204.886 90.334L205.446 93.5143Z" fill="#FEBD9D"/>
<path d="M205.446 93.5144C205.792 93.6005 206.153 93.6005 206.498 93.5144" stroke="#EF8A66" stroke-width="0.75" stroke-linecap="round" stroke-linejoin="round"/>
<path d="M205.761 91.4715C205.938 89.8641 207.396 89.7858 207.771 90.5096" stroke="#EF8A66" stroke-width="0.75" stroke-linecap="round" stroke-linejoin="round"/>
<path d="M205.809 91.1801C207.05 89.8391 208.609 92.0825 206.158 92.2799" stroke="#EF8A66" stroke-width="0.75" stroke-linecap="round" stroke-linejoin="round"/>
<path d="M205.988 89.3847C205.979 89.4428 205.967 89.5004 205.95 89.557C205.67 90.544 204.624 90.0521 204.199 89.1152C203.707 88.006 200.832 84.0141 198.239 86.7495C196.318 88.7737 194.736 89.0463 193.404 88.241C193.517 87.6232 193.69 87.0177 193.92 86.4331C193.93 86.399 193.942 86.3655 193.955 86.3328C195.659 82.1623 201.175 82.4945 203.207 84.5186C203.263 84.575 203.326 84.6377 203.389 84.7066C204.411 85.9176 205.214 87.2958 205.761 88.7799C205.843 88.9763 205.919 89.1779 205.988 89.3847Z" fill="#D39933"/>
<path d="M205.95 89.557C205.67 90.544 204.624 90.0521 204.199 89.1152C203.707 88.006 200.832 84.0142 198.239 86.7496C196.318 88.7737 194.736 89.0463 193.404 88.241C193.517 87.6232 193.69 87.0177 193.92 86.4331C195.555 87.1099 197.07 86.148 198.069 85.3333C199.329 84.3275 200.86 84.409 202.438 85.5056C203.83 86.4801 205.012 89.7262 205.95 89.557Z" fill="#C4892A"/>
<path d="M195.051 88.6327C194.796 85.8127 195.977 83.9954 196.941 83.4502" stroke="#EDB65F" stroke-width="0.75" stroke-linecap="round" stroke-linejoin="round"/>
<path d="M195.807 88.4917C195.927 87.3449 197.993 83.165 200.331 83.165" stroke="#EDB65F" stroke-width="0.75" stroke-linecap="round" stroke-linejoin="round"/>
<path d="M198.45 86.5552C199.184 84.7817 200.088 83.6474 201.165 83.3623" stroke="#EDB65F" stroke-width="0.75" stroke-linecap="round" stroke-linejoin="round"/>
<path d="M202.822 84.1865C202.995 85.6373 202.857 86.5961 202.432 86.8311" stroke="#EDB65F" stroke-width="0.75" stroke-linecap="round" stroke-linejoin="round"/>
<path d="M203.71 85.0825C204.192 86.9469 203.789 87.7866 203.509 88.0028" stroke="#EDB65F" stroke-width="0.75" stroke-linecap="round" stroke-linejoin="round"/>
<path d="M195.3 91.2959C196.16 91.6406 196.56 92.2359 196.346 92.7811C196.081 93.4579 195.647 94.6611 196.478 95.1875" stroke="#EF8A66" stroke-width="0.75" stroke-linecap="round" stroke-linejoin="round"/>
<path d="M196.356 89.7138C196.444 90.4 198.904 89.7138 198.998 89.3096C199.124 88.7612 196.201 88.5043 196.356 89.7138Z" fill="#D39933"/>
<path d="M194.985 90.331C195.3 90.8918 193.095 91.6877 192.78 91.4245C192.415 91.0798 194.468 89.3408 194.985 90.331Z" fill="#D39933"/>
<path d="M197.795 96.0147C198.198 95.8544 198.564 95.6147 198.871 95.3099C199.177 95.0051 199.419 94.6415 199.581 94.2412C199.581 94.2412 200.4 95.6637 199.433 96.4001C198.693 96.9609 197.795 96.0147 197.795 96.0147Z" fill="white" stroke="#EF8A66" stroke-width="0.75" stroke-linecap="round" stroke-linejoin="round"/>
<path d="M201.805 94.279C202.981 94.279 203.934 93.3307 203.934 92.1609C203.934 90.991 202.981 90.0427 201.805 90.0427C200.629 90.0427 199.675 90.991 199.675 92.1609C199.675 93.3307 200.629 94.279 201.805 94.279Z" fill="#F4AF90"/>
<path d="M196.018 96.0429C196.02 96.3474 195.954 96.6484 195.826 96.925C195.698 97.2016 195.511 97.4471 195.278 97.6441C194.503 96.5212 193.937 95.2688 193.608 93.9467C193.701 93.9328 193.795 93.9255 193.889 93.9248C194.454 93.9248 194.995 94.148 195.394 94.5452C195.794 94.9424 196.018 95.4812 196.018 96.0429Z" fill="#F4AF90"/>
</svg>
