<svg width="32" height="32" viewBox="0 0 40 40" fill="none" xmlns="http://www.w3.org/2000/svg">
<path d="M38.75 10V11.25C38.75 11.4158 38.6842 11.5748 38.5669 11.692C38.4497 11.8092 38.2908 11.875 38.125 11.875H36.25V12.8125C36.25 13.3303 35.8302 13.75 35.3125 13.75H4.6875C4.16977 13.75 3.75 13.3303 3.75 12.8125V11.875H1.875C1.70924 11.875 1.55027 11.8092 1.43306 11.692C1.31585 11.5748 1.25 11.4158 1.25 11.25V10C1.25 9.87637 1.28668 9.7555 1.35539 9.65271C1.4241 9.54991 1.52176 9.4698 1.63602 9.42252L19.761 2.54752C19.914 2.48416 20.086 2.48416 20.239 2.54752L38.364 9.42252C38.4782 9.4698 38.5759 9.54991 38.6446 9.65271C38.7133 9.7555 38.75 9.87637 38.75 10ZM36.875 33.75H3.125C2.08945 33.75 1.25 34.5895 1.25 35.625V36.875C1.25 37.0408 1.31585 37.1998 1.43306 37.317C1.55027 37.4342 1.70924 37.5 1.875 37.5H38.125C38.2908 37.5 38.4497 37.4342 38.5669 37.317C38.6842 37.1998 38.75 37.0408 38.75 36.875V35.625C38.75 34.5895 37.9105 33.75 36.875 33.75ZM7.5 15V30H4.6875C4.16977 30 3.75 30.4198 3.75 30.9375V32.5H36.25V30.9375C36.25 30.4198 35.8302 30 35.3125 30H32.5V15H27.5V30H22.5V15H17.5V30H12.5V15H7.5Z" fill="white"/>
</svg>
