<svg width="48" height="47" viewBox="0 0 48 47" fill="none" xmlns="http://www.w3.org/2000/svg">
<path d="M8.77148 32.5293C14.0723 30.373 19.1484 29.2949 24 29.2949C28.8516 29.2949 33.8828 30.373 39.0938 32.5293C44.3945 34.5957 47.0449 37.3359 47.0449 40.75V46.5449H0.955078V40.75C0.955078 37.3359 3.56055 34.5957 8.77148 32.5293ZM32.0859 20.1309C29.8398 22.377 27.1445 23.5 24 23.5C20.8555 23.5 18.1602 22.377 15.9141 20.1309C13.668 17.8848 12.5449 15.1895 12.5449 12.0449C12.5449 8.90039 13.668 6.20508 15.9141 3.95898C18.1602 1.62305 20.8555 0.455078 24 0.455078C27.1445 0.455078 29.8398 1.62305 32.0859 3.95898C34.332 6.20508 35.4551 8.90039 35.4551 12.0449C35.4551 15.1895 34.332 17.8848 32.0859 20.1309Z" fill="#00DCB5" fill-opacity="0.13"/>
</svg>
